<svg width="256" height="256" viewBox="0 0 256 256" fill="none" xmlns="http://www.w3.org/2000/svg">
<style>
	@media (prefers-color-scheme: dark) {
		#box { fill: #202636 }
	}
	@media (prefers-color-scheme: light) {
		#box { fill: #f0f2f6 }
	}
</style>
<path id="box" d="M0 251.104C0 253.808 2.19226 256 4.89655 256H251.103C253.808 256 256 253.808 256 251.104V4.89679C256 2.19249 253.808 0.000244141 251.103 0.000244141H4.89655C2.19226 0.000244141 0 2.19249 0 4.89679V251.104Z"/>
<path d="M120.165 22.2899C120.547 20.6664 122.858 20.6679 123.238 22.2919L153.457 151.558C154.288 155.112 154.286 158.811 153.45 162.364L136.676 233.71C136.294 235.334 133.983 235.332 133.603 233.708L103.384 104.442C102.553 100.888 102.555 97.1894 103.391 93.6363L120.165 22.2899Z" fill="#FF0055"/>
</svg>
