<svg xmlns="http://www.w3.org/2000/svg" viewBox="0 0 256 256">
<style> path { fill: #f05; } </style>
<path d="M16 256C7.16344 256 0 248.837 0 240V16.0003C0 7.16374 7.16344 0.000298707 16 0.000298707H240C248.837 0.000298707 256 7.16374 256 16.0003V240C256 248.837 248.837 256 240 256H16ZM123.236 22.2835C122.856 20.6616 120.548 20.6601 120.167 22.2816L103.389 93.6431C102.555 97.1918 102.552 100.885 103.382 104.435L133.605 233.716C133.984 235.338 136.293 235.34 136.674 233.718L153.452 162.357C154.286 158.808 154.289 155.115 153.459 151.565L123.236 22.2835Z"/>
</svg>
