<svg xmlns="http://www.w3.org/2000/svg" viewBox="0 0 1339.01 528.37"><title>Brand</title><path d="M27.2,363.21a190.81,190.81,0,0,1-15-52.16c-1.42-10.2-1.42-36.56,0-46.48a189.91,189.91,0,0,1,15-52.44,43.25,43.25,0,0,1,2.27-4.82s82.77,47.34,83.06,47.9a44.65,44.65,0,0,1-1.7,5.1c-3.41,10.21-4.26,15-4.26,27.22s.85,18.14,4.26,27.78c.85,2.83,2,5.38,2,5.95.28.85-2.83,2.55-68.6,40.82L30,370.3Z" transform="translate(-11.12 -11.43)" style="fill:#bb95d1"/><path d="M83.61,211.84C61.79,199.09,43.08,188.6,42.51,188l-1.42-.57,2.84-4.25c8.5-12.19,23.81-28.34,35.15-37.41A185.56,185.56,0,0,1,178,106.11l4.25-.28v95.81l-4.54.85c-6.52,1.13-17,4.82-23.81,8.22a80,80,0,0,0-23.24,17.57l-6.8,6.81c-.29-.29-18.43-10.49-40.26-23.25Z" transform="translate(-11.12 -11.43)" style="fill:#fc746a"/><path d="M259.64,231.4c-11.33-13.89-30.33-24.94-48.75-28.63l-4.82-.85V105.54l4.82.29c11.05.85,28.06,4.53,39.4,8.22a184.19,184.19,0,0,1,91.84,67.46,46.85,46.85,0,0,1,4,6c0,.29-81.92,47.91-82.49,47.91C263.33,235.65,261.63,233.67,259.64,231.4Z" transform="translate(-11.12 -11.43)" style="fill:#49c5b1"/><path d="M315.49,345.92l-41.67-24.09,1.41-3.12c6.52-16.16,7.09-39.12,1.42-57a48.5,48.5,0,0,1-1.42-5.67c.57-.56,81.36-47.05,81.93-47.34,1.7-.28,9.63,20.13,13,33.74a181.13,181.13,0,0,1,3.41,76c-2.84,16.16-9.36,36.57-15.59,49l-1.14,2Z" transform="translate(-11.12 -11.43)" style="fill:#dc4397"/><path d="M206.07,422.17v-47.9l1.7-.29c20.69-4.25,33.73-11.05,47.62-24.66l7.37-7.08,41.39,23.81,41.38,23.81L343.27,393c-30,42.8-79.94,72-131.81,76.53l-5.39.57Z" transform="translate(-11.12 -11.43)" style="fill:#69b3e7"/><path d="M176.31,470.08c-23.25-2.27-49.61-10.49-70.3-21.83a191.38,191.38,0,0,1-51-41.39c-6.52-7.65-12.75-16.15-12.18-16.72.28-.28,19-11.05,41.38-24.09l41.1-23.53,7.09,7.09c12.76,12.75,26.36,20.12,43.94,23.81l5.95,1.13v95.81h-2c-.85,0-2.83-.28-4-.28Z" transform="translate(-11.12 -11.43)" style="fill:#fedd00"/><path d="M536.59,25.89H506.54v88.44H489.25V25.89H459.49V11.43h77.1Z" transform="translate(-11.12 -11.43)" style="fill:gray"/><path d="M635.8,114.33H618.51V69.54h-49v44.79H552.18V11.43h17.29V54.8h49V11.43H635.8Z" transform="translate(-11.12 -11.43)" style="fill:gray"/><path d="M720.27,114.33H661.59V11.43h56.13V25.89H678.89v29.2h36V69.54h-36V99.88H720Z" transform="translate(-11.12 -11.43)" style="fill:gray"/><path d="M722.25,534.14h-39.4V380.5H508.24V534.42h-39.4V197.1h39.4v148H682.85V196.82h39.4Z" transform="translate(-11.12 -11.43)" style="fill:gray"/><path d="M1057.87,397.79q0,142-128.12,142-122.88,0-122.74-136.63V196.82h39.4V400.63q0,103.74,87.59,103.75,84.62,0,84.47-100.35V196.82h39.4Z" transform="translate(-11.12 -11.43)" style="fill:gray"/><path d="M1142.35,534.14V196.82h96.09c29.2,0,52.16,7.09,69.45,21.54,17,14.18,25.51,32.88,25.51,55.84,0,19-5.1,35.72-15.59,49.89s-24.66,24.1-42.8,30.05V355c22.67,2.55,40.82,11.34,54.7,25.8,13.61,14.45,20.41,33.16,20.41,56.41,0,28.91-10.48,52.15-31.18,70s-46.77,26.93-78.23,26.93Zm39.4-301.6V341.39h40.53c21.55,0,38.55-5.11,51-15.6s18.7-25.22,18.7-44.22c0-32.88-21.54-49-64.63-49Zm0,144.56V498.42h53.86c23.24,0,41.1-5.38,53.85-16.44s19.28-26.08,19.28-45.07c0-40-27.21-59.81-81.36-59.81Z" transform="translate(-11.12 -11.43)" style="fill:gray"/></svg>