<svg xmlns="http://www.w3.org/2000/svg" viewBox="0 0 291 300">
	<defs>
		<linearGradient id="a" x1="145.5" y1="197" x2="145.5" y2="-103" gradientTransform="translate(0 103)" gradientUnits="userSpaceOnUse">
		<stop offset="0.00176" stop-color="#49c5b1"/>
		<stop offset="1" stop-color="#e5c5d3"/>
		</linearGradient>
	</defs>

	<rect width="291" height="300" rx="2" transform="translate(291 300) rotate(180)" fill="url(#a)"/>

	<path d="M47.40723,58.19727a13.33918,13.33918,0,0,1-5.73682,1.18066,10.43507,10.43507,0,0,1-4.17773-.81006A9.2961,9.2961,0,0,1,34.291,56.32031a10.02094,10.02094,0,0,1-2.043-3.4209,12.60551,12.60551,0,0,1-.71924-4.3291,13.4951,13.4951,0,0,1,.76416-4.59424,10.92543,10.92543,0,0,1,2.1875-3.69336,10.11945,10.11945,0,0,1,3.44336-2.45947,11.10449,11.10449,0,0,1,4.53369-.89306,13.57871,13.57871,0,0,1,4.94971.84765v2.14942a10.98782,10.98782,0,0,0-4.98-1.16553,9.11961,9.11961,0,0,0-3.73877.72656,7.74612,7.74612,0,0,0-2.75489,2.021,8.947,8.947,0,0,0-1.71045,3.05761,12.06669,12.06669,0,0,0-.59033,3.85206,11.53506,11.53506,0,0,0,.52979,3.53466,8.50172,8.50172,0,0,0,1.56689,2.89844,7.43012,7.43012,0,0,0,2.58057,1.96777,8.34056,8.34056,0,0,0,3.5874.72657,11.182,11.182,0,0,0,5.50977-1.3169Z" fill="#490c66"/>
	<path d="M58.06348,59.36279a7.93358,7.93358,0,0,1-3.09571-.57519,6.61469,6.61469,0,0,1-2.33838-1.627,7.16455,7.16455,0,0,1-1.48339-2.5205,9.77917,9.77917,0,0,1-.51465-3.2544,10.2863,10.2863,0,0,1,.54492-3.46631,7.2951,7.2951,0,0,1,1.55127-2.5957,6.62687,6.62687,0,0,1,2.42969-1.62744,8.618,8.618,0,0,1,3.17871-.56006,7.90842,7.90842,0,0,1,3.02734.55273,6.17992,6.17992,0,0,1,2.28565,1.59668,7.11771,7.11771,0,0,1,1.438,2.543,10.74748,10.74748,0,0,1,.49952,3.40577,9.96182,9.96182,0,0,1-.522,3.30712,7.479,7.479,0,0,1-1.49121,2.56592,6.59882,6.59882,0,0,1-2.36133,1.665A7.99851,7.99851,0,0,1,58.06348,59.36279Zm.15136-14.54638a5.81163,5.81163,0,0,0-2.30078.439,4.82656,4.82656,0,0,0-1.76367,1.2793A5.77991,5.77991,0,0,0,53.023,48.59326a8.96,8.96,0,0,0-.39356,2.76221,8.14694,8.14694,0,0,0,.39356,2.61865,5.89859,5.89859,0,0,0,1.11279,1.998,4.79852,4.79852,0,0,0,1.748,1.27929,6.2492,6.2492,0,0,0,4.60156.01465,4.54289,4.54289,0,0,0,1.69531-1.25586,5.536,5.536,0,0,0,1.05176-2.021,9.55171,9.55171,0,0,0,.356-2.72461,7.26193,7.26193,0,0,0-1.39258-4.79053A4.90823,4.90823,0,0,0,58.21484,44.81641Z" fill="#490c66"/>
	<path d="M79.95117,58.99951V50.06885q0-5.2522-3.81445-5.25244a4.40112,4.40112,0,0,0-1.87695.40088,4.50444,4.50444,0,0,0-1.49122,1.11279,5.21607,5.21607,0,0,0-.98339,1.688,6.11519,6.11519,0,0,0-.356,2.11132v8.87012H69.4917v-15.5h1.9375v2.69434h.06055a5.5999,5.5999,0,0,1,5.19189-3.05762,4.68926,4.68926,0,0,1,3.875,1.6499,7.43709,7.43709,0,0,1,1.332,4.76807v9.44531Z" fill="#490c66"/>
	<path d="M93.21094,58.81787a4.80511,4.80511,0,0,1-2.17969.49951q-3.7544,0-3.75391-4.3291V45.19482H84.55273V43.49951h2.72461V39.59424l1.9375-.63574v4.541h3.9961v1.69531h-3.9961v9.49073a3.88355,3.88355,0,0,0,.51465,2.2705,2.0231,2.0231,0,0,0,1.74072.69629,3.132,3.132,0,0,0,1.74073-.54492Z" fill="#490c66"/>
	<path d="M105.33545,58.99951V56.24463h-.06055a5.6919,5.6919,0,0,1-2.06592,2.30078,5.47415,5.47415,0,0,1-2.95947.81738,6.04436,6.04436,0,0,1-2.021-.31787A4.33308,4.33308,0,0,1,96.7002,58.144a3.951,3.951,0,0,1-.96875-1.3999,4.62849,4.62849,0,0,1-.34083-1.80127,4.4271,4.4271,0,0,1,1.30176-3.35254,6.99321,6.99321,0,0,1,3.93555-1.62744l4.70752-.68115q0-4.46484-3.46631-4.46533a7.57823,7.57823,0,0,0-5.02539,1.98291V44.68018a6.48283,6.48283,0,0,1,1.09766-.62793,9.93424,9.93424,0,0,1,1.29394-.48438,10.642,10.642,0,0,1,1.40039-.31836,9.02624,9.02624,0,0,1,1.3999-.11328,5.02877,5.02877,0,0,1,3.9126,1.45313,6.23345,6.23345,0,0,1,1.32471,4.3291v10.081Zm-3.99609-7.523a12.14274,12.14274,0,0,0-1.78614.37842,3.66055,3.66055,0,0,0-1.22607.61328,2.283,2.283,0,0,0-.71143.95313,3.78886,3.78886,0,0,0-.227,1.40039,2.97129,2.97129,0,0,0,.21973,1.15039,2.57488,2.57488,0,0,0,.63574.916,2.89136,2.89136,0,0,0,1.01367.59766,4.03321,4.03321,0,0,0,1.355.21191,4.46937,4.46937,0,0,0,3.3833-1.48339,5.04909,5.04909,0,0,0,.9834-1.665,6.05373,6.05373,0,0,0,.356-2.104V50.9165Z" fill="#490c66"/>
	<path d="M122.24316,58.30322a8.12634,8.12634,0,0,1-4.17773,1.07471,7.16026,7.16026,0,0,1-2.99707-.5752,6.566,6.566,0,0,1-2.27051-1.64209,7.29683,7.29683,0,0,1-1.438-2.48242,9.37826,9.37826,0,0,1-.49951-3.11084,9.9734,9.9734,0,0,1,.52979-3.27685,7.83241,7.83241,0,0,1,1.54394-2.67969,7.3075,7.3075,0,0,1,2.48242-1.80859,8.0545,8.0545,0,0,1,3.36036-.666,8.20768,8.20768,0,0,1,3.51171.7417v2.05859a6.5207,6.5207,0,0,0-3.66308-1.12011,5.547,5.547,0,0,0-2.45215.522,5.28678,5.28678,0,0,0-1.80908,1.42285,6.38323,6.38323,0,0,0-1.12012,2.10449,8.31236,8.31236,0,0,0-.38574,2.5503,8.58746,8.58746,0,0,0,.32519,2.37646,5.90934,5.90934,0,0,0,.999,2.00586,4.87307,4.87307,0,0,0,1.70312,1.38477,5.35053,5.35053,0,0,0,2.42188.51464,6.44551,6.44551,0,0,0,3.93554-1.30175Z" fill="#490c66"/>
	<path d="M132.627,58.81787a4.805,4.805,0,0,1-2.17968.49951q-3.7544,0-3.75391-4.3291V45.19482h-2.72461V43.49951h2.72461V39.59424l1.9375-.63574v4.541H132.627v1.69531h-3.99609v9.49073a3.88355,3.88355,0,0,0,.51465,2.2705,2.02309,2.02309,0,0,0,1.74072.69629,3.132,3.132,0,0,0,1.74072-.54492Z" fill="#490c66"/>
	<path d="M134.94287,56.21436a6.15423,6.15423,0,0,0,.95361.6206,8.18879,8.18879,0,0,0,1.05957.46924,6.63119,6.63119,0,0,0,1.09766.29492,5.97261,5.97261,0,0,0,1.05176.09863q3.45117,0,3.45117-2.58837a2.05983,2.05983,0,0,0-.24219-1.022,2.676,2.676,0,0,0-.69629-.78711,5.85808,5.85808,0,0,0-1.08984-.6582q-.63575-.30249-1.438-.63574a14.38142,14.38142,0,0,1-1.84668-.89307,5.58486,5.58486,0,0,1-1.27148-.9917,3.56555,3.56555,0,0,1-.7417-1.18066,4.119,4.119,0,0,1-.24219-1.46045,3.70663,3.70663,0,0,1,.44629-1.83154,4.25583,4.25583,0,0,1,1.20361-1.36231,5.609,5.609,0,0,1,1.74854-.85547,7.26968,7.26968,0,0,1,2.08105-.29492,7.69868,7.69868,0,0,1,3.51172.75684v2.04345a6.81113,6.81113,0,0,0-3.7539-1.12011,4.54129,4.54129,0,0,0-1.32422.18164,3.08856,3.08856,0,0,0-1.022.51465,2.37106,2.37106,0,0,0-.65869.79443,2.22715,2.22715,0,0,0-.23437,1.022,2.575,2.575,0,0,0,.18164,1.00635,2.196,2.196,0,0,0,.56738.77978,4.77643,4.77643,0,0,0,.999.666q.61376.31787,1.49121.68115a18.92963,18.92963,0,0,1,1.9375.90039,6.03982,6.03982,0,0,1,1.34716.96875,3.41474,3.41474,0,0,1,.78711,1.166,3.9971,3.9971,0,0,1,.25733,1.49072,3.92255,3.92255,0,0,1-.43164,1.86182,4.00583,4.00583,0,0,1-1.19532,1.37744,5.50828,5.50828,0,0,1-1.79394.84766,8.31713,8.31713,0,0,1-2.24024.28759,7.42588,7.42588,0,0,1-3.95068-.98388Z" fill="#490c66"/>
	<rect x="122" y="80" width="100" height="40" rx="2" fill="#005f7f"/>
	<path d="M151.49219,103.93408a7.51493,7.51493,0,0,1-3.65479.89356,5.08718,5.08718,0,0,1-3.772-1.4502,5.20262,5.20262,0,0,1-1.44287-3.83789,5.39265,5.39265,0,0,1,1.57861-4.00293,5.46036,5.46036,0,0,1,4.00977-1.56348,7.46777,7.46777,0,0,1,2.94433.5127v1.79443a5.068,5.068,0,0,0-2.87841-.80566,3.66543,3.66543,0,0,0-2.75049,1.106,3.94,3.94,0,0,0-1.07276,2.86377,4.12517,4.12517,0,0,0,.92285,2.84521,3.183,3.183,0,0,0,2.50489,1.03662,3.96479,3.96479,0,0,0,1.875-.41748v-2.49756h-2.21192V98.94629h3.94776Z" fill="#fff"/>
	<path d="M157.91553,98.77051a1.40853,1.40853,0,0,0-.88623-.2417,1.517,1.517,0,0,0-1.25977.68115,3.04591,3.04591,0,0,0-.50537,1.853v3.58887h-1.69922v-7.5h1.69922v1.54541h.0293a2.61524,2.61524,0,0,1,.76513-1.23389A1.7292,1.7292,0,0,1,157.2124,97.02a1.43213,1.43213,0,0,1,.70313.13916Z" fill="#fff"/>
	<path d="M164.87354,104.65186h-1.64795V103.48h-.0293a2.48137,2.48137,0,0,1-2.27783,1.34766,2.398,2.398,0,0,1-1.73194-.60059,2.099,2.099,0,0,1-.62646-1.58935q0-2.124,2.44629-2.47559l2.22656-.31494q0-1.604-1.52344-1.604a3.61873,3.61873,0,0,0-2.417.92286V97.6792a5.27083,5.27083,0,0,1,2.73926-.70313q2.84179,0,2.8418,2.79786Zm-1.64063-3.68409-1.57471.21973a2.5037,2.5037,0,0,0-1.10254.355,1.03893,1.03893,0,0,0-.36962.91211,1.00006,1.00006,0,0,0,.34033.78027,1.32018,1.32018,0,0,0,.91211.30371,1.6806,1.6806,0,0,0,1.28515-.54589,1.9334,1.9334,0,0,0,.50928-1.373Z" fill="#fff"/>
	<path d="M172.31494,104.30762a4.19042,4.19042,0,0,1-2.13135.52,3.60776,3.60776,0,0,1-2.69531-1.04395,3.69587,3.69587,0,0,1-1.02539-2.70605,4.07058,4.07058,0,0,1,1.10205-2.97754,3.94312,3.94312,0,0,1,2.94824-1.124,4.30334,4.30334,0,0,1,1.80909.35889v1.582a2.74,2.74,0,0,0-1.66993-.58594,2.32093,2.32093,0,0,0-1.76513.729,2.66407,2.66407,0,0,0-.68848,1.90771,2.53884,2.53884,0,0,0,.64844,1.83838,2.3,2.3,0,0,0,1.73926.67383,2.71838,2.71838,0,0,0,1.72851-.65186Z" fill="#fff"/>
	<path d="M180.34961,101.36328H175.2373a2.161,2.161,0,0,0,.64063,1.604,2.38507,2.38507,0,0,0,1.68115.564,3.70662,3.70662,0,0,0,2.20459-.71777v1.36963a5.03686,5.03686,0,0,1-2.71.64453,3.35683,3.35683,0,0,1-2.59668-1.02149,4.0882,4.0882,0,0,1-.94092-2.875,3.99384,3.99384,0,0,1,1.03662-2.85254,3.389,3.389,0,0,1,2.57422-1.10254,2.956,2.956,0,0,1,2.38037.98877,4.10521,4.10521,0,0,1,.84229,2.74659Zm-1.64063-1.20117a2.18885,2.18885,0,0,0-.43212-1.42432,1.44411,1.44411,0,0,0-1.17188-.50927,1.6496,1.6496,0,0,0-1.2417.53466,2.44249,2.44249,0,0,0-.626,1.39893Z" fill="#fff"/>
	<path d="M191.95117,95.62842h-3.92578v3.15674h3.61816v1.47216h-3.61816v4.39454h-1.74316V94.14893h5.66894Z" fill="#fff"/>
	<path d="M196.95361,104.82764a3.716,3.716,0,0,1-2.772-1.05078,3.79548,3.79548,0,0,1-1.03662-2.78711,3.70288,3.70288,0,0,1,3.9917-4.01368,3.59805,3.59805,0,0,1,2.73926,1.03272,3.98932,3.98932,0,0,1,.98144,2.86377,3.93146,3.93146,0,0,1-1.05859,2.875A3.8009,3.8009,0,0,1,196.95361,104.82764Zm.08057-6.49659a1.93975,1.93975,0,0,0-1.57471.69581,2.91341,2.91341,0,0,0-.57861,1.91894,2.74249,2.74249,0,0,0,.58594,1.85645,1.96663,1.96663,0,0,0,1.56738.67773,1.86835,1.86835,0,0,0,1.542-.6665,2.95316,2.95316,0,0,0,.53809-1.897,2.99787,2.99787,0,0,0-.53809-1.91162A1.85946,1.85946,0,0,0,197.03418,98.33105Z" fill="#fff"/>
	<circle cx="65" cy="106" r="36" fill="#fff"/>
	<path d="M65.50977,115.02588a11.96267,11.96267,0,0,1-5.94141,1.57422,8.89224,8.89224,0,0,1-3.55469-.6792,7.69943,7.69943,0,0,1-2.67871-1.8916,8.33824,8.33824,0,0,1-1.69482-2.89453,11.11026,11.11026,0,0,1-.59034-3.70069,11.31351,11.31351,0,0,1,.28565-2.56445,10.01937,10.01937,0,0,1,.83789-2.31055,8.8958,8.8958,0,0,1,1.352-1.95508,8.45922,8.45922,0,0,1,1.83447-1.51074,8.79683,8.79683,0,0,1,2.27881-.97754,10.05168,10.05168,0,0,1,2.67871-.34277,11.52893,11.52893,0,0,1,4.82422.96484V100.604a10.20335,10.20335,0,0,0-5.02734-1.29492,7.21157,7.21157,0,0,0-3.00879.60938,6.736,6.736,0,0,0-2.29151,1.67578,7.62929,7.62929,0,0,0-1.4663,2.52,9.49787,9.49787,0,0,0-.53321,3.15478,10.067,10.067,0,0,0,.438,3.1167A6.99257,6.99257,0,0,0,54.5918,112.855a6.12907,6.12907,0,0,0,2.19629,1.625,7.34751,7.34751,0,0,0,3.02148.584,7.99925,7.99925,0,0,0,4.01172-.96484v-5.54785H59.68262v-1.53613h5.82715Z" fill="#490c66"/>
	<path d="M71.41309,99.62646v6.85547h6.65234v1.53614H71.41309v8.26464H69.72461V98.07764h8.874v1.54882Z" fill="#490c66"/>
	<path d="M128.5332,134.87891l-.92578-2.48438h-3.60351l-.90235,2.48438h-.86718l3.19921-8.40235h.78516l3.18164,8.40235Zm-2.56054-6.93164q-.041-.11133-.085-.25782a2.52561,2.52561,0,0,1-.07325-.334H125.791a3.26286,3.26286,0,0,1-.07911.334q-.04394.14649-.085.25782l-1.35937,3.73828h3.07617Z" fill="#033333"/>
	<path d="M130.26172,133.80078a2.39847,2.39847,0,0,0,.36914.24024,3.19436,3.19436,0,0,0,.41016.18164,2.58177,2.58177,0,0,0,.4248.11425,2.32531,2.32531,0,0,0,.40723.03809q1.33593,0,1.33593-1.00195a.79516.79516,0,0,0-.09375-.39551,1.03185,1.03185,0,0,0-.26953-.30469,2.25355,2.25355,0,0,0-.42187-.25488q-.24609-.11719-.55664-.24609a5.58426,5.58426,0,0,1-.71485-.34571,2.16339,2.16339,0,0,1-.49218-.38379,1.38472,1.38472,0,0,1-.28711-.457,1.59662,1.59662,0,0,1-.09375-.56543,1.433,1.433,0,0,1,.17285-.709,1.64653,1.64653,0,0,1,.46582-.52735,2.16493,2.16493,0,0,1,.67676-.33105,2.80886,2.80886,0,0,1,.80566-.11426,2.979,2.979,0,0,1,1.35938.293v.791a2.63557,2.63557,0,0,0-1.45313-.4336,1.75908,1.75908,0,0,0-.51269.07031,1.19532,1.19532,0,0,0-.39551.19922.916.916,0,0,0-.25489.30762.86036.86036,0,0,0-.09082.39551.99824.99824,0,0,0,.07032.38965.84991.84991,0,0,0,.21972.30175,1.84393,1.84393,0,0,0,.38672.25782q.23731.123.57715.26367a7.29435,7.29435,0,0,1,.75.34863,2.32719,2.32719,0,0,1,.52148.375,1.31785,1.31785,0,0,1,.30469.45117,1.54649,1.54649,0,0,1,.09961.57715,1.52058,1.52058,0,0,1-.167.72071,1.55312,1.55312,0,0,1-.46289.5332,2.13435,2.13435,0,0,1-.69434.32812,3.21329,3.21329,0,0,1-.86718.11133,2.87453,2.87453,0,0,1-1.5293-.38086Z" fill="#033333"/>
	<path d="M135.13672,133.80078a2.39847,2.39847,0,0,0,.36914.24024,3.19436,3.19436,0,0,0,.41016.18164,2.58177,2.58177,0,0,0,.4248.11425,2.32531,2.32531,0,0,0,.40723.03809q1.33593,0,1.33593-1.00195a.79516.79516,0,0,0-.09375-.39551,1.03185,1.03185,0,0,0-.26953-.30469,2.25355,2.25355,0,0,0-.42187-.25488q-.24609-.11719-.55664-.24609a5.58426,5.58426,0,0,1-.71485-.34571,2.16339,2.16339,0,0,1-.49218-.38379,1.38472,1.38472,0,0,1-.28711-.457,1.59662,1.59662,0,0,1-.09375-.56543,1.433,1.433,0,0,1,.17285-.709,1.64653,1.64653,0,0,1,.46582-.52735,2.16493,2.16493,0,0,1,.67676-.33105,2.80886,2.80886,0,0,1,.80566-.11426,2.979,2.979,0,0,1,1.35938.293v.791a2.63557,2.63557,0,0,0-1.45313-.4336,1.75908,1.75908,0,0,0-.51269.07031,1.19532,1.19532,0,0,0-.39551.19922.916.916,0,0,0-.25489.30762.86036.86036,0,0,0-.09082.39551.99824.99824,0,0,0,.07032.38965.84991.84991,0,0,0,.21972.30175,1.84393,1.84393,0,0,0,.38672.25782q.23731.123.57715.26367a7.29435,7.29435,0,0,1,.75.34863,2.32719,2.32719,0,0,1,.52148.375,1.31785,1.31785,0,0,1,.30469.45117,1.54649,1.54649,0,0,1,.09961.57715,1.52058,1.52058,0,0,1-.167.72071,1.55312,1.55312,0,0,1-.46289.5332,2.13435,2.13435,0,0,1-.69434.32812,3.21329,3.21329,0,0,1-.86718.11133,2.87453,2.87453,0,0,1-1.5293-.38086Z" fill="#033333"/>
	<path d="M142.80664,135.01953a3.06908,3.06908,0,0,1-1.19824-.22265,2.56166,2.56166,0,0,1-.90528-.62989,2.77516,2.77516,0,0,1-.57421-.97558,3.7878,3.7878,0,0,1-.19922-1.25977,3.98118,3.98118,0,0,1,.21093-1.3418,2.82486,2.82486,0,0,1,.60059-1.00488,2.56568,2.56568,0,0,1,.94043-.62988,3.33441,3.33441,0,0,1,1.23047-.2168,3.06317,3.06317,0,0,1,1.17187.21387,2.39159,2.39159,0,0,1,.88477.61816,2.7543,2.7543,0,0,1,.55664.98438,4.16021,4.16021,0,0,1,.19336,1.31836,3.85235,3.85235,0,0,1-.20215,1.28027,2.89049,2.89049,0,0,1-.57715.99316,2.55488,2.55488,0,0,1-.91406.64454A3.09562,3.09562,0,0,1,142.80664,135.01953Zm.05859-5.63086a2.24876,2.24876,0,0,0-.89062.16992,1.86857,1.86857,0,0,0-.68262.49512,2.23971,2.23971,0,0,0-.43652.79688,3.47343,3.47343,0,0,0-.15235,1.06933,3.15752,3.15752,0,0,0,.15235,1.01367,2.28759,2.28759,0,0,0,.43066.77344,1.85974,1.85974,0,0,0,.67676.49512,2.41907,2.41907,0,0,0,1.78125.00586,1.76,1.76,0,0,0,.65625-.48633,2.14218,2.14218,0,0,0,.40723-.78223,3.7013,3.7013,0,0,0,.13769-1.05468,2.81139,2.81139,0,0,0-.53906-1.8545A1.90032,1.90032,0,0,0,142.86523,129.38867Z" fill="#033333"/>
	<path d="M151.2207,134.60938a3.14442,3.14442,0,0,1-1.61718.416,2.77045,2.77045,0,0,1-1.16016-.22266,2.54226,2.54226,0,0,1-.87891-.63574,2.82367,2.82367,0,0,1-.55664-.96094,3.629,3.629,0,0,1-.19336-1.2041,3.86451,3.86451,0,0,1,.20508-1.26855,3.03249,3.03249,0,0,1,.59766-1.03711,2.82846,2.82846,0,0,1,.96093-.7002,3.1178,3.1178,0,0,1,1.30079-.25781,3.17486,3.17486,0,0,1,1.35937.28711v.79688a2.52317,2.52317,0,0,0-1.418-.4336,2.145,2.145,0,0,0-.94922.20215,2.0425,2.0425,0,0,0-.70019.55078,2.46671,2.46671,0,0,0-.4336.81445,3.21354,3.21354,0,0,0-.14941.98731,3.32186,3.32186,0,0,0,.126.91992,2.28118,2.28118,0,0,0,.38672.77637,1.88733,1.88733,0,0,0,.65918.53613,2.07254,2.07254,0,0,0,.9375.19922,2.49553,2.49553,0,0,0,1.52343-.50391Z" fill="#033333"/>
	<path d="M153.03125,127.36133a.52233.52233,0,0,1-.375-.15235.51381.51381,0,0,1-.1582-.38671.49754.49754,0,0,1,.1582-.37793.52773.52773,0,0,1,.375-.14942.58559.58559,0,0,1,.21094.03809.50891.50891,0,0,1,.17285.1084.53666.53666,0,0,1,.11719.167.51093.51093,0,0,1,.04394.21387.54859.54859,0,0,1-.041.21093.50222.50222,0,0,1-.11719.17285.56674.56674,0,0,1-.17285.11426A.54212.54212,0,0,1,153.03125,127.36133Zm-.36914,7.51758v-6h.75v6Z" fill="#033333"/>
	<path d="M158.80273,134.87891V133.8125h-.02343a2.20259,2.20259,0,0,1-.79981.89062,2.11822,2.11822,0,0,1-1.14551.31641,2.33927,2.33927,0,0,1-.78222-.12305,1.679,1.679,0,0,1-.5918-.34863,1.53416,1.53416,0,0,1-.375-.542,1.79559,1.79559,0,0,1-.13184-.69727,1.71448,1.71448,0,0,1,.50391-1.29785,2.70817,2.70817,0,0,1,1.52344-.62988l1.82226-.26367q0-1.72852-1.34179-1.72852a2.93346,2.93346,0,0,0-1.94532.76758v-.82031a2.519,2.519,0,0,1,.42481-.24317,3.9053,3.9053,0,0,1,.501-.1875,4.11961,4.11961,0,0,1,.542-.123,3.47307,3.47307,0,0,1,.542-.04395,1.94694,1.94694,0,0,1,1.51465.5625,2.41334,2.41334,0,0,1,.51269,1.67578v3.90235Zm-1.54687-2.91211a4.696,4.696,0,0,0-.69141.14648,1.42179,1.42179,0,0,0-.47461.23731.88536.88536,0,0,0-.27539.36914,1.465,1.465,0,0,0-.08789.542,1.152,1.152,0,0,0,.085.44531.99906.99906,0,0,0,.2461.35449,1.1184,1.1184,0,0,0,.39258.23145,1.56371,1.56371,0,0,0,.52441.082,1.72965,1.72965,0,0,0,1.30957-.57422,1.9569,1.9569,0,0,0,.38086-.64453,2.34528,2.34528,0,0,0,.13769-.81445V131.75Z" fill="#033333"/>
	<path d="M163.93555,134.80859a1.86,1.86,0,0,1-.84375.19336q-1.45312,0-1.45313-1.67578v-3.791H160.584v-.65625h1.05469v-1.51172l.75-.2461v1.75782h1.54688v.65625h-1.54688V133.209a1.50438,1.50438,0,0,0,.19922.87891.78345.78345,0,0,0,.67383.26953,1.21223,1.21223,0,0,0,.67383-.21094Z" fill="#033333"/>
	<path d="M165.43555,132.01367a3.36064,3.36064,0,0,0,.14648.99024,2.09845,2.09845,0,0,0,.4043.74414,1.73775,1.73775,0,0,0,.6416.46582,2.15425,2.15425,0,0,0,.85254.16113,3.05079,3.05079,0,0,0,1.916-.709v.73828a3.49448,3.49448,0,0,1-2.08593.61523,2.75412,2.75412,0,0,1-1.09571-.21094,2.272,2.272,0,0,1-.83789-.6123,2.79867,2.79867,0,0,1-.5332-.98731,4.37955,4.37955,0,0,1-.1875-1.33593,3.68523,3.68523,0,0,1,.20508-1.24805,3.07811,3.07811,0,0,1,.56836-.99316,2.62047,2.62047,0,0,1,.86133-.65625,2.50074,2.50074,0,0,1,1.08984-.23731,2.45707,2.45707,0,0,1,1.02539.20215,2.01255,2.01255,0,0,1,.74707.57715,2.61326,2.61326,0,0,1,.46.91406,4.28145,4.28145,0,0,1,.1582,1.207v.375Zm3.5625-.65625a2.28537,2.28537,0,0,0-.44532-1.45312,1.4607,1.4607,0,0,0-1.18945-.51563,1.8259,1.8259,0,0,0-.70605.13477,1.68042,1.68042,0,0,0-.57129.38965,2.10237,2.10237,0,0,0-.40723.62109,3.11792,3.11792,0,0,0-.22559.82324Z" fill="#033333"/>
	<path d="M175.43164,131.60938v3.26953h-.7793v-8.40235h2.168a3.82531,3.82531,0,0,1,1.17188.16406,2.386,2.386,0,0,1,.86133.47461,1.99368,1.99368,0,0,1,.5332.76172,2.74385,2.74385,0,0,1,.18164,1.03125,2.79752,2.79752,0,0,1-.20508,1.08106,2.43962,2.43962,0,0,1-.58887.85547,2.70964,2.70964,0,0,1-.93457.5625,3.60554,3.60554,0,0,1-1.248.20215Zm0-4.418v3.70312h1.11328a2.39313,2.39313,0,0,0,1.64649-.50391,1.8125,1.8125,0,0,0,.5625-1.42382q0-1.7754-2.07422-1.77539Z" fill="#033333"/>
	<path d="M184.127,129.64648a1.12062,1.12062,0,0,0-.67968-.19336,1.16425,1.16425,0,0,0-.52735.11426,1.33513,1.33513,0,0,0-.40137.30762,1.85171,1.85171,0,0,0-.293.44824,3.12471,3.12471,0,0,0-.19336.53028,3.88167,3.88167,0,0,0-.10547.55664,4.69157,4.69157,0,0,0-.03223.5332v2.93555h-.74414v-6h.74414v1.2832h.02344a2.66891,2.66891,0,0,1,.2666-.58887,1.83152,1.83152,0,0,1,.37207-.43945,1.55626,1.55626,0,0,1,.46-.27246,1.476,1.476,0,0,1,.52442-.09375,2.03159,2.03159,0,0,1,.32519.02344,1.23811,1.23811,0,0,1,.26074.07031Z" fill="#033333"/>
	<path d="M187.51367,135.01953a3.06912,3.06912,0,0,1-1.19824-.22265,2.56162,2.56162,0,0,1-.90527-.62989,2.77518,2.77518,0,0,1-.57422-.97558,3.7878,3.7878,0,0,1-.19922-1.25977,3.98092,3.98092,0,0,1,.21094-1.3418,2.82469,2.82469,0,0,1,.60058-1.00488,2.56568,2.56568,0,0,1,.94043-.62988,3.33445,3.33445,0,0,1,1.23047-.2168,3.06325,3.06325,0,0,1,1.17188.21387,2.39164,2.39164,0,0,1,.88476.61816,2.75415,2.75415,0,0,1,.55664.98438,4.16021,4.16021,0,0,1,.19336,1.31836,3.85235,3.85235,0,0,1-.20215,1.28027,2.89049,2.89049,0,0,1-.57715.99316,2.55488,2.55488,0,0,1-.91406.64454A3.09562,3.09562,0,0,1,187.51367,135.01953Zm.0586-5.63086a2.24881,2.24881,0,0,0-.89063.16992,1.86866,1.86866,0,0,0-.68262.49512,2.23971,2.23971,0,0,0-.43652.79688,3.47344,3.47344,0,0,0-.15234,1.06933,3.15752,3.15752,0,0,0,.15234,1.01367,2.28759,2.28759,0,0,0,.43066.77344,1.85974,1.85974,0,0,0,.67676.49512,2.41907,2.41907,0,0,0,1.78125.00586,1.76,1.76,0,0,0,.65625-.48633,2.14218,2.14218,0,0,0,.40723-.78223,3.70094,3.70094,0,0,0,.13769-1.05468,2.81133,2.81133,0,0,0-.53906-1.8545A1.90031,1.90031,0,0,0,187.57227,129.38867Z" fill="#033333"/>
	<path d="M192.6875,134.668a4.01556,4.01556,0,0,1-.52734,2.26172,2.07756,2.07756,0,0,1-2.50782.57422v-.72657a1.71627,1.71627,0,0,0,.86719.26954q1.418,0,1.418-2.25v-5.918h.75Zm-.38086-7.30664a.52233.52233,0,0,1-.375-.15235.51381.51381,0,0,1-.1582-.38671.49754.49754,0,0,1,.1582-.37793.52773.52773,0,0,1,.375-.14942.58559.58559,0,0,1,.21094.03809.50891.50891,0,0,1,.17285.1084.53666.53666,0,0,1,.11719.167.51093.51093,0,0,1,.04394.21387.54859.54859,0,0,1-.041.21093.50222.50222,0,0,1-.11719.17285.56674.56674,0,0,1-.17285.11426A.54212.54212,0,0,1,192.30664,127.36133Z" fill="#033333"/>
	<path d="M194.97852,132.01367a3.36064,3.36064,0,0,0,.14648.99024,2.09845,2.09845,0,0,0,.4043.74414,1.73775,1.73775,0,0,0,.6416.46582,2.15425,2.15425,0,0,0,.85254.16113,3.05079,3.05079,0,0,0,1.916-.709v.73828a3.4945,3.4945,0,0,1-2.08593.61523,2.75412,2.75412,0,0,1-1.09571-.21094,2.272,2.272,0,0,1-.83789-.6123,2.79867,2.79867,0,0,1-.5332-.98731,4.37955,4.37955,0,0,1-.1875-1.33593,3.68523,3.68523,0,0,1,.20508-1.24805,3.07811,3.07811,0,0,1,.56836-.99316,2.62043,2.62043,0,0,1,.86132-.65625,2.50081,2.50081,0,0,1,1.08985-.23731,2.4571,2.4571,0,0,1,1.02539.20215,2.01255,2.01255,0,0,1,.74707.57715,2.61326,2.61326,0,0,1,.46.91406,4.28145,4.28145,0,0,1,.1582,1.207v.375Zm3.5625-.65625a2.28537,2.28537,0,0,0-.44532-1.45312,1.4607,1.4607,0,0,0-1.18945-.51563,1.82587,1.82587,0,0,0-.70605.13477,1.68042,1.68042,0,0,0-.57129.38965,2.10217,2.10217,0,0,0-.40723.62109,3.11792,3.11792,0,0,0-.22559.82324Z" fill="#033333"/>
	<path d="M204.77539,134.60938a3.14443,3.14443,0,0,1-1.61719.416,2.77043,2.77043,0,0,1-1.16015-.22266,2.54226,2.54226,0,0,1-.87891-.63574,2.8235,2.8235,0,0,1-.55664-.96094,3.62872,3.62872,0,0,1-.19336-1.2041,3.86451,3.86451,0,0,1,.20508-1.26855,3.03249,3.03249,0,0,1,.59766-1.03711,2.82836,2.82836,0,0,1,.96093-.7002,3.11779,3.11779,0,0,1,1.30078-.25781,3.17487,3.17487,0,0,1,1.35938.28711v.79688a2.52317,2.52317,0,0,0-1.418-.4336,2.145,2.145,0,0,0-.94922.20215,2.0425,2.0425,0,0,0-.70019.55078,2.46653,2.46653,0,0,0-.4336.81445,3.21324,3.21324,0,0,0-.14941.98731,3.32223,3.32223,0,0,0,.126.91992,2.28154,2.28154,0,0,0,.38672.77637,1.88751,1.88751,0,0,0,.65918.53613,2.0726,2.0726,0,0,0,.9375.19922,2.49556,2.49556,0,0,0,1.52344-.50391Z" fill="#033333"/>
	<path d="M208.79492,134.80859a1.86,1.86,0,0,1-.84375.19336q-1.45312,0-1.45312-1.67578v-3.791h-1.05469v-.65625h1.05469v-1.51172l.75-.2461v1.75782h1.54687v.65625h-1.54687V133.209a1.5043,1.5043,0,0,0,.19922.87891.78344.78344,0,0,0,.67382.26953,1.21218,1.21218,0,0,0,.67383-.21094Z" fill="#033333"/>
	<path d="M130.52539,149.27881V143.478q0-.44532.07031-1.43555h-.02343q-.082.26367-.14942.457a3.21929,3.21929,0,0,1-.126.31641l-2.92969,6.46289h-.334l-2.93554-6.42188a5.48466,5.48466,0,0,1-.26368-.82617h-.02343q.02343.26954.03222.61524t.00879.76757v5.86524h-.76172v-8.40235h.91993l2.85351,6.31641q.0879.19922.17285.40723t.15528.44238h.03515q.082-.23437.14942-.42773t.167-.416l2.87695-6.32227h.87305v8.40235Z" fill="#033333"/>
	<path d="M136.80664,149.27881V148.2124h-.02344a2.20259,2.20259,0,0,1-.7998.89063,2.11832,2.11832,0,0,1-1.14551.3164,2.33963,2.33963,0,0,1-.78223-.123,1.679,1.679,0,0,1-.59179-.34864,1.53416,1.53416,0,0,1-.375-.542,1.79557,1.79557,0,0,1-.13184-.69726,1.7145,1.7145,0,0,1,.50391-1.29786,2.70817,2.70817,0,0,1,1.52344-.62988l1.82226-.26367q0-1.72851-1.3418-1.72852a2.93343,2.93343,0,0,0-1.94531.76758v-.82031a2.51856,2.51856,0,0,1,.42481-.24316,3.90273,3.90273,0,0,1,.501-.1875,4.12,4.12,0,0,1,.542-.12305,3.4732,3.4732,0,0,1,.542-.04395,1.94694,1.94694,0,0,1,1.51465.5625,2.41339,2.41339,0,0,1,.51269,1.67578v3.90235Zm-1.54687-2.91211a4.69576,4.69576,0,0,0-.69141.14648,1.4217,1.4217,0,0,0-.47461.23731.88527.88527,0,0,0-.27539.36914,1.465,1.465,0,0,0-.08789.542,1.152,1.152,0,0,0,.085.44531.99907.99907,0,0,0,.24609.3545,1.11847,1.11847,0,0,0,.39258.23144,1.56377,1.56377,0,0,0,.52442.082,1.72965,1.72965,0,0,0,1.30957-.57422,1.9568,1.9568,0,0,0,.38086-.64453,2.34551,2.34551,0,0,0,.13769-.81445v-.5918Z" fill="#033333"/>
	<path d="M143.41016,149.27881v-3.457q0-2.03321-1.47657-2.03321a1.702,1.702,0,0,0-.72656.15528,1.74073,1.74073,0,0,0-.57715.43066,2.01988,2.01988,0,0,0-.38086.65332,2.37021,2.37021,0,0,0-.13769.81738v3.4336h-.75v-6h.75v1.043h.02344a2.16753,2.16753,0,0,1,2.00976-1.1836,1.81474,1.81474,0,0,1,1.5.63868,2.87787,2.87787,0,0,1,.51563,1.8457v3.65625Z" fill="#033333"/>
	<path d="M149.42188,149.27881V148.2124h-.02344a2.20269,2.20269,0,0,1-.79981.89063,2.11829,2.11829,0,0,1-1.14551.3164,2.33953,2.33953,0,0,1-.78222-.123,1.679,1.679,0,0,1-.5918-.34864,1.53416,1.53416,0,0,1-.375-.542,1.79557,1.79557,0,0,1-.13183-.69726,1.71449,1.71449,0,0,1,.5039-1.29786,2.70817,2.70817,0,0,1,1.52344-.62988l1.82227-.26367q0-1.72851-1.3418-1.72852a2.93341,2.93341,0,0,0-1.94531.76758v-.82031a2.51885,2.51885,0,0,1,.4248-.24316,3.90288,3.90288,0,0,1,.501-.1875,4.11963,4.11963,0,0,1,.542-.12305,3.47307,3.47307,0,0,1,.542-.04395,1.94694,1.94694,0,0,1,1.51465.5625,2.41334,2.41334,0,0,1,.5127,1.67578v3.90235ZM147.875,146.3667a4.696,4.696,0,0,0-.69141.14648,1.42179,1.42179,0,0,0-.47461.23731.88536.88536,0,0,0-.27539.36914,1.465,1.465,0,0,0-.08789.542,1.152,1.152,0,0,0,.085.44531.99909.99909,0,0,0,.2461.3545,1.11838,1.11838,0,0,0,.39258.23144,1.56371,1.56371,0,0,0,.52441.082,1.72965,1.72965,0,0,0,1.30957-.57422,1.9568,1.9568,0,0,0,.38086-.64453,2.34528,2.34528,0,0,0,.1377-.81445v-.5918Z" fill="#033333"/>
	<path d="M156.93359,148.81592a3.50393,3.50393,0,0,1-.75879,2.47558,3.07487,3.07487,0,0,1-2.34082.80567,4.11126,4.11126,0,0,1-1.86328-.43946V150.896a3.84155,3.84155,0,0,0,1.86328.54492q2.34961,0,2.34961-2.48438v-.7207h-.02343a2.28113,2.28113,0,0,1-2.10938,1.18359,2.4688,2.4688,0,0,1-1.0166-.20507,2.19222,2.19222,0,0,1-.78809-.5918,2.76834,2.76834,0,0,1-.50976-.94043,4.00377,4.00377,0,0,1-.18164-1.251,4.41107,4.41107,0,0,1,.19336-1.34472,3.09082,3.09082,0,0,1,.55078-1.04,2.45708,2.45708,0,0,1,.86426-.6709,2.65578,2.65578,0,0,1,1.13964-.23731,1.98172,1.98172,0,0,1,1.85743,1.03125h.02343v-.89062h.75Zm-.75-3.18164a1.87677,1.87677,0,0,0-.13476-.709,1.83528,1.83528,0,0,0-.375-.58593,1.80756,1.80756,0,0,0-.57129-.40137,1.75287,1.75287,0,0,0-.72949-.14942,1.92962,1.92962,0,0,0-.84668.18164,1.83053,1.83053,0,0,0-.64453.51563,2.38605,2.38605,0,0,0-.41016.81152,3.73122,3.73122,0,0,0-.14356,1.0752,3.43284,3.43284,0,0,0,.13477.99609,2.254,2.254,0,0,0,.38086.75586,1.703,1.703,0,0,0,.59473.48047,1.74838,1.74838,0,0,0,.77636.16992,1.97289,1.97289,0,0,0,.8086-.16113,1.82879,1.82879,0,0,0,.62109-.44531,2.01266,2.01266,0,0,0,.39844-.668,2.39166,2.39166,0,0,0,.14062-.8291Z" fill="#033333"/>
	<path d="M159.22461,146.41357a3.361,3.361,0,0,0,.14648.99024,2.09845,2.09845,0,0,0,.4043.74414,1.73775,1.73775,0,0,0,.6416.46582,2.15429,2.15429,0,0,0,.85254.16113,3.05084,3.05084,0,0,0,1.916-.709v.73828a3.49444,3.49444,0,0,1-2.08594.61523,2.75424,2.75424,0,0,1-1.0957-.21093,2.272,2.272,0,0,1-.83789-.61231,2.79873,2.79873,0,0,1-.53321-.9873,4.37967,4.37967,0,0,1-.1875-1.33594,3.68523,3.68523,0,0,1,.20508-1.24805,3.07822,3.07822,0,0,1,.56836-.99316,2.62057,2.62057,0,0,1,.86133-.65625,2.50088,2.50088,0,0,1,1.08984-.23731,2.45722,2.45722,0,0,1,1.02539.20215,2.01247,2.01247,0,0,1,.74707.57715,2.61309,2.61309,0,0,1,.46.91406,4.28144,4.28144,0,0,1,.15821,1.207v.375Zm3.5625-.65625a2.28543,2.28543,0,0,0-.44531-1.45312,1.46072,1.46072,0,0,0-1.18946-.51563,1.82612,1.82612,0,0,0-.70605.13477,1.68056,1.68056,0,0,0-.57129.38965,2.10256,2.10256,0,0,0-.40723.62109,3.118,3.118,0,0,0-.22558.82324Z" fill="#033333"/>
	<path d="M168.00781,144.04639a1.12056,1.12056,0,0,0-.67969-.19336,1.16408,1.16408,0,0,0-.52734.11426,1.33526,1.33526,0,0,0-.40137.30761,1.85171,1.85171,0,0,0-.293.44824,3.125,3.125,0,0,0-.19336.53028,3.88167,3.88167,0,0,0-.10547.55664,4.69157,4.69157,0,0,0-.03223.5332v2.93555h-.74414v-6h.74414v1.2832h.02344a2.66891,2.66891,0,0,1,.2666-.58887,1.83172,1.83172,0,0,1,.37207-.43945,1.55613,1.55613,0,0,1,.46-.27246,1.476,1.476,0,0,1,.52442-.09375,2.03159,2.03159,0,0,1,.32519.02344,1.23811,1.23811,0,0,1,.26074.07031Z" fill="#033333"/>
	<rect x="122" y="175" width="135" height="53" rx="2" fill="#005f7f"/>
	<path d="M143.29639,199.65186V189.14893h3.03222q5.80811,0,5.80811,5.11962a5.04566,5.04566,0,0,1-1.61133,3.90772,6.14968,6.14968,0,0,1-4.32129,1.47559Zm1.73584-9.02344v7.55127h1.3916a3.89246,3.89246,0,0,0,2.86035-1.01074,3.84047,3.84047,0,0,0,1.02148-2.85645q0-3.68408-3.81591-3.68408Z" fill="#fff"/>
	<path d="M157.19043,199.82764a3.716,3.716,0,0,1-2.772-1.05078,3.79548,3.79548,0,0,1-1.03662-2.78711,3.70287,3.70287,0,0,1,3.9917-4.01368,3.598,3.598,0,0,1,2.73925,1.03272,3.98928,3.98928,0,0,1,.98145,2.86377,3.93143,3.93143,0,0,1-1.0586,2.875A3.80086,3.80086,0,0,1,157.19043,199.82764Zm.08057-6.49659a1.93973,1.93973,0,0,0-1.57471.69581,2.91341,2.91341,0,0,0-.57861,1.91894,2.74254,2.74254,0,0,0,.58593,1.85645,1.96667,1.96667,0,0,0,1.56739.67773,1.86837,1.86837,0,0,0,1.542-.6665,2.95316,2.95316,0,0,0,.53808-1.897,2.99787,2.99787,0,0,0-.53808-1.91162A1.85947,1.85947,0,0,0,157.271,193.33105Z" fill="#fff"/>
	<path d="M169.50244,199.65186h-1.69922v-4.22608q0-2.10206-1.48681-2.102a1.62458,1.62458,0,0,0-1.28174.582,2.16137,2.16137,0,0,0-.50537,1.46875v4.27735h-1.70655v-7.5h1.70655V193.397h.02929a2.67309,2.67309,0,0,1,2.43164-1.4209,2.26484,2.26484,0,0,1,1.86768.79493,3.56759,3.56759,0,0,1,.64453,2.29589Z" fill="#fff"/>
	<path d="M178.25488,199.65186h-1.69922v-4.22608q0-2.10206-1.48681-2.102a1.62458,1.62458,0,0,0-1.28174.582,2.16142,2.16142,0,0,0-.50537,1.46875v4.27735H171.5752v-7.5h1.70654V193.397h.0293a2.67308,2.67308,0,0,1,2.43164-1.4209,2.26481,2.26481,0,0,1,1.86767.79493,3.56759,3.56759,0,0,1,.64453,2.29589Z" fill="#fff"/>
	<path d="M186.08447,199.65186h-1.648V198.48h-.02929a2.48137,2.48137,0,0,1-2.27784,1.34766,2.398,2.398,0,0,1-1.73193-.60059,2.099,2.099,0,0,1-.62646-1.58935q0-2.124,2.44629-2.47559l2.22656-.31494q0-1.604-1.52344-1.604a3.61873,3.61873,0,0,0-2.417.92286V192.6792a5.27081,5.27081,0,0,1,2.73926-.70313q2.84179,0,2.84179,2.79786Zm-1.64062-3.68409-1.57471.21973a2.50365,2.50365,0,0,0-1.10254.355,1.03893,1.03893,0,0,0-.36963.91211,1.00009,1.00009,0,0,0,.34033.78027,1.32018,1.32018,0,0,0,.91211.30371,1.68062,1.68062,0,0,0,1.28516-.54589,1.9334,1.9334,0,0,0,.50928-1.37305Z" fill="#fff"/>
	<path d="M143.29639,217.65186V207.14893h3.03222q5.80811,0,5.80811,5.11962a5.04566,5.04566,0,0,1-1.61133,3.90772,6.14968,6.14968,0,0,1-4.32129,1.47559Zm1.73584-9.02344v7.55127h1.3916a3.89246,3.89246,0,0,0,2.86035-1.01074,3.84047,3.84047,0,0,0,1.02148-2.85645q0-3.68408-3.81591-3.68408Z" fill="#fff"/>
	<path d="M154.72217,208.57715a1.02013,1.02013,0,0,1-.71387-.271.89026.89026,0,0,1-.29687-.68847.913.913,0,0,1,.29687-.6958,1.00514,1.00514,0,0,1,.71387-.27833,1.038,1.038,0,0,1,.73242.27833.90923.90923,0,0,1,.30029.6958.89708.89708,0,0,1-.30029.67773A1.03025,1.03025,0,0,1,154.72217,208.57715Zm.84228,9.07471h-1.69922v-7.5h1.69922Z" fill="#fff"/>
	<path d="M157.97412,217.65186V207.14893h3.33252a3.93626,3.93626,0,0,1,2.41309.6665,2.07068,2.07068,0,0,1,.89013,1.73584,2.47856,2.47856,0,0,1-.50537,1.55273,2.72661,2.72661,0,0,1-1.39892.9375v.0293a2.74148,2.74148,0,0,1,1.73193.80176,2.442,2.442,0,0,1,.64844,1.76172,2.64542,2.64542,0,0,1-1.062,2.18261,4.20468,4.20468,0,0,1-2.68067.835Zm1.73584-9.104v2.98828h1.12793a2.17036,2.17036,0,0,0,1.42481-.42822,1.48942,1.48942,0,0,0,.51611-1.2124q0-1.34766-1.80176-1.34766Zm0,4.38721v3.32519h1.48682a2.26519,2.26519,0,0,0,1.50537-.45019,1.54352,1.54352,0,0,0,.53076-1.2417q0-1.63331-2.26318-1.6333Z" fill="#fff"/>
	<path d="M172.60059,217.65186h-1.648V216.48h-.0293a2.48137,2.48137,0,0,1-2.27783,1.34766,2.398,2.398,0,0,1-1.73194-.60059,2.099,2.099,0,0,1-.62646-1.58935q0-2.124,2.44629-2.47559l2.22656-.31494q0-1.604-1.52344-1.604a3.61873,3.61873,0,0,0-2.417.92286V210.6792a5.27083,5.27083,0,0,1,2.73926-.70313q2.8418,0,2.8418,2.79786ZM170.96,213.96777l-1.57471.21973a2.5037,2.5037,0,0,0-1.10254.355,1.03893,1.03893,0,0,0-.36962.91211,1.00009,1.00009,0,0,0,.34033.78027,1.32018,1.32018,0,0,0,.91211.30371,1.68058,1.68058,0,0,0,1.28515-.54589,1.9334,1.9334,0,0,0,.50928-1.37305Z" fill="#fff"/>
	<path d="M179.02393,211.77051a1.40853,1.40853,0,0,0-.88623-.2417,1.517,1.517,0,0,0-1.25977.68115,3.04591,3.04591,0,0,0-.50537,1.853v3.58887h-1.69922v-7.5h1.69922v1.54541h.0293a2.61524,2.61524,0,0,1,.76513-1.23389,1.7292,1.7292,0,0,1,1.15381-.44336,1.43213,1.43213,0,0,1,.70313.13916Z" fill="#fff"/>
	<path d="M184.6123,217.57129a2.94483,2.94483,0,0,1-1.311.249q-2.18262,0-2.18262-2.09472v-4.24073h-1.25244v-1.333h1.25244V208.416l1.69922-.4834v2.21924h1.79443v1.333h-1.79443v3.75a1.47764,1.47764,0,0,0,.2417.95215,1.00338,1.00338,0,0,0,.80566.28565,1.16819,1.16819,0,0,0,.74707-.249Z" fill="#fff"/>
	<path d="M189.31445,217.82764a3.716,3.716,0,0,1-2.772-1.05078,3.79548,3.79548,0,0,1-1.03662-2.78711,3.70288,3.70288,0,0,1,3.9917-4.01368,3.59805,3.59805,0,0,1,2.73926,1.03272,3.98932,3.98932,0,0,1,.98144,2.86377,3.93146,3.93146,0,0,1-1.05859,2.875A3.8009,3.8009,0,0,1,189.31445,217.82764Zm.08057-6.49659a1.93975,1.93975,0,0,0-1.57471.69581,2.91341,2.91341,0,0,0-.57861,1.91894,2.74249,2.74249,0,0,0,.58594,1.85645,1.96663,1.96663,0,0,0,1.56738.67773,1.86835,1.86835,0,0,0,1.542-.6665,2.95316,2.95316,0,0,0,.53809-1.897,2.99787,2.99787,0,0,0-.53809-1.91162A1.85946,1.85946,0,0,0,189.395,211.33105Z" fill="#fff"/>
	<path d="M196.65332,217.65186h-1.70654V206.54834h1.70654Z" fill="#fff"/>
	<path d="M202.19043,217.82764a3.716,3.716,0,0,1-2.772-1.05078,3.79548,3.79548,0,0,1-1.03662-2.78711,3.70287,3.70287,0,0,1,3.9917-4.01368,3.598,3.598,0,0,1,2.73925,1.03272,3.98928,3.98928,0,0,1,.98145,2.86377,3.93143,3.93143,0,0,1-1.0586,2.875A3.80086,3.80086,0,0,1,202.19043,217.82764Zm.08057-6.49659a1.93973,1.93973,0,0,0-1.57471.69581,2.91341,2.91341,0,0,0-.57861,1.91894,2.74254,2.74254,0,0,0,.58593,1.85645,1.96667,1.96667,0,0,0,1.56739.67773,1.86837,1.86837,0,0,0,1.542-.6665,2.95316,2.95316,0,0,0,.53808-1.897,2.99787,2.99787,0,0,0-.53808-1.91162A1.85947,1.85947,0,0,0,202.271,211.33105Z" fill="#fff"/>
	<path d="M219.03613,217.65186h-1.69922v-4.08692a3.31767,3.31767,0,0,0-.333-1.70654,1.2268,1.2268,0,0,0-1.12452-.52735,1.35389,1.35389,0,0,0-1.13134.66651,2.71613,2.71613,0,0,0-.46534,1.59668v4.05762h-1.70654v-4.22608q0-2.09472-1.47949-2.09473a1.335,1.335,0,0,0-1.13184.62989,2.77733,2.77733,0,0,0-.44287,1.6333v4.05762h-1.69922v-7.5H209.522v1.18652h.0293a2.59811,2.59811,0,0,1,2.36572-1.36231,2.22571,2.22571,0,0,1,1.3584.42872,2.12912,2.12912,0,0,1,.79492,1.124,2.67639,2.67639,0,0,1,2.49024-1.55274q2.47558,0,2.47558,3.0542Z" fill="#fff"/>
	<path d="M227.459,214.36328h-5.1123a2.161,2.161,0,0,0,.64062,1.604,2.38511,2.38511,0,0,0,1.68116.564,3.70664,3.70664,0,0,0,2.20459-.71777v1.36963a5.0369,5.0369,0,0,1-2.71.64453,3.35681,3.35681,0,0,1-2.59668-1.02149,4.08816,4.08816,0,0,1-.94092-2.875,3.99379,3.99379,0,0,1,1.03662-2.85254,3.389,3.389,0,0,1,2.57422-1.10254,2.956,2.956,0,0,1,2.38037.98877,4.10526,4.10526,0,0,1,.84228,2.74659Zm-1.64062-1.20117a2.18885,2.18885,0,0,0-.43213-1.42432,1.44409,1.44409,0,0,0-1.17187-.50927,1.64957,1.64957,0,0,0-1.2417.53466,2.44236,2.44236,0,0,0-.626,1.39893Z" fill="#fff"/>
	<path d="M232.40283,217.82764a3.716,3.716,0,0,1-2.772-1.05078,3.79548,3.79548,0,0,1-1.03662-2.78711,3.70287,3.70287,0,0,1,3.9917-4.01368,3.59805,3.59805,0,0,1,2.73926,1.03272,3.98932,3.98932,0,0,1,.98144,2.86377,3.93146,3.93146,0,0,1-1.05859,2.875A3.8009,3.8009,0,0,1,232.40283,217.82764Zm.08057-6.49659a1.93975,1.93975,0,0,0-1.57471.69581,2.91341,2.91341,0,0,0-.57861,1.91894,2.74249,2.74249,0,0,0,.58594,1.85645,1.96663,1.96663,0,0,0,1.56738.67773,1.86835,1.86835,0,0,0,1.542-.6665,2.95316,2.95316,0,0,0,.53809-1.897,2.99787,2.99787,0,0,0-.53809-1.91162A1.85946,1.85946,0,0,0,232.4834,211.33105Z" fill="#fff"/>
	<circle cx="65" cy="201" r="36" fill="#fff"/>
	<path d="M49.24707,211.28271V193.07764H54.0332q4.67213,0,7.0586,2.24072,2.387,2.24047,2.38672,6.6206a10.56752,10.56752,0,0,1-.66651,3.834,8.17387,8.17387,0,0,1-1.92334,2.95166,8.59653,8.59653,0,0,1-3.04687,1.8916,11.50712,11.50712,0,0,1-4.03711.6665Zm1.68848-16.65625v15.12012h2.793a10.31507,10.31507,0,0,0,3.35791-.50781,6.73165,6.73165,0,0,0,2.50732-1.4917,6.40223,6.40223,0,0,0,1.56787-2.43115,9.48394,9.48394,0,0,0,.53955-3.32617q0-7.363-7.78222-7.36329Z" fill="#490c66"/>
	<path d="M67.12207,211.28271V193.07764H71.9082q4.67212,0,7.0586,2.24072,2.387,2.24047,2.38672,6.6206a10.56752,10.56752,0,0,1-.66651,3.834,8.17387,8.17387,0,0,1-1.92334,2.95166,8.59653,8.59653,0,0,1-3.04687,1.8916,11.50712,11.50712,0,0,1-4.03711.6665Zm1.68848-16.65625v15.12012h2.793a10.31507,10.31507,0,0,0,3.35791-.50781,6.73165,6.73165,0,0,0,2.50732-1.4917,6.40223,6.40223,0,0,0,1.56787-2.43115,9.48394,9.48394,0,0,0,.53955-3.32617q0-7.363-7.78222-7.36329Z" fill="#490c66"/>
	<path d="M123.08984,243.87891v-8.40235h2.209a4.59726,4.59726,0,0,1,3.25781,1.03418,3.99313,3.99313,0,0,1,1.10156,3.05567,4.87754,4.87754,0,0,1-.30761,1.76953,3.77126,3.77126,0,0,1-.8877,1.3623,3.96868,3.96868,0,0,1-1.40625.87305,5.31094,5.31094,0,0,1-1.86328.30762Zm.7793-7.6875v6.97851h1.28906a4.75882,4.75882,0,0,0,1.54981-.23437,3.10627,3.10627,0,0,0,1.15722-.68848,2.95461,2.95461,0,0,0,.72364-1.12207,4.37871,4.37871,0,0,0,.249-1.53516q0-3.39843-3.5918-3.39843Z" fill="#033333"/>
	<path d="M131.58594,236.36133a.52233.52233,0,0,1-.375-.15235.51382.51382,0,0,1-.15821-.38671.49755.49755,0,0,1,.15821-.37793.52773.52773,0,0,1,.375-.14942.58559.58559,0,0,1,.21094.03809.50891.50891,0,0,1,.17285.1084.53664.53664,0,0,1,.11718.167.51077.51077,0,0,1,.044.21387.54841.54841,0,0,1-.041.21093.50206.50206,0,0,1-.11718.17285.56667.56667,0,0,1-.17286.11426A.54207.54207,0,0,1,131.58594,236.36133Zm-.36914,7.51758v-6h.75v6Z" fill="#033333"/>
	<path d="M136.877,238.64648a1.12062,1.12062,0,0,0-.67968-.19336,1.16425,1.16425,0,0,0-.52735.11426,1.33513,1.33513,0,0,0-.40137.30762,1.85171,1.85171,0,0,0-.293.44824,3.12471,3.12471,0,0,0-.19336.53028,3.88167,3.88167,0,0,0-.10547.55664,4.69157,4.69157,0,0,0-.03223.5332v2.93555h-.74414v-6h.74414v1.2832h.02344a2.66891,2.66891,0,0,1,.2666-.58887,1.83152,1.83152,0,0,1,.37207-.43945,1.55626,1.55626,0,0,1,.46-.27246,1.476,1.476,0,0,1,.52442-.09375,2.03159,2.03159,0,0,1,.32519.02344,1.23811,1.23811,0,0,1,.26074.07031Z" fill="#033333"/>
	<path d="M138.166,241.01367a3.36064,3.36064,0,0,0,.14648.99024,2.09845,2.09845,0,0,0,.4043.74414,1.73775,1.73775,0,0,0,.6416.46582,2.15425,2.15425,0,0,0,.85254.16113,3.05079,3.05079,0,0,0,1.916-.709v.73828a3.4945,3.4945,0,0,1-2.08593.61523,2.75412,2.75412,0,0,1-1.09571-.21094,2.272,2.272,0,0,1-.83789-.6123,2.79867,2.79867,0,0,1-.5332-.98731,4.37955,4.37955,0,0,1-.1875-1.33593,3.68523,3.68523,0,0,1,.20508-1.24805,3.07811,3.07811,0,0,1,.56836-.99316,2.62043,2.62043,0,0,1,.86132-.65625,2.50081,2.50081,0,0,1,1.08985-.23731,2.4571,2.4571,0,0,1,1.02539.20215,2.01255,2.01255,0,0,1,.74707.57715,2.61326,2.61326,0,0,1,.46.91406,4.28145,4.28145,0,0,1,.1582,1.207v.375Zm3.5625-.65625a2.28537,2.28537,0,0,0-.44532-1.45312,1.4607,1.4607,0,0,0-1.18945-.51563,1.82587,1.82587,0,0,0-.70605.13477,1.68042,1.68042,0,0,0-.57129.38965,2.10217,2.10217,0,0,0-.40723.62109,3.11792,3.11792,0,0,0-.22559.82324Z" fill="#033333"/>
	<path d="M147.96289,243.60938a3.14443,3.14443,0,0,1-1.61719.416,2.77043,2.77043,0,0,1-1.16015-.22266,2.54226,2.54226,0,0,1-.87891-.63574,2.8235,2.8235,0,0,1-.55664-.96094,3.62872,3.62872,0,0,1-.19336-1.2041,3.86451,3.86451,0,0,1,.20508-1.26855,3.03249,3.03249,0,0,1,.59766-1.03711,2.82836,2.82836,0,0,1,.96093-.7002,3.11779,3.11779,0,0,1,1.30078-.25781,3.17487,3.17487,0,0,1,1.35938.28711v.79688a2.52317,2.52317,0,0,0-1.418-.4336,2.145,2.145,0,0,0-.94922.20215,2.0425,2.0425,0,0,0-.70019.55078,2.46653,2.46653,0,0,0-.4336.81445,3.21324,3.21324,0,0,0-.14941.98731,3.32223,3.32223,0,0,0,.126.91992,2.28154,2.28154,0,0,0,.38672.77637,1.88751,1.88751,0,0,0,.65918.53613,2.0726,2.0726,0,0,0,.9375.19922,2.49556,2.49556,0,0,0,1.52344-.50391Z" fill="#033333"/>
	<path d="M151.98242,243.80859a1.86,1.86,0,0,1-.84375.19336q-1.45312,0-1.45312-1.67578v-3.791h-1.05469v-.65625h1.05469v-1.51172l.75-.2461v1.75782h1.54687v.65625h-1.54687V242.209a1.5043,1.5043,0,0,0,.19922.87891.78344.78344,0,0,0,.67382.26953,1.21218,1.21218,0,0,0,.67383-.21094Z" fill="#033333"/>
	<path d="M155.58008,244.01953a3.06908,3.06908,0,0,1-1.19824-.22265,2.56166,2.56166,0,0,1-.90528-.62989,2.77533,2.77533,0,0,1-.57422-.97558,3.78805,3.78805,0,0,1-.19922-1.25977,3.98117,3.98117,0,0,1,.21094-1.3418,2.82471,2.82471,0,0,1,.60059-1.00488,2.5656,2.5656,0,0,1,.94043-.62988,3.33441,3.33441,0,0,1,1.23047-.2168,3.06317,3.06317,0,0,1,1.17187.21387,2.39159,2.39159,0,0,1,.88477.61816,2.7543,2.7543,0,0,1,.55664.98438,4.16049,4.16049,0,0,1,.19336,1.31836,3.8526,3.8526,0,0,1-.20215,1.28027,2.89064,2.89064,0,0,1-.57715.99316,2.555,2.555,0,0,1-.91406.64454A3.09569,3.09569,0,0,1,155.58008,244.01953Zm.05859-5.63086a2.24876,2.24876,0,0,0-.89062.16992,1.86849,1.86849,0,0,0-.68262.49512,2.23971,2.23971,0,0,0-.43652.79688,3.47313,3.47313,0,0,0-.15235,1.06933,3.15724,3.15724,0,0,0,.15235,1.01367,2.28742,2.28742,0,0,0,.43066.77344,1.85965,1.85965,0,0,0,.67676.49512,2.41907,2.41907,0,0,0,1.78125.00586,1.76,1.76,0,0,0,.65625-.48633,2.142,2.142,0,0,0,.40722-.78223,3.70093,3.70093,0,0,0,.1377-1.05468,2.81139,2.81139,0,0,0-.53906-1.8545A1.90033,1.90033,0,0,0,155.63867,238.38867Z" fill="#033333"/>
	<path d="M162.98047,238.64648a1.12065,1.12065,0,0,0-.67969-.19336,1.16418,1.16418,0,0,0-.52734.11426,1.33488,1.33488,0,0,0-.40137.30762,1.852,1.852,0,0,0-.293.44824,3.12557,3.12557,0,0,0-.19336.53028,3.883,3.883,0,0,0-.10547.55664,4.69378,4.69378,0,0,0-.03222.5332v2.93555h-.74414v-6h.74414v1.2832h.02343a2.66892,2.66892,0,0,1,.26661-.58887,1.8313,1.8313,0,0,1,.37207-.43945,1.556,1.556,0,0,1,.46-.27246,1.476,1.476,0,0,1,.52441-.09375,2.03181,2.03181,0,0,1,.3252.02344,1.23827,1.23827,0,0,1,.26074.07031Z" fill="#033333"/>
	<path d="M162.99805,245.37891h-.56836l.77929-2.83008h.76758Z" fill="#033333"/>
	<path d="M171.58789,236.19141v7.6875h-.7793v-7.6875h-2.41992v-.71485h5.625v.71485Z" fill="#033333"/>
	<path d="M177.207,238.64648a1.12063,1.12063,0,0,0-.67969-.19336,1.16418,1.16418,0,0,0-.52734.11426,1.33513,1.33513,0,0,0-.40137.30762,1.852,1.852,0,0,0-.293.44824,3.12643,3.12643,0,0,0-.19336.53028,3.883,3.883,0,0,0-.10546.55664,4.69157,4.69157,0,0,0-.03223.5332v2.93555h-.74414v-6h.74414v1.2832h.02344a2.66891,2.66891,0,0,1,.2666-.58887,1.8313,1.8313,0,0,1,.37207-.43945,1.556,1.556,0,0,1,.46-.27246,1.476,1.476,0,0,1,.52441-.09375,2.03163,2.03163,0,0,1,.3252.02344,1.23811,1.23811,0,0,1,.26074.07031Z" fill="#033333"/>
	<path d="M181.75391,243.87891V242.8125h-.02344a2.20252,2.20252,0,0,1-.79981.89062,2.11821,2.11821,0,0,1-1.1455.31641,2.33929,2.33929,0,0,1-.78223-.12305,1.679,1.679,0,0,1-.5918-.34863,1.53416,1.53416,0,0,1-.375-.542,1.79558,1.79558,0,0,1-.13183-.69727,1.71451,1.71451,0,0,1,.5039-1.29785,2.70817,2.70817,0,0,1,1.52344-.62988l1.82227-.26367q0-1.72852-1.3418-1.72852a2.93341,2.93341,0,0,0-1.94531.76758v-.82031a2.51887,2.51887,0,0,1,.4248-.24317,3.90586,3.90586,0,0,1,.501-.1875,4.11961,4.11961,0,0,1,.542-.123,3.47307,3.47307,0,0,1,.542-.04395,1.94694,1.94694,0,0,1,1.51465.5625,2.41334,2.41334,0,0,1,.5127,1.67578v3.90235ZM180.207,240.9668a4.696,4.696,0,0,0-.69141.14648,1.42174,1.42174,0,0,0-.4746.23731.88538.88538,0,0,0-.2754.36914,1.465,1.465,0,0,0-.08789.542,1.15182,1.15182,0,0,0,.085.44531.999.999,0,0,0,.24609.35449,1.1184,1.1184,0,0,0,.39258.23145,1.56371,1.56371,0,0,0,.52441.082,1.72965,1.72965,0,0,0,1.30957-.57422,1.9569,1.9569,0,0,0,.38086-.64453,2.34528,2.34528,0,0,0,.1377-.81445V240.75Z" fill="#033333"/>
	<path d="M186.44727,243.87891h-.71485l-2.29687-6h.82617l1.6582,4.57031a3.47642,3.47642,0,0,1,.19336.73242h.02344a3.64379,3.64379,0,0,1,.18164-.709l1.7168-4.59375h.80273Z" fill="#033333"/>
	<path d="M190.18555,241.01367a3.36064,3.36064,0,0,0,.14648.99024,2.09845,2.09845,0,0,0,.4043.74414,1.73775,1.73775,0,0,0,.6416.46582,2.15425,2.15425,0,0,0,.85254.16113,3.05079,3.05079,0,0,0,1.916-.709v.73828a3.49448,3.49448,0,0,1-2.08593.61523,2.75412,2.75412,0,0,1-1.09571-.21094,2.272,2.272,0,0,1-.83789-.6123,2.79867,2.79867,0,0,1-.5332-.98731,4.37955,4.37955,0,0,1-.1875-1.33593,3.68523,3.68523,0,0,1,.20508-1.24805,3.07811,3.07811,0,0,1,.56836-.99316,2.62047,2.62047,0,0,1,.86133-.65625,2.50074,2.50074,0,0,1,1.08984-.23731,2.45707,2.45707,0,0,1,1.02539.20215,2.01255,2.01255,0,0,1,.74707.57715,2.61326,2.61326,0,0,1,.46.91406,4.28145,4.28145,0,0,1,.1582,1.207v.375Zm3.5625-.65625a2.28537,2.28537,0,0,0-.44532-1.45312,1.4607,1.4607,0,0,0-1.18945-.51563,1.8259,1.8259,0,0,0-.70605.13477,1.68042,1.68042,0,0,0-.57129.38965,2.10237,2.10237,0,0,0-.40723.62109,3.11792,3.11792,0,0,0-.22559.82324Z" fill="#033333"/>
	<path d="M195.99219,243.87891v-8.88282h.75v8.88282Z" fill="#033333"/>
	<path d="M199.04492,236.36133a.52233.52233,0,0,1-.375-.15235.51381.51381,0,0,1-.1582-.38671.49754.49754,0,0,1,.1582-.37793.52773.52773,0,0,1,.375-.14942.58559.58559,0,0,1,.21094.03809.50882.50882,0,0,1,.17285.1084.53666.53666,0,0,1,.11719.167.51077.51077,0,0,1,.04394.21387.54859.54859,0,0,1-.041.21093.50222.50222,0,0,1-.11719.17285.56674.56674,0,0,1-.17285.11426A.54209.54209,0,0,1,199.04492,236.36133Zm-.36914,7.51758v-6h.75v6Z" fill="#033333"/>
	<path d="M205.4082,243.87891v-3.457q0-2.03321-1.47656-2.03321a1.702,1.702,0,0,0-.72656.15528,1.74063,1.74063,0,0,0-.57715.43066,2.01977,2.01977,0,0,0-.38086.65332,2.3699,2.3699,0,0,0-.13769.81738v3.4336h-.75v-6h.75v1.043h.02343a2.16755,2.16755,0,0,1,2.00977-1.1836,1.81476,1.81476,0,0,1,1.5.63867,2.8779,2.8779,0,0,1,.51562,1.84571v3.65625Z" fill="#033333"/>
	<path d="M212.91992,243.416a3.50393,3.50393,0,0,1-.75879,2.47558,3.07489,3.07489,0,0,1-2.34082.80567,4.11126,4.11126,0,0,1-1.86328-.43946v-.76172a3.84146,3.84146,0,0,0,1.86328.54493q2.34961,0,2.34961-2.48438v-.7207h-.02344a2.2811,2.2811,0,0,1-2.10937,1.18359,2.46864,2.46864,0,0,1-1.0166-.20508,2.1922,2.1922,0,0,1-.78809-.59179,2.76844,2.76844,0,0,1-.50976-.94043,4.00382,4.00382,0,0,1-.18164-1.251,4.41118,4.41118,0,0,1,.19336-1.34473,3.091,3.091,0,0,1,.55078-1.04,2.45713,2.45713,0,0,1,.86425-.67089,2.65568,2.65568,0,0,1,1.13965-.23731,1.9817,1.9817,0,0,1,1.85742,1.03125h.02344v-.89062h.75Zm-.75-3.18164a1.87677,1.87677,0,0,0-.13476-.709,1.83532,1.83532,0,0,0-.375-.58594,1.80754,1.80754,0,0,0-.57129-.40136,1.75291,1.75291,0,0,0-.72949-.14942,1.92962,1.92962,0,0,0-.84668.18164,1.83065,1.83065,0,0,0-.64454.51563,2.38613,2.38613,0,0,0-.41015.81152,3.73088,3.73088,0,0,0-.14356,1.0752,3.43289,3.43289,0,0,0,.13477.99609,2.254,2.254,0,0,0,.38086.75586,1.70307,1.70307,0,0,0,.59472.48047,1.74845,1.74845,0,0,0,.77637.16992,1.97289,1.97289,0,0,0,.8086-.16113,1.82878,1.82878,0,0,0,.62109-.44532,2.01268,2.01268,0,0,0,.39844-.668,2.39168,2.39168,0,0,0,.14062-.82911Z" fill="#033333"/>
	<path d="M123.08984,258.27881v-8.40235h4.09571v.71485h-3.31641v3.082h3.07031v.70312h-3.07031v3.19336h3.50391v.709Z" fill="#033333"/>
	<path d="M131.11719,255.32568l1.96875,2.95313h-.90235l-1.21875-1.98633q-.07031-.11133-.14355-.22852t-.14941-.252h-.02344q-.02929.05859-.09082.15528t-.14942.24316l-1.3125,2.06836h-.88476l2.02734-2.93555-1.96289-3.06445h.87305l1.248,2.10351q.09375.15821.16407.28418t.11718.208h.02344q.07617-.11133.14063-.22558t.13476-.23145l1.32422-2.13867h.84375Z" fill="#033333"/>
	<path d="M138.33594,258.27881v-3.52735a2.45574,2.45574,0,0,0-.36328-1.48535,1.3298,1.3298,0,0,0-1.13086-.47754,1.683,1.683,0,0,0-1.26563.56836,2.07643,2.07643,0,0,0-.39258.6709,2.55974,2.55974,0,0,0-.14648.89356v3.35742h-.75V249.396h.75v3.91992h.02344a2.22277,2.22277,0,0,1,2.01562-1.17774,1.83271,1.83271,0,0,1,1.50586.61524,2.81277,2.81277,0,0,1,.50391,1.8164v3.709Z" fill="#033333"/>
	<path d="M141.25977,250.76123a.52233.52233,0,0,1-.375-.15234.51385.51385,0,0,1-.15821-.38672.49755.49755,0,0,1,.15821-.37793.5277.5277,0,0,1,.375-.14942.58553.58553,0,0,1,.21093.03809.50872.50872,0,0,1,.17285.1084.5365.5365,0,0,1,.11719.167.51077.51077,0,0,1,.04395.21387.54846.54846,0,0,1-.041.21094.50213.50213,0,0,1-.11719.17285.56659.56659,0,0,1-.17285.11425A.54207.54207,0,0,1,141.25977,250.76123Zm-.36915,7.51758v-6h.75v6Z" fill="#033333"/>
	<path d="M144.32422,257.312v.9668h-.75V249.396h.75v4.03125h.02344a2.384,2.384,0,0,1,.89355-.958,2.605,2.605,0,0,1,2.291-.12305,2.10159,2.10159,0,0,1,.76757.59473,2.73218,2.73218,0,0,1,.48047.93164,4.1293,4.1293,0,0,1,.167,1.21289,4.55336,4.55336,0,0,1-.19043,1.35644,3.17148,3.17148,0,0,1-.542,1.05176,2.44907,2.44907,0,0,1-.85254.68262,2.536,2.536,0,0,1-1.12207.24316,2.03248,2.03248,0,0,1-1.89257-1.10742Zm0-1.5293a2.14031,2.14031,0,0,0,.13769.77051,1.998,1.998,0,0,0,.38379.63282,1.78467,1.78467,0,0,0,.59473.43066,1.843,1.843,0,0,0,.77051.1582,1.72723,1.72723,0,0,0,.81445-.19043,1.778,1.778,0,0,0,.61816-.542,2.62523,2.62523,0,0,0,.39258-.84961,4.17628,4.17628,0,0,0,.1377-1.11328,3.27365,3.27365,0,0,0-.12891-.95215,2.15721,2.15721,0,0,0-.36621-.72363,1.58658,1.58658,0,0,0-.57422-.457,1.74982,1.74982,0,0,0-.75293-.15821,1.9926,1.9926,0,0,0-.84375.17286,1.90271,1.90271,0,0,0-.63867.47168,2.09,2.09,0,0,0-.4043.70019,2.55974,2.55974,0,0,0-.14062.85254Z" fill="#033333"/>
	<path d="M150.82812,250.76123a.52236.52236,0,0,1-.375-.15234.51388.51388,0,0,1-.1582-.38672.49757.49757,0,0,1,.1582-.37793.52773.52773,0,0,1,.375-.14942.58555.58555,0,0,1,.21094.03809.50872.50872,0,0,1,.17285.1084.53666.53666,0,0,1,.11719.167.51077.51077,0,0,1,.04395.21387.54846.54846,0,0,1-.041.21094.50227.50227,0,0,1-.11719.17285.56659.56659,0,0,1-.17285.11425A.54209.54209,0,0,1,150.82812,250.76123Zm-.36914,7.51758v-6h.75v6Z" fill="#033333"/>
	<path d="M155.7207,258.2085a1.86011,1.86011,0,0,1-.84375.19336q-1.45312,0-1.45312-1.67579v-3.791h-1.05469v-.65625h1.05469v-1.51172l.75-.24609v1.75781h1.54687v.65625h-1.54687v3.67383a1.50424,1.50424,0,0,0,.19922.8789.78345.78345,0,0,0,.67383.26953,1.21224,1.21224,0,0,0,.67382-.21093Z" fill="#033333"/>
	<path d="M157.32617,250.76123a.52236.52236,0,0,1-.375-.15234.51384.51384,0,0,1-.1582-.38672.49754.49754,0,0,1,.1582-.37793.52773.52773,0,0,1,.375-.14942.58559.58559,0,0,1,.21094.03809.50882.50882,0,0,1,.17285.1084.53666.53666,0,0,1,.11719.167.51077.51077,0,0,1,.04394.21387.54864.54864,0,0,1-.041.21094.50241.50241,0,0,1-.11719.17285.56671.56671,0,0,1-.17285.11425A.54209.54209,0,0,1,157.32617,250.76123Zm-.36914,7.51758v-6h.75v6Z" fill="#033333"/>
	<path d="M162.0957,258.41943a3.06912,3.06912,0,0,1-1.19824-.22265,2.56171,2.56171,0,0,1-.90527-.62989,2.77518,2.77518,0,0,1-.57422-.97558,3.78805,3.78805,0,0,1-.19922-1.25977,3.98082,3.98082,0,0,1,.21094-1.34179,2.82465,2.82465,0,0,1,.60058-1.00489,2.56576,2.56576,0,0,1,.94043-.62988,3.33445,3.33445,0,0,1,1.23047-.2168,3.06322,3.06322,0,0,1,1.17188.21387,2.39164,2.39164,0,0,1,.88476.61816,2.75424,2.75424,0,0,1,.55664.98438,4.16021,4.16021,0,0,1,.19336,1.31836,3.85231,3.85231,0,0,1-.20215,1.28027,2.8906,2.8906,0,0,1-.57714.99317,2.555,2.555,0,0,1-.91407.64453A3.09562,3.09562,0,0,1,162.0957,258.41943Zm.0586-5.63086a2.24863,2.24863,0,0,0-.89063.16993,1.86863,1.86863,0,0,0-.68262.49511,2.23979,2.23979,0,0,0-.43652.79688,3.47349,3.47349,0,0,0-.15234,1.06933,3.15763,3.15763,0,0,0,.15234,1.01368,2.28749,2.28749,0,0,0,.43067.77343,1.8595,1.8595,0,0,0,.67675.49512,2.41907,2.41907,0,0,0,1.78125.00586,1.75983,1.75983,0,0,0,.65625-.48633,2.14222,2.14222,0,0,0,.40723-.78222,3.701,3.701,0,0,0,.1377-1.05469,2.81129,2.81129,0,0,0-.53907-1.85449A1.90027,1.90027,0,0,0,162.1543,252.78857Z" fill="#033333"/>
	<path d="M170.56836,258.27881v-3.457q0-2.03321-1.47656-2.03321a1.702,1.702,0,0,0-.72657.15528,1.74069,1.74069,0,0,0-.57714.43066,2.0197,2.0197,0,0,0-.38086.65332,2.37,2.37,0,0,0-.1377.81738v3.4336h-.75v-6h.75v1.043h.02344a2.16753,2.16753,0,0,1,2.00976-1.1836,1.81474,1.81474,0,0,1,1.5.63868,2.87787,2.87787,0,0,1,.51563,1.8457v3.65625Z" fill="#033333"/>
	<path d="M172.7832,257.20068a2.397,2.397,0,0,0,.36914.24024,3.19559,3.19559,0,0,0,.41016.18164,2.58208,2.58208,0,0,0,.4248.11426,2.32526,2.32526,0,0,0,.40723.03808q1.33594,0,1.33594-1.002a.79519.79519,0,0,0-.09375-.39551,1.03185,1.03185,0,0,0-.26953-.30469,2.25471,2.25471,0,0,0-.42188-.25488q-.24609-.11718-.55664-.24609a5.5834,5.5834,0,0,1-.71484-.34571,2.16338,2.16338,0,0,1-.49219-.38378,1.38486,1.38486,0,0,1-.28711-.457,1.59662,1.59662,0,0,1-.09375-.56543,1.43305,1.43305,0,0,1,.17285-.709,1.64661,1.64661,0,0,1,.46582-.52734,2.16484,2.16484,0,0,1,.67676-.33106,2.80888,2.80888,0,0,1,.80567-.11426,2.979,2.979,0,0,1,1.35937.293v.791a2.63563,2.63563,0,0,0-1.45313-.4336,1.75879,1.75879,0,0,0-.51269.07032,1.195,1.195,0,0,0-.39551.19922.91591.91591,0,0,0-.25488.30761.86023.86023,0,0,0-.09082.39551.99842.99842,0,0,0,.07031.38965.8501.8501,0,0,0,.21973.30176,1.844,1.844,0,0,0,.38672.25781q.2373.123.57714.26367a7.29237,7.29237,0,0,1,.75.34863,2.32749,2.32749,0,0,1,.52149.375,1.31793,1.31793,0,0,1,.30469.45118,1.5466,1.5466,0,0,1,.09961.57714,1.52055,1.52055,0,0,1-.167.72071,1.55291,1.55291,0,0,1-.46289.5332,2.13431,2.13431,0,0,1-.69433.32813,3.21383,3.21383,0,0,1-.86719.11132,2.87456,2.87456,0,0,1-1.5293-.38086Z" fill="#033333"/>
	<path d="M187.51367,258.27881l-1.01953-1.01367a3.77679,3.77679,0,0,1-2.77734,1.16015,3.38831,3.38831,0,0,1-1.09864-.167,2.43,2.43,0,0,1-.832-.46875,2.02511,2.02511,0,0,1-.52441-.71777,2.24485,2.24485,0,0,1-.18164-.90821,2.79533,2.79533,0,0,1,1.92773-2.47265,3.36833,3.36833,0,0,1-.92578-1.99219,1.90387,1.90387,0,0,1,.1582-.7793,1.85209,1.85209,0,0,1,.44532-.62109,2.10053,2.10053,0,0,1,.67675-.41309,2.37914,2.37914,0,0,1,.8584-.14941,2.26744,2.26744,0,0,1,.78516.12891,1.75265,1.75265,0,0,1,.59766.35742,1.57841,1.57841,0,0,1,.38086.54492,1.74627,1.74627,0,0,1,.13476.69141,2.33744,2.33744,0,0,1-.10547.72363,1.852,1.852,0,0,1-.33984.60937,2.84729,2.84729,0,0,1-.60645.53614,6.82635,6.82635,0,0,1-.90527.5039q.52734.55665,1.12207,1.14844t1.26855,1.248a3.73273,3.73273,0,0,0,.29-.51856,4.50447,4.50447,0,0,0,.22559-.59472,4.9243,4.9243,0,0,0,.14648-.63575,5.2115,5.2115,0,0,0,.06446-.6416H188a4.88039,4.88039,0,0,1-.99023,2.88281q.3164.31056.709.69434t.88477.87012Zm-1.4707-1.48242q-.69727-.68554-1.333-1.333t-1.23926-1.28613a3.55356,3.55356,0,0,0-1.23047.86425,1.64214,1.64214,0,0,0-.38671,1.08106,1.61744,1.61744,0,0,0,.13769.67383,1.49189,1.49189,0,0,0,.38379.51855,1.77761,1.77761,0,0,0,.59473.334,2.35316,2.35316,0,0,0,.7705.12011A3.16024,3.16024,0,0,0,186.043,256.79639Zm-2.332-3.42774a5.67265,5.67265,0,0,0,.75879-.41308,2.64827,2.64827,0,0,0,.51269-.43067,1.51118,1.51118,0,0,0,.293-.46875,1.45231,1.45231,0,0,0,.09375-.52148,1.19461,1.19461,0,0,0-.09082-.47168,1.12944,1.12944,0,0,0-.249-.36914,1.11688,1.11688,0,0,0-.36914-.24024,1.21193,1.21193,0,0,0-.457-.085,1.51842,1.51842,0,0,0-.5625.09961,1.22052,1.22052,0,0,0-.42773.27832,1.24933,1.24933,0,0,0-.27246.42481,1.44539,1.44539,0,0,0-.09668.5332A2.75692,2.75692,0,0,0,183.71094,253.36865Z" fill="#033333"/>
	<path d="M193.88867,255.00928v3.26953h-.77929v-8.40235h2.168a3.82494,3.82494,0,0,1,1.17188.16407,2.38581,2.38581,0,0,1,.86133.47461,1.99342,1.99342,0,0,1,.5332.76172,2.74385,2.74385,0,0,1,.18164,1.03125,2.7975,2.7975,0,0,1-.20508,1.08105,2.43973,2.43973,0,0,1-.58886.85547,2.70973,2.70973,0,0,1-.93457.5625,3.60563,3.60563,0,0,1-1.248.20215Zm0-4.418v3.70312H195.002a2.39317,2.39317,0,0,0,1.64649-.5039,1.81254,1.81254,0,0,0,.5625-1.42383q0-1.77538-2.07422-1.77539Z" fill="#033333"/>
	<path d="M202.584,253.04639a1.12055,1.12055,0,0,0-.67968-.19336,1.16412,1.16412,0,0,0-.52735.11426,1.33509,1.33509,0,0,0-.40136.30761,1.85173,1.85173,0,0,0-.293.44824,3.12588,3.12588,0,0,0-.19336.53028,3.88167,3.88167,0,0,0-.10547.55664,4.69157,4.69157,0,0,0-.03223.5332v2.93555h-.74414v-6h.74414v1.2832h.02344a2.66891,2.66891,0,0,1,.2666-.58887,1.83172,1.83172,0,0,1,.37207-.43945,1.55626,1.55626,0,0,1,.46-.27246,1.476,1.476,0,0,1,.52442-.09375,2.03159,2.03159,0,0,1,.32519.02344,1.23794,1.23794,0,0,1,.26074.07031Z" fill="#033333"/>
	<path d="M205.9707,258.41943a3.06912,3.06912,0,0,1-1.19824-.22265,2.56171,2.56171,0,0,1-.90527-.62989,2.77518,2.77518,0,0,1-.57422-.97558,3.78805,3.78805,0,0,1-.19922-1.25977,3.98082,3.98082,0,0,1,.21094-1.34179,2.82465,2.82465,0,0,1,.60058-1.00489,2.56576,2.56576,0,0,1,.94043-.62988,3.33445,3.33445,0,0,1,1.23047-.2168,3.06322,3.06322,0,0,1,1.17188.21387,2.39164,2.39164,0,0,1,.88476.61816,2.75424,2.75424,0,0,1,.55664.98438,4.16021,4.16021,0,0,1,.19336,1.31836,3.85231,3.85231,0,0,1-.20215,1.28027,2.8906,2.8906,0,0,1-.57714.99317,2.555,2.555,0,0,1-.91407.64453A3.09562,3.09562,0,0,1,205.9707,258.41943Zm.0586-5.63086a2.24863,2.24863,0,0,0-.89063.16993,1.86863,1.86863,0,0,0-.68262.49511,2.23979,2.23979,0,0,0-.43652.79688,3.47349,3.47349,0,0,0-.15234,1.06933,3.15763,3.15763,0,0,0,.15234,1.01368,2.28749,2.28749,0,0,0,.43067.77343,1.8595,1.8595,0,0,0,.67675.49512,2.41907,2.41907,0,0,0,1.78125.00586,1.75983,1.75983,0,0,0,.65625-.48633,2.14222,2.14222,0,0,0,.40723-.78222,3.701,3.701,0,0,0,.1377-1.05469,2.81129,2.81129,0,0,0-.53907-1.85449A1.90027,1.90027,0,0,0,206.0293,252.78857Z" fill="#033333"/>
	<path d="M211.14453,258.06787a4.01556,4.01556,0,0,1-.52734,2.26172,2.0775,2.0775,0,0,1-2.50781.57422v-.72656a1.71628,1.71628,0,0,0,.86718.26953q1.418,0,1.418-2.25v-5.918h.75Zm-.38086-7.30664a.52236.52236,0,0,1-.375-.15234.51384.51384,0,0,1-.1582-.38672.49754.49754,0,0,1,.1582-.37793.52773.52773,0,0,1,.375-.14942.58559.58559,0,0,1,.21094.03809.50882.50882,0,0,1,.17285.1084.53666.53666,0,0,1,.11719.167.51077.51077,0,0,1,.04394.21387.54864.54864,0,0,1-.041.21094.50241.50241,0,0,1-.11719.17285.56671.56671,0,0,1-.17285.11425A.54209.54209,0,0,1,210.76367,250.76123Z" fill="#033333"/>
	<path d="M213.43555,255.41357a3.36064,3.36064,0,0,0,.14648.99024,2.09845,2.09845,0,0,0,.4043.74414,1.73775,1.73775,0,0,0,.6416.46582,2.15425,2.15425,0,0,0,.85254.16113,3.05079,3.05079,0,0,0,1.916-.709v.73828a3.49441,3.49441,0,0,1-2.08593.61523,2.75429,2.75429,0,0,1-1.09571-.21093,2.27213,2.27213,0,0,1-.83789-.61231,2.79871,2.79871,0,0,1-.5332-.9873,4.37967,4.37967,0,0,1-.1875-1.33594,3.68523,3.68523,0,0,1,.20508-1.24805,3.07822,3.07822,0,0,1,.56836-.99316,2.62047,2.62047,0,0,1,.86133-.65625,2.50088,2.50088,0,0,1,1.08984-.23731,2.45722,2.45722,0,0,1,1.02539.20215,2.01255,2.01255,0,0,1,.74707.57715,2.61326,2.61326,0,0,1,.46.91406,4.28145,4.28145,0,0,1,.1582,1.207v.375Zm3.5625-.65625a2.28537,2.28537,0,0,0-.44532-1.45312,1.4607,1.4607,0,0,0-1.18945-.51563,1.82609,1.82609,0,0,0-.70605.13477,1.68056,1.68056,0,0,0-.57129.38965,2.10237,2.10237,0,0,0-.40723.62109,3.118,3.118,0,0,0-.22559.82324Z" fill="#033333"/>
	<path d="M223.23242,258.00928a3.14443,3.14443,0,0,1-1.61719.416,2.77058,2.77058,0,0,1-1.16015-.22265,2.54241,2.54241,0,0,1-.87891-.63575,2.82355,2.82355,0,0,1-.55664-.96093,3.62876,3.62876,0,0,1-.19336-1.2041,3.86461,3.86461,0,0,1,.20508-1.26856,3.03258,3.03258,0,0,1,.59766-1.03711,2.8282,2.8282,0,0,1,.96093-.70019,3.11763,3.11763,0,0,1,1.30078-.25782,3.175,3.175,0,0,1,1.35938.28711v.79688a2.52325,2.52325,0,0,0-1.418-.4336,2.14515,2.14515,0,0,0-.94922.20215,2.0425,2.0425,0,0,0-.70019.55078,2.46658,2.46658,0,0,0-.4336.81446,3.21318,3.21318,0,0,0-.14941.9873,3.32186,3.32186,0,0,0,.126.91992,2.28134,2.28134,0,0,0,.38671.77637,1.88751,1.88751,0,0,0,.65918.53613,2.07247,2.07247,0,0,0,.9375.19922,2.49561,2.49561,0,0,0,1.52344-.5039Z" fill="#033333"/>
	<path d="M227.252,258.2085a1.86011,1.86011,0,0,1-.84375.19336q-1.45312,0-1.45312-1.67579v-3.791h-1.05469v-.65625h1.05469v-1.51172l.75-.24609v1.75781H227.252v.65625h-1.54687v3.67383a1.50424,1.50424,0,0,0,.19922.8789.78344.78344,0,0,0,.67382.26953,1.21225,1.21225,0,0,0,.67383-.21093Z" fill="#033333"/>
	<path d="M130.52539,272.67871v-5.80078q0-.44532.07031-1.43555h-.02343q-.082.26367-.14942.457a3.21929,3.21929,0,0,1-.126.31641l-2.92969,6.46289h-.334l-2.93554-6.42187a5.48523,5.48523,0,0,1-.26368-.82618h-.02343q.02343.26954.03222.61524t.00879.76758v5.86523h-.76172v-8.40234h.91993l2.85351,6.3164q.0879.19923.17285.40723t.15528.44238h.03515q.082-.23437.14942-.42773t.167-.416l2.87695-6.32226h.87305v8.40234Z" fill="#033333"/>
	<path d="M136.80664,272.67871V271.6123h-.02344a2.20253,2.20253,0,0,1-.7998.89063,2.11824,2.11824,0,0,1-1.14551.31641,2.33962,2.33962,0,0,1-.78223-.12305,1.679,1.679,0,0,1-.59179-.34863,1.5342,1.5342,0,0,1-.375-.542,1.79554,1.79554,0,0,1-.13184-.69726,1.71446,1.71446,0,0,1,.50391-1.29785,2.7081,2.7081,0,0,1,1.52344-.62989l1.82226-.26367q0-1.72851-1.3418-1.72851a2.93347,2.93347,0,0,0-1.94531.76757v-.82031a2.51856,2.51856,0,0,1,.42481-.24316,3.90273,3.90273,0,0,1,.501-.1875,4.12,4.12,0,0,1,.542-.12305,3.47316,3.47316,0,0,1,.542-.04394,1.94694,1.94694,0,0,1,1.51465.5625,2.41337,2.41337,0,0,1,.51269,1.67578v3.90234Zm-1.54687-2.91211a4.69436,4.69436,0,0,0-.69141.14649,1.4215,1.4215,0,0,0-.47461.2373.88533.88533,0,0,0-.27539.36914,1.465,1.465,0,0,0-.08789.542,1.15205,1.15205,0,0,0,.085.44532.99912.99912,0,0,0,.24609.35449,1.11832,1.11832,0,0,0,.39258.23144,1.56377,1.56377,0,0,0,.52442.082,1.72969,1.72969,0,0,0,1.30957-.57421,1.957,1.957,0,0,0,.38086-.64454,2.34551,2.34551,0,0,0,.13769-.81445v-.5918Z" fill="#033333"/>
	<path d="M143.41016,272.67871v-3.457q0-2.0332-1.47657-2.0332a1.702,1.702,0,0,0-.72656.15527,1.74087,1.74087,0,0,0-.57715.43066,2.01988,2.01988,0,0,0-.38086.65332,2.37023,2.37023,0,0,0-.13769.81739v3.43359h-.75v-6h.75v1.043h.02344a2.16754,2.16754,0,0,1,2.00976-1.18359,1.81476,1.81476,0,0,1,1.5.63867,2.87787,2.87787,0,0,1,.51563,1.8457v3.65625Z" fill="#033333"/>
	<path d="M149.42188,272.67871V271.6123h-.02344a2.20262,2.20262,0,0,1-.79981.89063,2.11822,2.11822,0,0,1-1.14551.31641,2.33952,2.33952,0,0,1-.78222-.12305,1.679,1.679,0,0,1-.5918-.34863,1.5342,1.5342,0,0,1-.375-.542,1.79553,1.79553,0,0,1-.13183-.69726,1.71446,1.71446,0,0,1,.5039-1.29785,2.7081,2.7081,0,0,1,1.52344-.62989l1.82227-.26367q0-1.72851-1.3418-1.72851a2.93345,2.93345,0,0,0-1.94531.76757v-.82031a2.51885,2.51885,0,0,1,.4248-.24316,3.90288,3.90288,0,0,1,.501-.1875,4.11963,4.11963,0,0,1,.542-.12305,3.473,3.473,0,0,1,.542-.04394,1.94694,1.94694,0,0,1,1.51465.5625,2.41332,2.41332,0,0,1,.5127,1.67578v3.90234ZM147.875,269.7666a4.69465,4.69465,0,0,0-.69141.14649,1.4216,1.4216,0,0,0-.47461.2373.88542.88542,0,0,0-.27539.36914,1.465,1.465,0,0,0-.08789.542,1.15205,1.15205,0,0,0,.085.44532.99914.99914,0,0,0,.2461.35449,1.11823,1.11823,0,0,0,.39258.23144,1.56371,1.56371,0,0,0,.52441.082,1.72969,1.72969,0,0,0,1.30957-.57421,1.957,1.957,0,0,0,.38086-.64454,2.34528,2.34528,0,0,0,.1377-.81445v-.5918Z" fill="#033333"/>
	<path d="M156.93359,272.21582a3.504,3.504,0,0,1-.75879,2.47559,3.07487,3.07487,0,0,1-2.34082.80566,4.11125,4.11125,0,0,1-1.86328-.43945v-.76172a3.84155,3.84155,0,0,0,1.86328.54492q2.34961,0,2.34961-2.48437v-.72071h-.02343a2.28114,2.28114,0,0,1-2.10938,1.1836,2.46864,2.46864,0,0,1-1.0166-.20508,2.19222,2.19222,0,0,1-.78809-.5918,2.76834,2.76834,0,0,1-.50976-.94043,4.00377,4.00377,0,0,1-.18164-1.251,4.41112,4.41112,0,0,1,.19336-1.34472,3.09082,3.09082,0,0,1,.55078-1.04,2.4572,2.4572,0,0,1,.86426-.6709,2.65578,2.65578,0,0,1,1.13964-.2373,1.98172,1.98172,0,0,1,1.85743,1.03125h.02343v-.89063h.75Zm-.75-3.18164a1.87668,1.87668,0,0,0-.13476-.709,1.83532,1.83532,0,0,0-.375-.58594,1.80756,1.80756,0,0,0-.57129-.40137,1.75287,1.75287,0,0,0-.72949-.14941,1.92948,1.92948,0,0,0-.84668.18164,1.8305,1.8305,0,0,0-.64453.51562,2.3861,2.3861,0,0,0-.41016.81153,3.7311,3.7311,0,0,0-.14356,1.07519,3.43284,3.43284,0,0,0,.13477.99609,2.254,2.254,0,0,0,.38086.75586,1.70291,1.70291,0,0,0,.59473.48047,1.74838,1.74838,0,0,0,.77636.16992,1.97289,1.97289,0,0,0,.8086-.16113,1.82879,1.82879,0,0,0,.62109-.44531,2.01256,2.01256,0,0,0,.39844-.668,2.39166,2.39166,0,0,0,.14062-.8291Z" fill="#033333"/>
	<path d="M159.22461,269.81348a3.361,3.361,0,0,0,.14648.99023,2.09837,2.09837,0,0,0,.4043.74414,1.73764,1.73764,0,0,0,.6416.46582,2.15429,2.15429,0,0,0,.85254.16113,3.05078,3.05078,0,0,0,1.916-.709v.73828a3.49444,3.49444,0,0,1-2.08594.61524,2.75425,2.75425,0,0,1-1.0957-.21094,2.272,2.272,0,0,1-.83789-.61231,2.79864,2.79864,0,0,1-.53321-.9873,4.37967,4.37967,0,0,1-.1875-1.33594,3.68528,3.68528,0,0,1,.20508-1.248,3.07822,3.07822,0,0,1,.56836-.99316,2.62057,2.62057,0,0,1,.86133-.65625,2.50087,2.50087,0,0,1,1.08984-.2373,2.45722,2.45722,0,0,1,1.02539.20214,2.01247,2.01247,0,0,1,.74707.57715,2.61305,2.61305,0,0,1,.46.91407,4.28134,4.28134,0,0,1,.15821,1.207v.375Zm3.5625-.65625a2.28546,2.28546,0,0,0-.44531-1.45313,1.46071,1.46071,0,0,0-1.18946-.51562,1.82612,1.82612,0,0,0-.70605.13476,1.6807,1.6807,0,0,0-.57129.38965,2.10256,2.10256,0,0,0-.40723.62109,3.118,3.118,0,0,0-.22558.82325Z" fill="#033333"/>
	<path d="M172.57227,272.67871v-3.52734a4.30781,4.30781,0,0,0-.082-.91114,1.58789,1.58789,0,0,0-.25488-.60644.98838.98838,0,0,0-.43945-.33984,1.72633,1.72633,0,0,0-.63574-.10547,1.30744,1.30744,0,0,0-.6211.15527,1.645,1.645,0,0,0-.51269.42773,2.083,2.083,0,0,0-.34571.64161,2.45168,2.45168,0,0,0-.126.79687v3.46875h-.75V269.0752q0-1.88673-1.44727-1.88672a1.32542,1.32542,0,0,0-.62109.14941,1.54971,1.54971,0,0,0-.501.41895,2.009,2.009,0,0,0-.334.64746,2.7462,2.7462,0,0,0-.12012.835v3.43945h-.75v-6h.75v.97266h.02344a2.01019,2.01019,0,0,1,1.8457-1.11328,1.82561,1.82561,0,0,1,.59766.09668,1.73354,1.73354,0,0,1,.5039.26953,1.75932,1.75932,0,0,1,.38379.41308,1.855,1.855,0,0,1,.24317.52735,2.41113,2.41113,0,0,1,.82324-.97266,2.03534,2.03534,0,0,1,1.14551-.334q1.9746,0,1.97461,2.4375v3.70312Z" fill="#033333"/>
	<path d="M175.48438,269.81348a3.36062,3.36062,0,0,0,.14648.99023,2.09837,2.09837,0,0,0,.4043.74414,1.73756,1.73756,0,0,0,.6416.46582,2.15425,2.15425,0,0,0,.85254.16113,3.05073,3.05073,0,0,0,1.916-.709v.73828a3.49443,3.49443,0,0,1-2.08593.61524,2.7543,2.7543,0,0,1-1.09571-.21094,2.27213,2.27213,0,0,1-.83789-.61231,2.79862,2.79862,0,0,1-.5332-.9873,4.37967,4.37967,0,0,1-.1875-1.33594,3.68528,3.68528,0,0,1,.20508-1.248,3.07822,3.07822,0,0,1,.56836-.99316,2.62043,2.62043,0,0,1,.86132-.65625,2.501,2.501,0,0,1,1.08985-.2373,2.45726,2.45726,0,0,1,1.02539.20214,2.01255,2.01255,0,0,1,.74707.57715,2.61322,2.61322,0,0,1,.46.91407,4.28135,4.28135,0,0,1,.1582,1.207v.375Zm3.5625-.65625a2.2854,2.2854,0,0,0-.44532-1.45313,1.46069,1.46069,0,0,0-1.18945-.51562,1.82613,1.82613,0,0,0-.70606.13476,1.68076,1.68076,0,0,0-.57128.38965,2.10217,2.10217,0,0,0-.40723.62109,3.118,3.118,0,0,0-.22559.82325Z" fill="#033333"/>
	<path d="M185.33984,272.67871v-3.457q0-2.0332-1.47656-2.0332a1.702,1.702,0,0,0-.72656.15527,1.74076,1.74076,0,0,0-.57715.43066,2.01988,2.01988,0,0,0-.38086.65332,2.37,2.37,0,0,0-.13769.81739v3.43359h-.75v-6h.75v1.043h.02343a2.16757,2.16757,0,0,1,2.00977-1.18359,1.81476,1.81476,0,0,1,1.5.63867,2.87787,2.87787,0,0,1,.51562,1.8457v3.65625Z" fill="#033333"/>
	<path d="M190.47266,272.6084a1.86017,1.86017,0,0,1-.84375.19336q-1.45312,0-1.45313-1.67578v-3.791h-1.05469v-.65625h1.05469V265.167l.75-.24609v1.75781h1.54688v.65625h-1.54688v3.67383a1.50438,1.50438,0,0,0,.19922.87891.78348.78348,0,0,0,.67383.26953,1.21231,1.21231,0,0,0,.67383-.21094Z" fill="#033333"/>
</svg>