<svg xmlns="http://www.w3.org/2000/svg" viewBox="0 0 830 357.13989">

	<rect width="150" height="100" fill="#c6f2e9"/>
	<path d="M8.641,127.71A3.28049,3.28049,0,0,1,7.144,128.77a5.92507,5.92507,0,0,1-2.174.36987,4.26843,4.26843,0,0,1-2.215-.56982A3.82365,3.82365,0,0,1,1.265,126.95a5.73478,5.73478,0,0,1-.54-2.47v-.78a5.25443,5.25443,0,0,1,1.08-3.52,3.73305,3.73305,0,0,1,3.014-1.27,3.95768,3.95768,0,0,1,2.639.82007,3.55309,3.55309,0,0,1,1.176,2.37012H6.938a1.90728,1.90728,0,0,0-2.084-1.8,2.05113,2.05113,0,0,0-1.771.83984,4.24646,4.24646,0,0,0-.622,2.4502v.77a4.1076,4.1076,0,0,0,.677,2.51,2.262,2.262,0,0,0,1.893.88989,2.45809,2.45809,0,0,0,1.887-.61011V125.21H4.867v-1.32007H8.641Zm5.612-4.58984a3.75711,3.75711,0,0,0-.677-.05,1.52486,1.52486,0,0,0-1.538.86987V129H10.377v-7.3999h1.586l.041.82983a1.87314,1.87314,0,0,1,1.668-.96,1.64328,1.64328,0,0,1,.588.09009Zm4.17,6.01977a3.45814,3.45814,0,0,1-2.564-.99,3.64357,3.64357,0,0,1-.977-2.65991v-.2a4.45757,4.45757,0,0,1,.424-1.98A3.32931,3.32931,0,0,1,16.509,121.95a3.19635,3.19635,0,0,1,1.722-.48,2.89621,2.89621,0,0,1,2.331.96,4.05667,4.05667,0,0,1,.828,2.73v.67017H16.557a2.24574,2.24574,0,0,0,.608,1.45,1.86839,1.86839,0,0,0,1.354.53,2.26047,2.26047,0,0,0,1.859-.92017l.895.8501a2.97027,2.97027,0,0,1-1.189,1.03A3.61282,3.61282,0,0,1,18.423,129.13989Zm-.198-6.33984a1.40836,1.40836,0,0,0-1.108.48,2.48457,2.48457,0,0,0-.533,1.33008h3.165V124.49a1.99675,1.99675,0,0,0-.444-1.26A1.3728,1.3728,0,0,0,18.225,122.80005Zm7.717,6.33984a3.45582,3.45582,0,0,1-2.563-.99,3.64008,3.64008,0,0,1-.978-2.65991v-.2a4.47127,4.47127,0,0,1,.424-1.98A3.32931,3.32931,0,0,1,24.028,121.95a3.19976,3.19976,0,0,1,1.723-.48,2.899,2.899,0,0,1,2.331.96,4.06175,4.06175,0,0,1,.827,2.73v.67017H24.076a2.24139,2.24139,0,0,0,.609,1.45,1.86768,1.86768,0,0,0,1.353.53,2.25915,2.25915,0,0,0,1.859-.92017l.896.8501a2.97694,2.97694,0,0,1-1.189,1.03A3.617,3.617,0,0,1,25.942,129.13989Zm-.198-6.33984a1.40487,1.40487,0,0,0-1.107.48,2.48457,2.48457,0,0,0-.533,1.33008h3.165V124.49a1.99694,1.99694,0,0,0-.445-1.26A1.3728,1.3728,0,0,0,25.744,122.80005Zm6.002-1.2.048.85986a2.66146,2.66146,0,0,1,2.153-.99q2.3115,0,2.352,2.64014V129H34.638v-4.79a1.49446,1.49446,0,0,0-.308-1.04,1.25193,1.25193,0,0,0-.991-.33984,1.59444,1.59444,0,0,0-1.497.90991V129H30.181v-7.3999ZM45.876,129H44.222v-7.99l-2.441.83008v-1.40015L45.664,119.01h.212Zm3.801,2.24-.896-.53a4.73194,4.73194,0,0,0,.54-1.08984,3.09866,3.09866,0,0,0,.158-.93018v-1.30005h1.497l-.007,1.2002a3.30267,3.30267,0,0,1-.369,1.45A3.4885,3.4885,0,0,1,49.677,131.24Zm11.689-4.8a1.21474,1.21474,0,0,0-.465-1.02,5.667,5.667,0,0,0-1.661-.71,7.81709,7.81709,0,0,1-1.914-.81006,2.55125,2.55125,0,0,1-1.36-2.23,2.42882,2.42882,0,0,1,.977-1.98,3.98542,3.98542,0,0,1,2.55-.78,4.38171,4.38171,0,0,1,1.853.38013,3.03837,3.03837,0,0,1,1.278,1.09985,2.77378,2.77378,0,0,1,.465,1.56006H61.366a1.52614,1.52614,0,0,0-.492-1.21,1.978,1.978,0,0,0-1.395-.45,2.13244,2.13244,0,0,0-1.319.35986,1.21476,1.21476,0,0,0-.465,1.02,1.10167,1.10167,0,0,0,.506.91016,5.93082,5.93082,0,0,0,1.668.71,7.41442,7.41442,0,0,1,1.866.79,2.935,2.935,0,0,1,1.033,1.01,2.617,2.617,0,0,1,.328,1.32983,2.39814,2.39814,0,0,1-.957,1.99,4.18522,4.18522,0,0,1-2.584.73,5.00439,5.00439,0,0,1-1.99-.3999,3.398,3.398,0,0,1-1.408-1.11011,2.75562,2.75562,0,0,1-.499-1.63989h1.73a1.60013,1.60013,0,0,0,.56,1.31006,2.45508,2.45508,0,0,0,1.607.47,2.14222,2.14222,0,0,0,1.353-.36011A1.18924,1.18924,0,0,0,61.366,126.43994ZM68.934,128.28a2.59027,2.59027,0,0,1-2.079.85986,2.3081,2.3081,0,0,1-1.825-.71,3.00331,3.00331,0,0,1-.615-2.03v-4.7998h1.661v4.77978c0,.93018.39,1.40015,1.169,1.40015a1.65062,1.65062,0,0,0,1.634-.86011V121.6001H70.54V129H68.975Zm9.789-2.90015a4.4246,4.4246,0,0,1-.773,2.74024,2.49346,2.49346,0,0,1-2.112,1.01977A2.42893,2.42893,0,0,1,73.814,128.2l-.082.8H72.229V118.5H73.89v3.81006a2.41232,2.41232,0,0,1,1.934-.84009,2.529,2.529,0,0,1,2.126,1,4.52421,4.52421,0,0,1,.773,2.81006Zm-1.661-.1499a3.1303,3.1303,0,0,0-.424-1.8,1.41387,1.41387,0,0,0-1.231-.59985,1.53649,1.53649,0,0,0-1.517.93994v3.05a1.55785,1.55785,0,0,0,1.531.96A1.39424,1.39424,0,0,0,76.624,127.2a3.03578,3.03578,0,0,0,.438-1.75Zm5.14-5.41992v1.79h1.306v1.23H82.202V126.96a.94572.94572,0,0,0,.164.62012.8131.8131,0,0,0,.602.17993,2.33415,2.33415,0,0,0,.581-.07007v1.29a4.29719,4.29719,0,0,1-1.094.15991c-1.276,0-1.914-.71-1.914-2.11987v-4.18994H79.324v-1.23h1.217v-1.79ZM86.55,129H84.889V118.5H86.55Zm5.072.13989a3.45421,3.45421,0,0,1-2.563-.99,3.64005,3.64005,0,0,1-.978-2.65991v-.2a4.45757,4.45757,0,0,1,.424-1.98A3.32936,3.32936,0,0,1,89.708,121.95a3.19739,3.19739,0,0,1,1.723-.48,2.89891,2.89891,0,0,1,2.331.96,4.06169,4.06169,0,0,1,.827,2.73v.67017H89.756a2.24574,2.24574,0,0,0,.608,1.45,1.86839,1.86839,0,0,0,1.354.53,2.25915,2.25915,0,0,0,1.859-.92017l.896.8501a2.98,2.98,0,0,1-1.19,1.03A3.61284,3.61284,0,0,1,91.622,129.13989Zm-.198-6.33984a1.4084,1.4084,0,0,0-1.108.48,2.49234,2.49234,0,0,0-.533,1.33008h3.165V124.49a1.99094,1.99094,0,0,0-.444-1.26A1.3728,1.3728,0,0,0,91.424,122.80005ZM107.16,127.71a3.28052,3.28052,0,0,1-1.497,1.06006,5.925,5.925,0,0,1-2.174.36987,4.271,4.271,0,0,1-2.215-.56982,3.82982,3.82982,0,0,1-1.49-1.62012,5.764,5.764,0,0,1-.54-2.47v-.78a5.25438,5.25438,0,0,1,1.08-3.52,3.73374,3.73374,0,0,1,3.015-1.27,3.95948,3.95948,0,0,1,2.639.82007,3.55655,3.55655,0,0,1,1.175,2.37012h-1.695a1.90759,1.90759,0,0,0-2.085-1.8,2.04811,2.04811,0,0,0-1.77.83984,4.23838,4.23838,0,0,0-.623,2.4502v.77a4.10753,4.10753,0,0,0,.677,2.51,2.26386,2.26386,0,0,0,1.894.88989,2.4581,2.4581,0,0,0,1.887-.61011V125.21h-2.051v-1.32007h3.773Zm5.612-4.58984a3.746,3.746,0,0,0-.676-.05,1.52487,1.52487,0,0,0-1.538.86987V129h-1.662v-7.3999h1.586l.041.82983a1.87316,1.87316,0,0,1,1.668-.96,1.64348,1.64348,0,0,1,.588.09009Zm4.17,6.01977a3.45582,3.45582,0,0,1-2.563-.99,3.64012,3.64012,0,0,1-.978-2.65991v-.2a4.47127,4.47127,0,0,1,.424-1.98,3.32931,3.32931,0,0,1,1.203-1.36011,3.19977,3.19977,0,0,1,1.723-.48,2.89894,2.89894,0,0,1,2.331.96,4.06175,4.06175,0,0,1,.827,2.73v.67017h-4.833a2.24139,2.24139,0,0,0,.609,1.45,1.86767,1.86767,0,0,0,1.353.53,2.25914,2.25914,0,0,0,1.859-.92017l.896.8501a2.97694,2.97694,0,0,1-1.189,1.03A3.617,3.617,0,0,1,116.942,129.13989Zm-.198-6.33984a1.40491,1.40491,0,0,0-1.107.48,2.48457,2.48457,0,0,0-.533,1.33008h3.165V124.49a1.99705,1.99705,0,0,0-.445-1.26A1.37285,1.37285,0,0,0,116.744,122.80005Zm7.718,6.33984a3.45817,3.45817,0,0,1-2.564-.99,3.64356,3.64356,0,0,1-.977-2.65991v-.2a4.45756,4.45756,0,0,1,.424-1.98,3.32931,3.32931,0,0,1,1.203-1.36011,3.19729,3.19729,0,0,1,1.723-.48,2.899,2.899,0,0,1,2.331.96,4.0618,4.0618,0,0,1,.827,2.73v.67017h-4.833a2.24585,2.24585,0,0,0,.608,1.45,1.86843,1.86843,0,0,0,1.354.53,2.2605,2.2605,0,0,0,1.859-.92017l.895.8501a2.9702,2.9702,0,0,1-1.189,1.03A3.61281,3.61281,0,0,1,124.462,129.13989Zm-.198-6.33984a1.40833,1.40833,0,0,0-1.108.48,2.49242,2.49242,0,0,0-.533,1.33008h3.165V124.49a1.99088,1.99088,0,0,0-.444-1.26A1.37276,1.37276,0,0,0,124.264,122.80005Zm6.002-1.2.047.85986a2.66207,2.66207,0,0,1,2.154-.99q2.31,0,2.351,2.64014V129h-1.661v-4.79a1.49457,1.49457,0,0,0-.307-1.04,1.25434,1.25434,0,0,0-.992-.33984,1.59446,1.59446,0,0,0-1.497.90991V129H128.7v-7.3999ZM8.914,145H7.191v-4.41992H2.741V145H1.012v-9.95H2.741v4.13989h4.45v-4.13989H8.914Zm7.868-4.43994H12.694v3.06006h4.779V145H10.965v-9.95h6.46v1.38989H12.694v2.75h4.088Zm5.524-1.92017,2.091-3.58984h1.997L23.386,139.98,26.462,145H24.445l-2.139-3.6499L20.159,145h-2.01l3.083-5.02-3.014-4.92993h1.996ZM28.581,143.25a.93673.93673,0,0,1,.718.27.96154.96154,0,0,1,0,1.3,1.10205,1.10205,0,0,1-1.422,0,.863.863,0,0,1-.26-.65015.88773.88773,0,0,1,.253-.6499A.928.928,0,0,1,28.581,143.25Zm0-5.8a.96983.96983,0,0,1,.718.26.91592.91592,0,0,1,.253.66016.89214.89214,0,0,1-.253.6499,1.136,1.136,0,0,1-1.422,0,.878.878,0,0,1-.26-.6499.91178.91178,0,0,1,.253-.66016A.96072.96072,0,0,1,28.581,137.45Zm10.268,4.75H37.317l-.519,2.8H35.649l.52-2.8H34.59v-1.07983h1.784l.397-2.14014H35.109v-1.09009h1.867l.533-2.83984H38.65l-.533,2.83984h1.538l.533-2.83984H41.33l-.533,2.83984h1.422V138.98H40.592l-.397,2.14014h1.511V142.2H39.99l-.519,2.8H38.329Zm-1.327-1.07983h1.532L39.45,138.98H37.919Zm8.846,2.68994A1.506,1.506,0,0,0,47.4,143.45a1.23423,1.23423,0,0,0,.438-.8999h1.565a2.446,2.446,0,0,1-.43,1.29,2.807,2.807,0,0,1-1.094.95,3.29046,3.29046,0,0,1-1.49.34985,3.15555,3.15555,0,0,1-2.461-1.01,3.972,3.972,0,0,1-.909-2.76977v-.17017a3.88835,3.88835,0,0,1,.902-2.7,3.11734,3.11734,0,0,1,2.461-1.02,2.99417,2.99417,0,0,1,2.146.77,2.73292,2.73292,0,0,1,.875,2.02H47.838a1.50312,1.50312,0,0,0-.438-1.05,1.39671,1.39671,0,0,0-1.032-.40991,1.46519,1.46519,0,0,0-1.244.58984,2.97065,2.97065,0,0,0-.444,1.77v.26a3.04535,3.04535,0,0,0,.43,1.8A1.47955,1.47955,0,0,0,46.368,143.81006ZM55.72,135v1.37012h-.205a3.31436,3.31436,0,0,0-2.229.76977,3.20962,3.20962,0,0,0-.991,2.11011,2.69746,2.69746,0,0,1,2.044-.84009,2.538,2.538,0,0,1,2.078.93018,3.65448,3.65448,0,0,1,.766,2.3999,3.42992,3.42992,0,0,1-.896,2.46,3.09161,3.09161,0,0,1-2.338.93994,3.02947,3.02947,0,0,1-2.42-1.09985,4.36618,4.36618,0,0,1-.923-2.89014v-.56982a6.10828,6.10828,0,0,1,1.272-4.1001A4.57621,4.57621,0,0,1,55.549,135Zm-1.784,4.75a1.72982,1.72982,0,0,0-1.005.31006,1.78452,1.78452,0,0,0-.663.81982v.5a3.02479,3.02479,0,0,0,.464,1.77,1.42744,1.42744,0,0,0,1.204.65015,1.40315,1.40315,0,0,0,1.168-.56006,2.28693,2.28693,0,0,0,.431-1.45,2.34981,2.34981,0,0,0-.437-1.47A1.39245,1.39245,0,0,0,53.936,139.75ZM59.199,145v-6.16992H58.071v-1.23h1.128v-.67017a2.52885,2.52885,0,0,1,.684-1.8999,2.60553,2.60553,0,0,1,1.914-.66992,3.93264,3.93264,0,0,1,.93.11987l-.041,1.3a2.99838,2.99838,0,0,0-.636-.06006,1.07,1.07,0,0,0-1.19,1.23v.65015h1.504v1.23H60.86V145Zm10.965,0H63.472v-1.13989L66.787,140.24a8.26867,8.26867,0,0,0,1.019-1.33008,2.16455,2.16455,0,0,0,.307-1.07983,1.63506,1.63506,0,0,0-.403-1.15015,1.3829,1.3829,0,0,0-1.073-.43994,1.59638,1.59638,0,0,0-1.251.5,1.9051,1.9051,0,0,0-.445,1.34009H63.28a3.25655,3.25655,0,0,1,.41-1.63013,2.87659,2.87659,0,0,1,1.183-1.13989,3.76839,3.76839,0,0,1,1.777-.40015,3.33179,3.33179,0,0,1,2.284.73,2.50547,2.50547,0,0,1,.84,2.01,3.43754,3.43754,0,0,1-.423,1.57007,8.8064,8.8064,0,0,1-1.374,1.8501l-2.434,2.59985h4.621Zm4.628.13989a3.45425,3.45425,0,0,1-2.563-.99,3.64007,3.64007,0,0,1-.978-2.65991v-.2a4.45756,4.45756,0,0,1,.424-1.98A3.3294,3.3294,0,0,1,72.878,137.95a3.19728,3.19728,0,0,1,1.723-.48,2.899,2.899,0,0,1,2.331.96,4.0618,4.0618,0,0,1,.827,2.73v.67017H72.926a2.2458,2.2458,0,0,0,.608,1.45,1.86839,1.86839,0,0,0,1.354.53,2.25912,2.25912,0,0,0,1.859-.92017l.896.8501a2.98,2.98,0,0,1-1.19,1.03A3.61281,3.61281,0,0,1,74.792,145.13989Zm-.198-6.33984a1.40839,1.40839,0,0,0-1.108.48,2.49249,2.49249,0,0,0-.533,1.33008h3.165V140.49a1.99094,1.99094,0,0,0-.444-1.26A1.37281,1.37281,0,0,0,74.594,138.80005Zm9.064,2.04a2.71641,2.71641,0,0,1-4.04-.04,3.61428,3.61428,0,0,1-.779-2.42017,3.95562,3.95562,0,0,1,.396-1.77978,3.0213,3.0213,0,0,1,1.128-1.25,3.25786,3.25786,0,0,1,1.696-.44019A2.86692,2.86692,0,0,1,84.444,136.03a4.7296,4.7296,0,0,1,.882,3v.47a6.15561,6.15561,0,0,1-1.217,4.11011,4.57612,4.57612,0,0,1-3.63,1.42993h-.198v-1.37012h.24a3.42457,3.42457,0,0,0,2.255-.71A2.96049,2.96049,0,0,0,83.658,140.84009Zm-1.599-.42017a1.69,1.69,0,0,0,.936-.29,1.86022,1.86022,0,0,0,.677-.78979v-.65015a3.139,3.139,0,0,0-.451-1.77,1.38277,1.38277,0,0,0-2.318-.07983,2.86288,2.86288,0,0,0,.007,3.01A1.368,1.368,0,0,0,82.059,140.41992Z" fill="#fff"/>
	<rect x="170" width="150" height="100" fill="#a6e6db"/>
	<path d="M178.641,127.71a3.28032,3.28032,0,0,1-1.497,1.06006,5.92509,5.92509,0,0,1-2.174.36987,4.2684,4.2684,0,0,1-2.215-.56982,3.82357,3.82357,0,0,1-1.49-1.62012,5.73464,5.73464,0,0,1-.54-2.47v-.78a5.25443,5.25443,0,0,1,1.08-3.52,3.73307,3.73307,0,0,1,3.014-1.27,3.95772,3.95772,0,0,1,2.639.82007,3.55313,3.55313,0,0,1,1.176,2.37012h-1.696a1.90726,1.90726,0,0,0-2.084-1.8,2.05112,2.05112,0,0,0-1.771.83984,4.24654,4.24654,0,0,0-.622,2.4502v.77a4.10767,4.10767,0,0,0,.677,2.51,2.262,2.262,0,0,0,1.893.88989,2.458,2.458,0,0,0,1.887-.61011V125.21h-2.051v-1.32007h3.774Zm5.612-4.58984a3.757,3.757,0,0,0-.677-.05,1.52488,1.52488,0,0,0-1.538.86987V129h-1.661v-7.3999h1.586l.041.82983a1.87314,1.87314,0,0,1,1.668-.96,1.64334,1.64334,0,0,1,.588.09009Zm4.17,6.01977a3.45808,3.45808,0,0,1-2.564-.99,3.64359,3.64359,0,0,1-.977-2.65991v-.2a4.4577,4.4577,0,0,1,.424-1.98,3.32917,3.32917,0,0,1,1.203-1.36011,3.19629,3.19629,0,0,1,1.722-.48,2.89625,2.89625,0,0,1,2.331.96,4.05667,4.05667,0,0,1,.828,2.73v.67017h-4.833a2.24559,2.24559,0,0,0,.608,1.45,1.86835,1.86835,0,0,0,1.354.53,2.26045,2.26045,0,0,0,1.859-.92017l.895.8501a2.97053,2.97053,0,0,1-1.189,1.03A3.61289,3.61289,0,0,1,188.423,129.13989Zm-.198-6.33984a1.40837,1.40837,0,0,0-1.108.48,2.48449,2.48449,0,0,0-.533,1.33008h3.165V124.49a1.99658,1.99658,0,0,0-.444-1.26A1.37275,1.37275,0,0,0,188.225,122.80005Zm7.717,6.33984a3.45583,3.45583,0,0,1-2.563-.99,3.64,3.64,0,0,1-.978-2.65991v-.2a4.47113,4.47113,0,0,1,.424-1.98,3.32912,3.32912,0,0,1,1.203-1.36011,3.19968,3.19968,0,0,1,1.723-.48,2.89894,2.89894,0,0,1,2.331.96,4.06175,4.06175,0,0,1,.827,2.73v.67017h-4.833a2.24155,2.24155,0,0,0,.609,1.45,1.86769,1.86769,0,0,0,1.353.53,2.25913,2.25913,0,0,0,1.859-.92017l.896.8501a2.9768,2.9768,0,0,1-1.189,1.03A3.617,3.617,0,0,1,195.942,129.13989Zm-.198-6.33984a1.4049,1.4049,0,0,0-1.107.48,2.48472,2.48472,0,0,0-.533,1.33008h3.165V124.49a1.99706,1.99706,0,0,0-.445-1.26A1.37283,1.37283,0,0,0,195.744,122.80005Zm6.002-1.2.048.85986a2.66142,2.66142,0,0,1,2.153-.99q2.31153,0,2.352,2.64014V129h-1.661v-4.79a1.49441,1.49441,0,0,0-.308-1.04,1.25189,1.25189,0,0,0-.991-.33984,1.59442,1.59442,0,0,0-1.497.90991V129h-1.661v-7.3999ZM218.07,129h-6.692v-1.13989l3.315-3.62012a8.2702,8.2702,0,0,0,1.019-1.33008,2.16624,2.16624,0,0,0,.308-1.07983,1.63555,1.63555,0,0,0-.404-1.15015,1.38288,1.38288,0,0,0-1.073-.43994,1.59642,1.59642,0,0,0-1.251.5,1.90476,1.90476,0,0,0-.444,1.34009h-1.661a3.24631,3.24631,0,0,1,.41-1.63013,2.87428,2.87428,0,0,1,1.182-1.13989,3.77261,3.77261,0,0,1,1.778-.40015,3.33074,3.33074,0,0,1,2.283.73,2.50615,2.50615,0,0,1,.841,2.01,3.43943,3.43943,0,0,1-.424,1.57007,8.806,8.806,0,0,1-1.374,1.8501l-2.434,2.59985h4.621Zm-39.156,16h-1.723v-4.41992h-4.45V145h-1.729v-9.95h1.729v4.13989h4.45v-4.13989h1.723Zm7.868-4.43994h-4.088v3.06006h4.779V145h-6.508v-9.95h6.46v1.38989h-4.731v2.75h4.088Zm5.524-1.92017,2.091-3.58984h1.997L193.386,139.98l3.076,5.02h-2.017l-2.139-3.6499L190.159,145h-2.01l3.083-5.02-3.014-4.92993h1.996Zm6.275,4.61011a.9368.9368,0,0,1,.718.27.96157.96157,0,0,1,0,1.3,1.10205,1.10205,0,0,1-1.422,0,.863.863,0,0,1-.26-.65015.88769.88769,0,0,1,.253-.6499A.928.928,0,0,1,198.581,143.25Zm0-5.8a.9699.9699,0,0,1,.718.26.91591.91591,0,0,1,.253.66016.89213.89213,0,0,1-.253.6499,1.136,1.136,0,0,1-1.422,0,.878.878,0,0,1-.26-.6499.91174.91174,0,0,1,.253-.66016A.96072.96072,0,0,1,198.581,137.45Zm10.268,4.75h-1.532l-.519,2.8h-1.149l.52-2.8H204.59v-1.07983h1.784l.397-2.14014h-1.662v-1.09009h1.867l.533-2.83984h1.141l-.533,2.83984h1.538l.533-2.83984h1.142l-.533,2.83984h1.422V138.98h-1.627l-.397,2.14014h1.511V142.2H209.99l-.519,2.8h-1.142Zm-1.327-1.07983h1.532l.396-2.14014h-1.531ZM217.749,145a2.50889,2.50889,0,0,1-.191-.68994,2.59455,2.59455,0,0,1-1.942.82983,2.62836,2.62836,0,0,1-1.818-.63989,2.028,2.028,0,0,1-.704-1.57007,2.08841,2.08841,0,0,1,.875-1.80981,4.20769,4.20769,0,0,1,2.515-.64014h1.019V140a1.16767,1.16767,0,0,0-1.299-1.27,1.46346,1.46346,0,0,0-.93.29.86713.86713,0,0,0-.362.72h-1.661a1.83136,1.83136,0,0,1,.403-1.13989,2.71547,2.71547,0,0,1,1.094-.83008,3.88877,3.88877,0,0,1,1.552-.3,3.12858,3.12858,0,0,1,2.071.65015,2.34293,2.34293,0,0,1,.793,1.83984V143.29a3.72928,3.72928,0,0,0,.28,1.58984V145Zm-1.825-1.2a1.8673,1.8673,0,0,0,.923-.24,1.58958,1.58958,0,0,0,.656-.64014V141.53h-.896a2.39949,2.39949,0,0,0-1.387.32007,1.03937,1.03937,0,0,0-.465.90991.97251.97251,0,0,0,.314.76A1.24012,1.24012,0,0,0,215.924,143.80005Zm10.042-8.8v1.37012h-.205a3.31429,3.31429,0,0,0-2.229.76977,3.20973,3.20973,0,0,0-.991,2.11011,2.699,2.699,0,0,1,2.044-.84009,2.5366,2.5366,0,0,1,2.078.93018,3.64887,3.64887,0,0,1,.766,2.3999,3.42988,3.42988,0,0,1-.896,2.46,3.09154,3.09154,0,0,1-2.338.93994,3.02954,3.02954,0,0,1-2.42-1.09985,4.36583,4.36583,0,0,1-.922-2.89014v-.56982a6.1081,6.1081,0,0,1,1.271-4.1001,4.57633,4.57633,0,0,1,3.671-1.48Zm-1.784,4.75a1.7298,1.7298,0,0,0-1.005.31006,1.78458,1.78458,0,0,0-.663.81982v.5a3.01744,3.01744,0,0,0,.465,1.77,1.42447,1.42447,0,0,0,1.203.65015,1.40632,1.40632,0,0,0,1.169-.56006,2.29271,2.29271,0,0,0,.43-1.45,2.3497,2.3497,0,0,0-.437-1.47A1.39238,1.39238,0,0,0,224.182,139.75Zm7.936,5.38989a3.4543,3.4543,0,0,1-2.563-.99,3.6402,3.6402,0,0,1-.978-2.65991v-.2a4.45729,4.45729,0,0,1,.424-1.98,3.3291,3.3291,0,0,1,1.203-1.36011,3.19723,3.19723,0,0,1,1.723-.48,2.899,2.899,0,0,1,2.331.96,4.0618,4.0618,0,0,1,.827,2.73v.67017h-4.833a2.24573,2.24573,0,0,0,.608,1.45,1.87005,1.87005,0,0,0,1.354.53,2.25914,2.25914,0,0,0,1.859-.92017l.896.8501a2.973,2.973,0,0,1-1.19,1.03A3.61277,3.61277,0,0,1,232.118,145.13989Zm-.198-6.33984a1.40832,1.40832,0,0,0-1.108.48,2.50025,2.50025,0,0,0-.533,1.33008h3.165V140.49a1.991,1.991,0,0,0-.444-1.26A1.37281,1.37281,0,0,0,231.92,138.80005Zm9.522-3.8v1.37012h-.205a3.31351,3.31351,0,0,0-2.228.76977,3.20506,3.20506,0,0,0-.991,2.11011,2.6974,2.6974,0,0,1,2.044-.84009,2.538,2.538,0,0,1,2.078.93018,3.65406,3.65406,0,0,1,.765,2.3999,3.42937,3.42937,0,0,1-.895,2.46,3.09319,3.09319,0,0,1-2.338.93994,3.02812,3.02812,0,0,1-2.42-1.09985,4.36613,4.36613,0,0,1-.923-2.89014v-.56982a6.10823,6.10823,0,0,1,1.272-4.1001,4.57407,4.57407,0,0,1,3.67-1.48Zm-1.784,4.75a1.73422,1.73422,0,0,0-1.005.31006,1.7971,1.7971,0,0,0-.663.81982v.5a3.01736,3.01736,0,0,0,.465,1.77,1.427,1.427,0,0,0,1.203.65015,1.405,1.405,0,0,0,1.169-.56006,2.2929,2.2929,0,0,0,.431-1.45,2.34406,2.34406,0,0,0-.438-1.47A1.39121,1.39121,0,0,0,239.658,139.75Zm4.368,1.5a4.36539,4.36539,0,0,1,.793-2.74,2.52146,2.52146,0,0,1,2.126-1.04,2.40479,2.40479,0,0,1,1.901.82007V134.5h1.661V145h-1.504l-.082-.77a2.43071,2.43071,0,0,1-1.989.90991,2.53341,2.53341,0,0,1-2.106-1.0498A4.56544,4.56544,0,0,1,244.026,141.25Zm1.662.13989a3.09849,3.09849,0,0,0,.43,1.76,1.41837,1.41837,0,0,0,1.237.63013,1.56422,1.56422,0,0,0,1.491-.90991V139.72a1.53573,1.53573,0,0,0-1.477-.88989,1.41086,1.41086,0,0,0-1.244.63989A3.38946,3.38946,0,0,0,245.688,141.38989Zm13.042-.01a4.42457,4.42457,0,0,1-.772,2.74024,2.49471,2.49471,0,0,1-2.112,1.01977,2.42768,2.42768,0,0,1-2.024-.93994l-.082.8h-1.504V134.5h1.661v3.81006a2.41575,2.41575,0,0,1,1.935-.84009,2.53035,2.53035,0,0,1,2.126,1,4.52432,4.52432,0,0,1,.772,2.81006Zm-1.661-.1499a3.13079,3.13079,0,0,0-.423-1.8,1.41386,1.41386,0,0,0-1.231-.59985,1.53872,1.53872,0,0,0-1.518.93994v3.05a1.56007,1.56007,0,0,0,1.532.96,1.39426,1.39426,0,0,0,1.203-.58008,3.03626,3.03626,0,0,0,.437-1.75Z" fill="#fff"/>
	<rect x="340" width="150" height="100" fill="#87dbcd"/>
	<path d="M348.641,127.71a3.28032,3.28032,0,0,1-1.497,1.06006,5.92509,5.92509,0,0,1-2.174.36987,4.2684,4.2684,0,0,1-2.215-.56982,3.82357,3.82357,0,0,1-1.49-1.62012,5.73464,5.73464,0,0,1-.54-2.47v-.78a5.25443,5.25443,0,0,1,1.08-3.52,3.73307,3.73307,0,0,1,3.014-1.27,3.95772,3.95772,0,0,1,2.639.82007,3.55313,3.55313,0,0,1,1.176,2.37012h-1.696a1.90726,1.90726,0,0,0-2.084-1.8,2.05112,2.05112,0,0,0-1.771.83984,4.24654,4.24654,0,0,0-.622,2.4502v.77a4.10767,4.10767,0,0,0,.677,2.51,2.262,2.262,0,0,0,1.893.88989,2.458,2.458,0,0,0,1.887-.61011V125.21h-2.051v-1.32007h3.774Zm5.612-4.58984a3.757,3.757,0,0,0-.677-.05,1.52488,1.52488,0,0,0-1.538.86987V129h-1.661v-7.3999h1.586l.041.82983a1.87314,1.87314,0,0,1,1.668-.96,1.64334,1.64334,0,0,1,.588.09009Zm4.17,6.01977a3.45808,3.45808,0,0,1-2.564-.99,3.64359,3.64359,0,0,1-.977-2.65991v-.2a4.4577,4.4577,0,0,1,.424-1.98,3.32917,3.32917,0,0,1,1.203-1.36011,3.19629,3.19629,0,0,1,1.722-.48,2.89625,2.89625,0,0,1,2.331.96,4.05667,4.05667,0,0,1,.828,2.73v.67017h-4.833a2.24559,2.24559,0,0,0,.608,1.45,1.86835,1.86835,0,0,0,1.354.53,2.26045,2.26045,0,0,0,1.859-.92017l.895.8501a2.97053,2.97053,0,0,1-1.189,1.03A3.61289,3.61289,0,0,1,358.423,129.13989Zm-.198-6.33984a1.40837,1.40837,0,0,0-1.108.48,2.48449,2.48449,0,0,0-.533,1.33008h3.165V124.49a1.99658,1.99658,0,0,0-.444-1.26A1.37275,1.37275,0,0,0,358.225,122.80005Zm7.717,6.33984a3.45583,3.45583,0,0,1-2.563-.99,3.64,3.64,0,0,1-.978-2.65991v-.2a4.47113,4.47113,0,0,1,.424-1.98,3.32912,3.32912,0,0,1,1.203-1.36011,3.19968,3.19968,0,0,1,1.723-.48,2.89894,2.89894,0,0,1,2.331.96,4.06175,4.06175,0,0,1,.827,2.73v.67017h-4.833a2.24155,2.24155,0,0,0,.609,1.45,1.86769,1.86769,0,0,0,1.353.53,2.25913,2.25913,0,0,0,1.859-.92017l.896.8501a2.9768,2.9768,0,0,1-1.189,1.03A3.617,3.617,0,0,1,365.942,129.13989Zm-.198-6.33984a1.4049,1.4049,0,0,0-1.107.48,2.48472,2.48472,0,0,0-.533,1.33008h3.165V124.49a1.99706,1.99706,0,0,0-.445-1.26A1.37283,1.37283,0,0,0,365.744,122.80005Zm6.002-1.2.048.85986a2.66142,2.66142,0,0,1,2.153-.99q2.31153,0,2.352,2.64014V129h-1.661v-4.79a1.49441,1.49441,0,0,0-.308-1.04,1.25189,1.25189,0,0,0-.991-.33984,1.59442,1.59442,0,0,0-1.497.90991V129h-1.661v-7.3999ZM383.299,123.26h1.012a1.77359,1.77359,0,0,0,1.21-.38989,1.41963,1.41963,0,0,0,.451-1.13013,1.5289,1.5289,0,0,0-.376-1.1001,1.49855,1.49855,0,0,0-1.135-.3999,1.57817,1.57817,0,0,0-1.101.38989,1.29014,1.29014,0,0,0-.43,1.01h-1.661a2.549,2.549,0,0,1,.403-1.3999,2.69774,2.69774,0,0,1,1.135-.97,3.64616,3.64616,0,0,1,1.633-.36011,3.405,3.405,0,0,1,2.338.75,2.61761,2.61761,0,0,1,.855,2.08008,2.08513,2.08513,0,0,1-.431,1.26,2.59836,2.59836,0,0,1-1.1.88989,2.40947,2.40947,0,0,1,1.244.89014,2.373,2.373,0,0,1,.43,1.42993,2.65558,2.65558,0,0,1-.922,2.13013,4.00922,4.00922,0,0,1-4.765.03,2.52276,2.52276,0,0,1-.916-2.04h1.661a1.39567,1.39567,0,0,0,.437,1.06982,1.7025,1.7025,0,0,0,1.19.41016,1.74061,1.74061,0,0,0,1.217-.41016,1.53469,1.53469,0,0,0,.444-1.18994,1.55633,1.55633,0,0,0-.465-1.21,1.99942,1.99942,0,0,0-1.381-.41992h-.977ZM348.914,145h-1.723v-4.41992h-4.45V145h-1.729v-9.95h1.729v4.13989h4.45v-4.13989h1.723Zm7.868-4.43994h-4.088v3.06006h4.779V145h-6.508v-9.95h6.46v1.38989h-4.731v2.75h4.088Zm5.524-1.92017,2.091-3.58984h1.997L363.386,139.98l3.076,5.02h-2.017l-2.139-3.6499L360.159,145h-2.01l3.083-5.02-3.014-4.92993h1.996Zm6.275,4.61011a.9368.9368,0,0,1,.718.27.96157.96157,0,0,1,0,1.3,1.10205,1.10205,0,0,1-1.422,0,.863.863,0,0,1-.26-.65015.88769.88769,0,0,1,.253-.6499A.928.928,0,0,1,368.581,143.25Zm0-5.8a.9699.9699,0,0,1,.718.26.91591.91591,0,0,1,.253.66016.89213.89213,0,0,1-.253.6499,1.136,1.136,0,0,1-1.422,0,.878.878,0,0,1-.26-.6499.91174.91174,0,0,1,.253-.66016A.96072.96072,0,0,1,368.581,137.45Zm10.268,4.75h-1.532l-.519,2.8h-1.149l.52-2.8H374.59v-1.07983h1.784l.397-2.14014h-1.662v-1.09009h1.867l.533-2.83984h1.141l-.533,2.83984h1.538l.533-2.83984h1.142l-.533,2.83984h1.422V138.98h-1.627l-.397,2.14014h1.511V142.2H379.99l-.519,2.8h-1.142Zm-1.327-1.07983h1.532l.396-2.14014h-1.531Zm11.97-3.4502a2.3529,2.3529,0,0,1-.376,1.31006,2.59631,2.59631,0,0,1-1.025.89014,2.799,2.799,0,0,1,1.196.99,2.50642,2.50642,0,0,1,.424,1.42993,2.61019,2.61019,0,0,1-.889,2.08008,4.0184,4.0184,0,0,1-4.744-.01,2.59264,2.59264,0,0,1-.889-2.07007,2.52319,2.52319,0,0,1,.424-1.43994,2.7678,2.7678,0,0,1,1.19-.98,2.61284,2.61284,0,0,1-1.019-.89014,2.38837,2.38837,0,0,1-.369-1.31006,2.56145,2.56145,0,0,1,.82-2.01,3.65617,3.65617,0,0,1,4.437,0A2.5615,2.5615,0,0,1,389.492,137.66992Zm-1.442,4.53a1.63858,1.63858,0,0,0-.445-1.18994,1.72541,1.72541,0,0,0-2.324,0,1.65464,1.65464,0,0,0-.43,1.18994,1.4903,1.4903,0,0,0,1.606,1.61011,1.57437,1.57437,0,0,0,1.169-.42017A1.61961,1.61961,0,0,0,388.05,142.2Zm-.212-4.47a1.50576,1.50576,0,0,0-.376-1.06006,1.26615,1.26615,0,0,0-1.012-.42993,1.29513,1.29513,0,0,0-1.005.40991,1.50873,1.50873,0,0,0-.369,1.08008,1.55116,1.55116,0,0,0,.369,1.09009,1.31107,1.31107,0,0,0,1.012.3999,1.2885,1.2885,0,0,0,1.005-.3999A1.53184,1.53184,0,0,0,387.838,137.73Zm9.967-1.76L393.826,145h-1.743l3.972-8.62012h-5.148v-1.32983h6.898Zm1.128,5.28a4.35915,4.35915,0,0,1,.793-2.74,2.51893,2.51893,0,0,1,2.126-1.04,2.40413,2.40413,0,0,1,1.9.82007V134.5h1.661V145h-1.504l-.082-.77a2.43077,2.43077,0,0,1-1.989.90991,2.53335,2.53335,0,0,1-2.106-1.0498A4.56537,4.56537,0,0,1,398.933,141.25Zm1.661.13989a3.09874,3.09874,0,0,0,.43,1.76,1.42016,1.42016,0,0,0,1.238.63013,1.56284,1.56284,0,0,0,1.49-.90991V139.72a1.53481,1.53481,0,0,0-1.477-.88989,1.412,1.412,0,0,0-1.244.63989A3.39741,3.39741,0,0,0,400.594,141.38989Zm13.043-.01a4.42447,4.42447,0,0,1-.773,2.74024,2.49349,2.49349,0,0,1-2.112,1.01977,2.42574,2.42574,0,0,1-2.023-.93994l-.083.8h-1.503V134.5h1.661v3.81006a2.41237,2.41237,0,0,1,1.934-.84009,2.52909,2.52909,0,0,1,2.126,1,4.52408,4.52408,0,0,1,.773,2.81006Zm-1.661-.1499a3.13022,3.13022,0,0,0-.424-1.8,1.41385,1.41385,0,0,0-1.231-.59985,1.53652,1.53652,0,0,0-1.517.93994v3.05a1.55786,1.55786,0,0,0,1.531.96,1.393,1.393,0,0,0,1.203-.58008,3.03577,3.03577,0,0,0,.438-1.75Zm6.097,2.58008a1.50606,1.50606,0,0,0,1.032-.36011,1.2342,1.2342,0,0,0,.438-.8999H421.108a2.445,2.445,0,0,1-.43,1.29,2.80644,2.80644,0,0,1-1.094.95,3.29028,3.29028,0,0,1-1.49.34985,3.15554,3.15554,0,0,1-2.461-1.01,3.97181,3.97181,0,0,1-.909-2.76977v-.17017a3.88843,3.88843,0,0,1,.902-2.7,3.11885,3.11885,0,0,1,2.461-1.02,2.99406,2.99406,0,0,1,2.146.77,2.73277,2.73277,0,0,1,.875,2.02H419.543a1.50306,1.50306,0,0,0-.438-1.05,1.39515,1.39515,0,0,0-1.032-.40991,1.46515,1.46515,0,0,0-1.244.58984,2.97031,2.97031,0,0,0-.444,1.77v.26a3.04551,3.04551,0,0,0,.43,1.8A1.47955,1.47955,0,0,0,418.073,143.81006Zm3.979-2.56006a4.35933,4.35933,0,0,1,.793-2.74,2.519,2.519,0,0,1,2.126-1.04,2.4026,2.4026,0,0,1,1.9.82007V134.5h1.661V145h-1.504l-.082-.77a2.42935,2.42935,0,0,1-1.989.90991,2.53025,2.53025,0,0,1-2.105-1.0498A4.559,4.559,0,0,1,422.052,141.25Zm1.661.13989a3.09074,3.09074,0,0,0,.431,1.76,1.4173,1.4173,0,0,0,1.237.63013,1.56274,1.56274,0,0,0,1.49-.90991V139.72a1.53335,1.53335,0,0,0-1.476-.88989,1.41255,1.41255,0,0,0-1.245.63989A3.3975,3.3975,0,0,0,423.713,141.38989Z" fill="#fff"/>
	<rect x="510" width="150" height="100" fill="#68d0bf"/>
	<path d="M518.641,127.71a3.28041,3.28041,0,0,1-1.497,1.06006,5.925,5.925,0,0,1-2.174.36987,4.26829,4.26829,0,0,1-2.215-.56982,3.82375,3.82375,0,0,1-1.49-1.62012,5.73508,5.73508,0,0,1-.54-2.47v-.78a5.25459,5.25459,0,0,1,1.08-3.52,3.73313,3.73313,0,0,1,3.014-1.27,3.9577,3.9577,0,0,1,2.639.82007,3.553,3.553,0,0,1,1.176,2.37012h-1.696a1.90726,1.90726,0,0,0-2.084-1.8,2.05109,2.05109,0,0,0-1.771.83984,4.24631,4.24631,0,0,0-.622,2.4502v.77a4.10767,4.10767,0,0,0,.677,2.51,2.262,2.262,0,0,0,1.893.88989,2.45821,2.45821,0,0,0,1.887-.61011V125.21h-2.051v-1.32007h3.774Zm5.612-4.58984a3.75684,3.75684,0,0,0-.677-.05,1.52481,1.52481,0,0,0-1.538.86987V129h-1.661v-7.3999h1.586l.041.82983a1.87309,1.87309,0,0,1,1.668-.96,1.64346,1.64346,0,0,1,.588.09009Zm4.17,6.01977a3.45806,3.45806,0,0,1-2.564-.99,3.64357,3.64357,0,0,1-.977-2.65991v-.2a4.45729,4.45729,0,0,1,.424-1.98A3.32946,3.32946,0,0,1,526.509,121.95a3.19657,3.19657,0,0,1,1.722-.48,2.89623,2.89623,0,0,1,2.331.96,4.05667,4.05667,0,0,1,.828,2.73v.67017h-4.833a2.24572,2.24572,0,0,0,.608,1.45,1.8685,1.8685,0,0,0,1.354.53,2.26042,2.26042,0,0,0,1.859-.92017l.895.8501a2.97042,2.97042,0,0,1-1.189,1.03A3.61272,3.61272,0,0,1,528.423,129.13989Zm-.198-6.33984a1.40835,1.40835,0,0,0-1.108.48,2.48474,2.48474,0,0,0-.533,1.33008h3.165V124.49a1.99658,1.99658,0,0,0-.444-1.26A1.37281,1.37281,0,0,0,528.225,122.80005Zm7.717,6.33984a3.45569,3.45569,0,0,1-2.563-.99,3.63993,3.63993,0,0,1-.978-2.65991v-.2a4.47154,4.47154,0,0,1,.424-1.98,3.32912,3.32912,0,0,1,1.203-1.36011,3.19965,3.19965,0,0,1,1.723-.48,2.8989,2.8989,0,0,1,2.331.96,4.06159,4.06159,0,0,1,.827,2.73v.67017h-4.833a2.24125,2.24125,0,0,0,.609,1.45,1.86761,1.86761,0,0,0,1.353.53,2.259,2.259,0,0,0,1.859-.92017l.89606.8501a2.97729,2.97729,0,0,1-1.189,1.03A3.617,3.617,0,0,1,535.942,129.13989Zm-.198-6.33984a1.40486,1.40486,0,0,0-1.107.48,2.48474,2.48474,0,0,0-.533,1.33008h3.165V124.49a1.99683,1.99683,0,0,0-.445-1.26A1.37267,1.37267,0,0,0,535.744,122.80005Zm6.002-1.2.048.85986a2.66148,2.66148,0,0,1,2.153-.99q2.31144,0,2.352,2.64014V129h-1.661v-4.79a1.4947,1.4947,0,0,0-.308-1.04,1.252,1.252,0,0,0-.991-.33984,1.59447,1.59447,0,0,0-1.497.90991V129h-1.661v-7.3999ZM556.997,125.45h1.237V126.79h-1.237V129h-1.661v-2.21h-4.3l-.048-1.02,4.293-6.72h1.716Zm-4.266,0h2.605v-4.1499l-.123.21ZM518.914,145h-1.723v-4.41992H512.741V145h-1.729v-9.95h1.729v4.13989H517.191v-4.13989h1.723Zm7.868-4.43994h-4.088v3.06006h4.779V145h-6.508v-9.95h6.46v1.38989h-4.731v2.75h4.088Zm5.524-1.92017,2.09094-3.58984h1.997L533.386,139.98l3.076,5.02h-2.017l-2.139-3.6499L530.159,145h-2.01l3.083-5.02-3.014-4.92993h1.996Zm6.275,4.61011a.9368.9368,0,0,1,.718.27.96157.96157,0,0,1,0,1.3,1.10205,1.10205,0,0,1-1.422,0,.8629.8629,0,0,1-.26-.65015.88769.88769,0,0,1,.253-.6499A.928.928,0,0,1,538.581,143.25Zm0-5.8a.9699.9699,0,0,1,.718.26.916.916,0,0,1,.253.66016.89225.89225,0,0,1-.253.6499,1.136,1.136,0,0,1-1.422,0,.87784.87784,0,0,1-.26-.6499.91174.91174,0,0,1,.253-.66016A.96072.96072,0,0,1,538.581,137.45Zm10.268,4.75h-1.532l-.519,2.8h-1.149l.52-2.8H544.59v-1.07983h1.784l.397-2.14014h-1.662v-1.09009h1.867l.533-2.83984H548.65l-.533,2.83984h1.538l.533-2.83984h1.142l-.533,2.83984h1.422V138.98h-1.627l-.397,2.14014h1.511V142.2H549.99l-.519,2.8h-1.142Zm-1.327-1.07983H549.054l.396-2.14014h-1.531ZM558.392,135v1.37012h-.205a3.3143,3.3143,0,0,0-2.229.76977,3.20974,3.20974,0,0,0-.991,2.11011,2.69758,2.69758,0,0,1,2.044-.84009,2.53792,2.53792,0,0,1,2.078.93018,3.65391,3.65391,0,0,1,.765,2.3999,3.42909,3.42909,0,0,1-.895,2.46,3.09159,3.09159,0,0,1-2.338.93994,3.02949,3.02949,0,0,1-2.42-1.09985,4.36627,4.36627,0,0,1-.923-2.89014v-.56982a6.10853,6.10853,0,0,1,1.272-4.1001,4.57625,4.57625,0,0,1,3.671-1.48Zm-1.785,4.75a1.72883,1.72883,0,0,0-1.004.31006,1.79246,1.79246,0,0,0-.664.81982v.5a3.01736,3.01736,0,0,0,.465,1.77,1.427,1.427,0,0,0,1.203.65015,1.40373,1.40373,0,0,0,1.169-.56006,2.293,2.293,0,0,0,.431-1.45,2.35011,2.35011,0,0,0-.43695-1.47A1.39424,1.39424,0,0,0,556.607,139.75Zm10.842-2.08008a2.35312,2.35312,0,0,1-.376,1.31006,2.596,2.596,0,0,1-1.025.89014,2.799,2.799,0,0,1,1.19605.99,2.50687,2.50687,0,0,1,.424,1.42993,2.61021,2.61021,0,0,1-.889,2.08008,4.01844,4.01844,0,0,1-4.744-.01,2.59271,2.59271,0,0,1-.889-2.07007,2.52342,2.52342,0,0,1,.424-1.43994,2.76815,2.76815,0,0,1,1.19-.98,2.61254,2.61254,0,0,1-1.019-.89014,2.38823,2.38823,0,0,1-.369-1.31006,2.56473,2.56473,0,0,1,.82-2.01,3.65617,3.65617,0,0,1,4.437,0A2.56143,2.56143,0,0,1,567.449,137.66992Zm-1.442,4.53a1.6386,1.6386,0,0,0-.445-1.18994,1.72545,1.72545,0,0,0-2.324,0,1.65477,1.65477,0,0,0-.43,1.18994,1.49038,1.49038,0,0,0,1.606,1.61011,1.57442,1.57442,0,0,0,1.169-.42017A1.6195,1.6195,0,0,0,566.007,142.2Zm-.212-4.47a1.50588,1.50588,0,0,0-.376-1.06006,1.26613,1.26613,0,0,0-1.012-.42993,1.29518,1.29518,0,0,0-1.005.40991,1.50884,1.50884,0,0,0-.369,1.08008,1.55128,1.55128,0,0,0,.369,1.09009,1.31119,1.31119,0,0,0,1.012.3999,1.28854,1.28854,0,0,0,1.005-.3999A1.532,1.532,0,0,0,565.795,137.73Zm3.138,3.52a4.35934,4.35934,0,0,1,.793-2.74,2.519,2.519,0,0,1,2.126-1.04,2.40417,2.40417,0,0,1,1.9.82007V134.5h1.661V145h-1.504l-.082-.77a2.43083,2.43083,0,0,1-1.989.90991,2.53339,2.53339,0,0,1-2.106-1.0498A4.56512,4.56512,0,0,1,568.933,141.25Zm1.661.13989a3.09874,3.09874,0,0,0,.43,1.76,1.42014,1.42014,0,0,0,1.238.63013,1.56286,1.56286,0,0,0,1.49-.90991V139.72a1.53479,1.53479,0,0,0-1.477-.88989,1.412,1.412,0,0,0-1.244.63989A3.39741,3.39741,0,0,0,570.594,141.38989Zm12.933-.57983a5.4357,5.4357,0,0,1-.806,3.24,2.84538,2.84538,0,0,1-2.441,1.08984,2.90526,2.90526,0,0,1-2.433-1.05981,5.21491,5.21491,0,0,1-.834-3.15015V139.2a5.37775,5.37775,0,0,1,.799-3.22,3.34748,3.34748,0,0,1,4.888-.02,5.14229,5.14229,0,0,1,.827,3.13013ZM581.866,138.95a4.181,4.181,0,0,0-.38306-2.05,1.45109,1.45109,0,0,0-2.413-.02978,3.85665,3.85665,0,0,0-.403,1.91992v2.26a4.3351,4.3351,0,0,0,.39,2.07983,1.31413,1.31413,0,0,0,1.223.68018,1.28735,1.28735,0,0,0,1.183-.63013,4.05274,4.05274,0,0,0,.403-1.98Zm9.728,2.42993a4.42447,4.42447,0,0,1-.773,2.74024,2.49345,2.49345,0,0,1-2.112,1.01977,2.42585,2.42585,0,0,1-2.023-.93994l-.082.8H585.1V134.5h1.661v3.81006a2.41233,2.41233,0,0,1,1.934-.84009,2.52892,2.52892,0,0,1,2.126,1,4.52408,4.52408,0,0,1,.773,2.81006Zm-1.661-.1499a3.1299,3.1299,0,0,0-.424-1.8,1.41379,1.41379,0,0,0-1.231-.59985,1.5365,1.5365,0,0,0-1.517.93994v3.05a1.55789,1.55789,0,0,0,1.531.96,1.39187,1.39187,0,0,0,1.203-.58008,3.02776,3.02776,0,0,0,.438-1.75Zm3.643,3.77v-6.16992h-1.128v-1.23h1.128v-.67017a2.52891,2.52891,0,0,1,.684-1.8999,2.604,2.604,0,0,1,1.914-.66992,3.93855,3.93855,0,0,1,.93.11987l-.042,1.3a2.98194,2.98194,0,0,0-.635-.06006,1.06993,1.06993,0,0,0-1.19,1.23v.65015h1.504v1.23h-1.504V145Z" fill="#fff"/>
	<rect y="212" width="150" height="100" fill="#37a492"/>
	<path d="M8.641,339.71A3.28049,3.28049,0,0,1,7.144,340.77a5.92507,5.92507,0,0,1-2.174.36987,4.26843,4.26843,0,0,1-2.215-.56982A3.82365,3.82365,0,0,1,1.265,338.95a5.73478,5.73478,0,0,1-.54-2.47v-.78a5.25443,5.25443,0,0,1,1.08-3.52,3.73305,3.73305,0,0,1,3.014-1.27,3.95768,3.95768,0,0,1,2.639.82007,3.55309,3.55309,0,0,1,1.176,2.37012H6.938a1.90728,1.90728,0,0,0-2.084-1.8,2.05113,2.05113,0,0,0-1.771.83984,4.24646,4.24646,0,0,0-.622,2.4502v.77a4.1076,4.1076,0,0,0,.677,2.51,2.262,2.262,0,0,0,1.893.88989,2.45809,2.45809,0,0,0,1.887-.61011V337.21H4.867v-1.32007H8.641Zm5.612-4.58984a3.75711,3.75711,0,0,0-.677-.05,1.52486,1.52486,0,0,0-1.538.86987V341H10.377v-7.3999h1.586l.041.82983a1.87314,1.87314,0,0,1,1.668-.96,1.64328,1.64328,0,0,1,.588.09009Zm4.17,6.01977a3.45814,3.45814,0,0,1-2.564-.99,3.64357,3.64357,0,0,1-.977-2.65991v-.2a4.45757,4.45757,0,0,1,.424-1.98A3.32931,3.32931,0,0,1,16.509,333.95a3.19635,3.19635,0,0,1,1.722-.48,2.89621,2.89621,0,0,1,2.331.96,4.05667,4.05667,0,0,1,.828,2.73v.67017H16.557a2.24574,2.24574,0,0,0,.608,1.45,1.86839,1.86839,0,0,0,1.354.53,2.26047,2.26047,0,0,0,1.859-.92017l.895.8501a2.97027,2.97027,0,0,1-1.189,1.03A3.61282,3.61282,0,0,1,18.423,341.13989Zm-.198-6.33984a1.40836,1.40836,0,0,0-1.108.48,2.48457,2.48457,0,0,0-.533,1.33008h3.165V336.49a1.99675,1.99675,0,0,0-.444-1.26A1.3728,1.3728,0,0,0,18.225,334.80005Zm7.717,6.33984a3.45582,3.45582,0,0,1-2.563-.99,3.64008,3.64008,0,0,1-.978-2.65991v-.2a4.47127,4.47127,0,0,1,.424-1.98A3.32931,3.32931,0,0,1,24.028,333.95a3.19976,3.19976,0,0,1,1.723-.48,2.899,2.899,0,0,1,2.331.96,4.06175,4.06175,0,0,1,.827,2.73v.67017H24.076a2.24139,2.24139,0,0,0,.609,1.45,1.86768,1.86768,0,0,0,1.353.53,2.25915,2.25915,0,0,0,1.859-.92017l.896.8501a2.97694,2.97694,0,0,1-1.189,1.03A3.617,3.617,0,0,1,25.942,341.13989Zm-.198-6.33984a1.40487,1.40487,0,0,0-1.107.48,2.48457,2.48457,0,0,0-.533,1.33008h3.165V336.49a1.99694,1.99694,0,0,0-.445-1.26A1.3728,1.3728,0,0,0,25.744,334.80005Zm6.002-1.2.048.85986a2.66146,2.66146,0,0,1,2.153-.99q2.3115,0,2.352,2.64014V341H34.638v-4.79a1.49446,1.49446,0,0,0-.308-1.04,1.25193,1.25193,0,0,0-.991-.33984,1.59444,1.59444,0,0,0-1.497.90991V341H30.181v-7.3999ZM46.546,331v1.37012h-.205a3.31434,3.31434,0,0,0-2.229.76977,3.20967,3.20967,0,0,0-.991,2.11011,2.699,2.699,0,0,1,2.044-.84009,2.53665,2.53665,0,0,1,2.078.93018,3.649,3.649,0,0,1,.766,2.3999,3.42992,3.42992,0,0,1-.896,2.46,3.09014,3.09014,0,0,1-2.338.93994,3.02952,3.02952,0,0,1-2.42-1.09985,4.36584,4.36584,0,0,1-.922-2.89014v-.56982a6.1081,6.1081,0,0,1,1.271-4.1001A4.5763,4.5763,0,0,1,46.375,331Zm-1.784,4.75a1.72983,1.72983,0,0,0-1.005.31006,1.78462,1.78462,0,0,0-.663.81982v.5a3.01722,3.01722,0,0,0,.465,1.77,1.42569,1.42569,0,0,0,1.203.65015,1.405,1.405,0,0,0,1.169-.56006,2.29265,2.29265,0,0,0,.43-1.45,2.34981,2.34981,0,0,0-.437-1.47A1.39243,1.39243,0,0,0,44.762,335.75ZM8.914,357H7.191v-4.41992H2.741V357H1.012v-9.95H2.741v4.13989h4.45v-4.13989H8.914Zm7.868-4.43994H12.694v3.06006h4.779V357H10.965v-9.95h6.46v1.38989H12.694v2.75h4.088Zm5.524-1.92017,2.091-3.58984h1.997L23.386,351.98,26.462,357H24.445l-2.139-3.6499L20.159,357h-2.01l3.083-5.02-3.014-4.92993h1.996ZM28.581,355.25a.93673.93673,0,0,1,.718.27.96154.96154,0,0,1,0,1.3,1.10205,1.10205,0,0,1-1.422,0,.863.863,0,0,1-.26-.65015.88773.88773,0,0,1,.253-.6499A.928.928,0,0,1,28.581,355.25Zm0-5.8a.96983.96983,0,0,1,.718.26.91592.91592,0,0,1,.253.66016.89214.89214,0,0,1-.253.6499,1.136,1.136,0,0,1-1.422,0,.878.878,0,0,1-.26-.6499.91178.91178,0,0,1,.253-.66016A.96072.96072,0,0,1,28.581,349.45Zm10.268,4.75H37.317l-.519,2.8H35.649l.52-2.8H34.59v-1.07983h1.784l.397-2.14014H35.109v-1.09009h1.867l.533-2.83984H38.65l-.533,2.83984h1.538l.533-2.83984H41.33l-.533,2.83984h1.422V350.98H40.592l-.397,2.14014h1.511V354.2H39.99l-.519,2.8H38.329Zm-1.327-1.07983h1.532L39.45,350.98H37.919ZM45.145,351.26h1.011a1.77005,1.77005,0,0,0,1.21-.38989,1.41641,1.41641,0,0,0,.451-1.13013,1.52453,1.52453,0,0,0-.376-1.1001,1.496,1.496,0,0,0-1.134-.3999,1.57816,1.57816,0,0,0-1.101.38989,1.291,1.291,0,0,0-.431,1.01H43.114a2.54959,2.54959,0,0,1,.404-1.3999,2.69482,2.69482,0,0,1,1.134-.97,3.65366,3.65366,0,0,1,1.634-.36011,3.40482,3.40482,0,0,1,2.338.75,2.6175,2.6175,0,0,1,.855,2.08008,2.08513,2.08513,0,0,1-.431,1.26,2.60746,2.60746,0,0,1-1.101.88989,2.40123,2.40123,0,0,1,1.244.89014,2.36678,2.36678,0,0,1,.431,1.42993,2.65631,2.65631,0,0,1-.923,2.13013,4.00771,4.00771,0,0,1-4.764.03,2.52277,2.52277,0,0,1-.916-2.04H44.68a1.39565,1.39565,0,0,0,.437,1.06982,1.70082,1.70082,0,0,0,1.19.41016,1.73785,1.73785,0,0,0,1.216-.41016,1.53153,1.53153,0,0,0,.445-1.18994,1.55636,1.55636,0,0,0-.465-1.21,1.9994,1.9994,0,0,0-1.381-.41992h-.977Zm12.66-3.29L53.826,357H52.083l3.972-8.62012H50.907v-1.32983h6.898ZM63.663,357a2.50954,2.50954,0,0,1-.191-.68994,2.59448,2.59448,0,0,1-1.942.82983A2.62833,2.62833,0,0,1,59.712,356.5a2.0312,2.0312,0,0,1-.704-1.57007,2.08836,2.08836,0,0,1,.875-1.80981,4.20761,4.20761,0,0,1,2.515-.64014h1.019V352a1.16773,1.16773,0,0,0-1.299-1.27,1.46344,1.46344,0,0,0-.93.29.86715.86715,0,0,0-.362.72H59.165a1.83132,1.83132,0,0,1,.403-1.13989,2.71557,2.71557,0,0,1,1.094-.83008,3.88864,3.88864,0,0,1,1.552-.3,3.12853,3.12853,0,0,1,2.071.65015,2.34287,2.34287,0,0,1,.793,1.83984V355.29a3.74484,3.74484,0,0,0,.28,1.58984V357Zm-1.825-1.2a1.86747,1.86747,0,0,0,.923-.24,1.58976,1.58976,0,0,0,.656-.64014V353.53h-.896a2.39952,2.39952,0,0,0-1.387.32007,1.03939,1.03939,0,0,0-.465.90991.97253.97253,0,0,0,.314.76A1.24011,1.24011,0,0,0,61.838,355.80005ZM72.331,353.45h1.237V354.79H72.331V357H70.67v-2.21h-4.3l-.048-1.02,4.293-6.72h1.716Zm-4.266,0H70.67v-4.1499l-.123.21Zm11.314-.60986a2.71641,2.71641,0,0,1-4.04-.04,3.60908,3.60908,0,0,1-.779-2.42017,3.95588,3.95588,0,0,1,.396-1.77978,3.0079,3.0079,0,0,1,1.128-1.25,3.25683,3.25683,0,0,1,1.695-.44019A2.86749,2.86749,0,0,1,80.165,348.03a4.72948,4.72948,0,0,1,.882,3v.47a6.161,6.161,0,0,1-1.217,4.11011A4.57614,4.57614,0,0,1,76.2,357.04h-.198v-1.37012h.239a3.42552,3.42552,0,0,0,2.256-.71A2.96042,2.96042,0,0,0,79.379,352.84009Zm-1.6-.42017a1.69077,1.69077,0,0,0,.937-.29,1.86709,1.86709,0,0,0,.677-.78979v-.65015a3.131,3.131,0,0,0-.452-1.77,1.38186,1.38186,0,0,0-2.317-.07983,2.86291,2.86291,0,0,0,.007,3.01A1.36746,1.36746,0,0,0,77.779,352.41992ZM89.318,357H82.626v-1.13989L85.941,352.24a8.2696,8.2696,0,0,0,1.019-1.33008,2.16627,2.16627,0,0,0,.308-1.07983,1.6356,1.6356,0,0,0-.404-1.15015,1.38284,1.38284,0,0,0-1.073-.43994,1.59642,1.59642,0,0,0-1.251.5,1.90476,1.90476,0,0,0-.444,1.34009H82.435a3.24612,3.24612,0,0,1,.41-1.63013,2.874,2.874,0,0,1,1.182-1.13989,3.77258,3.77258,0,0,1,1.778-.40015,3.33077,3.33077,0,0,1,2.283.73,2.50615,2.50615,0,0,1,.841,2.01,3.43954,3.43954,0,0,1-.424,1.57007,8.80615,8.80615,0,0,1-1.374,1.8501l-2.434,2.59985h4.621Z" fill="#fff"/>
	<rect x="170" y="212" width="150" height="100" fill="#268473"/>
	<path d="M178.641,339.71a3.28032,3.28032,0,0,1-1.497,1.06006,5.92509,5.92509,0,0,1-2.174.36987,4.2684,4.2684,0,0,1-2.215-.56982,3.82357,3.82357,0,0,1-1.49-1.62012,5.73464,5.73464,0,0,1-.54-2.47v-.78a5.25443,5.25443,0,0,1,1.08-3.52,3.73307,3.73307,0,0,1,3.014-1.27,3.95772,3.95772,0,0,1,2.639.82007,3.55313,3.55313,0,0,1,1.176,2.37012h-1.696a1.90726,1.90726,0,0,0-2.084-1.8,2.05112,2.05112,0,0,0-1.771.83984,4.24654,4.24654,0,0,0-.622,2.4502v.77a4.10767,4.10767,0,0,0,.677,2.51,2.262,2.262,0,0,0,1.893.88989,2.458,2.458,0,0,0,1.887-.61011V337.21h-2.051v-1.32007h3.774Zm5.612-4.58984a3.757,3.757,0,0,0-.677-.05,1.52488,1.52488,0,0,0-1.538.86987V341h-1.661v-7.3999h1.586l.041.82983a1.87314,1.87314,0,0,1,1.668-.96,1.64334,1.64334,0,0,1,.588.09009Zm4.17,6.01977a3.45808,3.45808,0,0,1-2.564-.99,3.64359,3.64359,0,0,1-.977-2.65991v-.2a4.4577,4.4577,0,0,1,.424-1.98,3.32917,3.32917,0,0,1,1.203-1.36011,3.19629,3.19629,0,0,1,1.722-.48,2.89625,2.89625,0,0,1,2.331.96,4.05667,4.05667,0,0,1,.828,2.73v.67017h-4.833a2.24559,2.24559,0,0,0,.608,1.45,1.86835,1.86835,0,0,0,1.354.53,2.26045,2.26045,0,0,0,1.859-.92017l.895.8501a2.97053,2.97053,0,0,1-1.189,1.03A3.61289,3.61289,0,0,1,188.423,341.13989Zm-.198-6.33984a1.40837,1.40837,0,0,0-1.108.48,2.48449,2.48449,0,0,0-.533,1.33008h3.165V336.49a1.99658,1.99658,0,0,0-.444-1.26A1.37275,1.37275,0,0,0,188.225,334.80005Zm7.717,6.33984a3.45583,3.45583,0,0,1-2.563-.99,3.64,3.64,0,0,1-.978-2.65991v-.2a4.47113,4.47113,0,0,1,.424-1.98,3.32912,3.32912,0,0,1,1.203-1.36011,3.19968,3.19968,0,0,1,1.723-.48,2.89894,2.89894,0,0,1,2.331.96,4.06175,4.06175,0,0,1,.827,2.73v.67017h-4.833a2.24155,2.24155,0,0,0,.609,1.45,1.86769,1.86769,0,0,0,1.353.53,2.25913,2.25913,0,0,0,1.859-.92017l.896.8501a2.9768,2.9768,0,0,1-1.189,1.03A3.617,3.617,0,0,1,195.942,341.13989Zm-.198-6.33984a1.4049,1.4049,0,0,0-1.107.48,2.48472,2.48472,0,0,0-.533,1.33008h3.165V336.49a1.99706,1.99706,0,0,0-.445-1.26A1.37283,1.37283,0,0,0,195.744,334.80005Zm6.002-1.2.048.85986a2.66142,2.66142,0,0,1,2.153-.99q2.31153,0,2.352,2.64014V341h-1.661v-4.79a1.49441,1.49441,0,0,0-.308-1.04,1.25189,1.25189,0,0,0-.991-.33984,1.59442,1.59442,0,0,0-1.497.90991V341h-1.661v-7.3999ZM218.002,331.97,214.023,341H212.28l3.972-8.62012h-5.148v-1.32983h6.898ZM178.914,357h-1.723v-4.41992h-4.45V357h-1.729v-9.95h1.729v4.13989h4.45v-4.13989h1.723Zm7.868-4.43994h-4.088v3.06006h4.779V357h-6.508v-9.95h6.46v1.38989h-4.731v2.75h4.088Zm5.524-1.92017,2.091-3.58984h1.997L193.386,351.98l3.076,5.02h-2.017l-2.139-3.6499L190.159,357h-2.01l3.083-5.02-3.014-4.92993h1.996Zm6.275,4.61011a.9368.9368,0,0,1,.718.27.96157.96157,0,0,1,0,1.3,1.10205,1.10205,0,0,1-1.422,0,.863.863,0,0,1-.26-.65015.88769.88769,0,0,1,.253-.6499A.928.928,0,0,1,198.581,355.25Zm0-5.8a.9699.9699,0,0,1,.718.26.91591.91591,0,0,1,.253.66016.89213.89213,0,0,1-.253.6499,1.136,1.136,0,0,1-1.422,0,.878.878,0,0,1-.26-.6499.91174.91174,0,0,1,.253-.66016A.96072.96072,0,0,1,198.581,349.45Zm10.268,4.75h-1.532l-.519,2.8h-1.149l.52-2.8H204.59v-1.07983h1.784l.397-2.14014h-1.662v-1.09009h1.867l.533-2.83984h1.141l-.533,2.83984h1.538l.533-2.83984h1.142l-.533,2.83984h1.422V350.98h-1.627l-.397,2.14014h1.511V354.2H209.99l-.519,2.8h-1.142Zm-1.327-1.07983h1.532l.396-2.14014h-1.531ZM219.916,357h-6.692v-1.13989l3.315-3.62012a8.27,8.27,0,0,0,1.019-1.33008,2.16461,2.16461,0,0,0,.307-1.07983,1.6351,1.6351,0,0,0-.403-1.15015,1.38288,1.38288,0,0,0-1.073-.43994,1.59638,1.59638,0,0,0-1.251.5,1.90049,1.90049,0,0,0-.445,1.34009h-1.661a3.25664,3.25664,0,0,1,.41-1.63013,2.87655,2.87655,0,0,1,1.183-1.13989,3.76842,3.76842,0,0,1,1.777-.40015,3.33346,3.33346,0,0,1,2.284.73,2.50545,2.50545,0,0,1,.84,2.01,3.43742,3.43742,0,0,1-.423,1.57007,8.80615,8.80615,0,0,1-1.374,1.8501l-2.434,2.59985h4.621Zm6.433-10v1.37012h-.205a3.3143,3.3143,0,0,0-2.229.76977,3.20957,3.20957,0,0,0-.991,2.11011,2.69742,2.69742,0,0,1,2.044-.84009,2.538,2.538,0,0,1,2.078.93018,3.65438,3.65438,0,0,1,.766,2.3999,3.42989,3.42989,0,0,1-.896,2.46,3.09155,3.09155,0,0,1-2.338.93994,3.02956,3.02956,0,0,1-2.42-1.09985,4.36629,4.36629,0,0,1-.923-2.89014v-.56982a6.10839,6.10839,0,0,1,1.272-4.1001,4.57633,4.57633,0,0,1,3.671-1.48Zm-1.785,4.75a1.729,1.729,0,0,0-1.004.31006,1.79284,1.79284,0,0,0-.664.81982v.5a3.01736,3.01736,0,0,0,.465,1.77,1.427,1.427,0,0,0,1.203.65015,1.40368,1.40368,0,0,0,1.169-.56006,2.28693,2.28693,0,0,0,.431-1.45,2.3497,2.3497,0,0,0-.437-1.47A1.39294,1.39294,0,0,0,224.564,351.75Zm10.842-2.08008a2.35283,2.35283,0,0,1-.376,1.31006,2.59631,2.59631,0,0,1-1.025.89014,2.799,2.799,0,0,1,1.196.99,2.50642,2.50642,0,0,1,.424,1.42993,2.61019,2.61019,0,0,1-.889,2.08008,4.0184,4.0184,0,0,1-4.744-.01,2.5919,2.5919,0,0,1-.888-2.07007,2.52251,2.52251,0,0,1,.423-1.43994,2.7678,2.7678,0,0,1,1.19-.98,2.61291,2.61291,0,0,1-1.019-.89014,2.38845,2.38845,0,0,1-.369-1.31006,2.56481,2.56481,0,0,1,.82-2.01,3.65617,3.65617,0,0,1,4.437,0A2.56148,2.56148,0,0,1,235.406,349.66992Zm-1.442,4.53a1.642,1.642,0,0,0-.444-1.18994,1.72668,1.72668,0,0,0-2.325,0,1.65464,1.65464,0,0,0-.43,1.18994,1.4903,1.4903,0,0,0,1.606,1.61011,1.57437,1.57437,0,0,0,1.169-.42017A1.61961,1.61961,0,0,0,233.964,354.2Zm-.212-4.47a1.50576,1.50576,0,0,0-.376-1.06006,1.26615,1.26615,0,0,0-1.012-.42993,1.29513,1.29513,0,0,0-1.005.40991,1.50873,1.50873,0,0,0-.369,1.08008,1.55116,1.55116,0,0,0,.369,1.09009,1.311,1.311,0,0,0,1.012.3999,1.2885,1.2885,0,0,0,1.005-.3999A1.53184,1.53184,0,0,0,233.752,349.73Zm8.962,3.72h1.237V354.79h-1.237V357h-1.661v-2.21h-4.3l-.048-1.02,4.293-6.72h1.716Zm-4.266,0h2.605v-4.1499l-.123.21Zm13.228-5.48L247.697,357h-1.743l3.972-8.62012h-5.148v-1.32983h6.898Zm3.254,3.29h1.011a1.77007,1.77007,0,0,0,1.21-.38989,1.417,1.417,0,0,0,.452-1.13013,1.52891,1.52891,0,0,0-.376-1.1001,1.5,1.5,0,0,0-1.135-.3999,1.57814,1.57814,0,0,0-1.101.38989,1.29014,1.29014,0,0,0-.43,1.01h-1.662a2.54969,2.54969,0,0,1,.404-1.3999,2.69158,2.69158,0,0,1,1.135-.97,3.64629,3.64629,0,0,1,1.633-.36011,3.40489,3.40489,0,0,1,2.338.75,2.61753,2.61753,0,0,1,.855,2.08008,2.08526,2.08526,0,0,1-.431,1.26,2.60151,2.60151,0,0,1-1.101.88989,2.408,2.408,0,0,1,1.245.89014,2.37281,2.37281,0,0,1,.43,1.42993,2.65324,2.65324,0,0,1-.923,2.13013,4.00771,4.00771,0,0,1-4.764.03,2.52278,2.52278,0,0,1-.916-2.04h1.661a1.39558,1.39558,0,0,0,.437,1.06982,1.70252,1.70252,0,0,0,1.19.41016,1.74225,1.74225,0,0,0,1.217-.41016,1.53458,1.53458,0,0,0,.444-1.18994,1.55633,1.55633,0,0,0-.465-1.21,1.99925,1.99925,0,0,0-1.381-.41992h-.977Z" fill="#fff"/>
	<rect x="340" y="212" width="150" height="100" fill="#146454"/>
	<path d="M348.641,339.71a3.28032,3.28032,0,0,1-1.497,1.06006,5.92509,5.92509,0,0,1-2.174.36987,4.2684,4.2684,0,0,1-2.215-.56982,3.82357,3.82357,0,0,1-1.49-1.62012,5.73464,5.73464,0,0,1-.54-2.47v-.78a5.25443,5.25443,0,0,1,1.08-3.52,3.73307,3.73307,0,0,1,3.014-1.27,3.95772,3.95772,0,0,1,2.639.82007,3.55313,3.55313,0,0,1,1.176,2.37012h-1.696a1.90726,1.90726,0,0,0-2.084-1.8,2.05112,2.05112,0,0,0-1.771.83984,4.24654,4.24654,0,0,0-.622,2.4502v.77a4.10767,4.10767,0,0,0,.677,2.51,2.262,2.262,0,0,0,1.893.88989,2.458,2.458,0,0,0,1.887-.61011V337.21h-2.051v-1.32007h3.774Zm5.612-4.58984a3.757,3.757,0,0,0-.677-.05,1.52488,1.52488,0,0,0-1.538.86987V341h-1.661v-7.3999h1.586l.041.82983a1.87314,1.87314,0,0,1,1.668-.96,1.64334,1.64334,0,0,1,.588.09009Zm4.17,6.01977a3.45808,3.45808,0,0,1-2.564-.99,3.64359,3.64359,0,0,1-.977-2.65991v-.2a4.4577,4.4577,0,0,1,.424-1.98,3.32917,3.32917,0,0,1,1.203-1.36011,3.19629,3.19629,0,0,1,1.722-.48,2.89625,2.89625,0,0,1,2.331.96,4.05667,4.05667,0,0,1,.828,2.73v.67017h-4.833a2.24559,2.24559,0,0,0,.608,1.45,1.86835,1.86835,0,0,0,1.354.53,2.26045,2.26045,0,0,0,1.859-.92017l.895.8501a2.97053,2.97053,0,0,1-1.189,1.03A3.61289,3.61289,0,0,1,358.423,341.13989Zm-.198-6.33984a1.40837,1.40837,0,0,0-1.108.48,2.48449,2.48449,0,0,0-.533,1.33008h3.165V336.49a1.99658,1.99658,0,0,0-.444-1.26A1.37275,1.37275,0,0,0,358.225,334.80005Zm7.717,6.33984a3.45583,3.45583,0,0,1-2.563-.99,3.64,3.64,0,0,1-.978-2.65991v-.2a4.47113,4.47113,0,0,1,.424-1.98,3.32912,3.32912,0,0,1,1.203-1.36011,3.19968,3.19968,0,0,1,1.723-.48,2.89894,2.89894,0,0,1,2.331.96,4.06175,4.06175,0,0,1,.827,2.73v.67017h-4.833a2.24155,2.24155,0,0,0,.609,1.45,1.86769,1.86769,0,0,0,1.353.53,2.25913,2.25913,0,0,0,1.859-.92017l.896.8501a2.9768,2.9768,0,0,1-1.189,1.03A3.617,3.617,0,0,1,365.942,341.13989Zm-.198-6.33984a1.4049,1.4049,0,0,0-1.107.48,2.48472,2.48472,0,0,0-.533,1.33008h3.165V336.49a1.99706,1.99706,0,0,0-.445-1.26A1.37283,1.37283,0,0,0,365.744,334.80005Zm6.002-1.2.048.85986a2.66142,2.66142,0,0,1,2.153-.99q2.31153,0,2.352,2.64014V341h-1.661v-4.79a1.49441,1.49441,0,0,0-.308-1.04,1.25189,1.25189,0,0,0-.991-.33984,1.59442,1.59442,0,0,0-1.497.90991V341h-1.661v-7.3999Zm15.9.06982a2.36019,2.36019,0,0,1-.375,1.31006,2.60613,2.60613,0,0,1-1.026.89014,2.79321,2.79321,0,0,1,1.196.99,2.50662,2.50662,0,0,1,.424,1.42993,2.61261,2.61261,0,0,1-.888,2.08008,4.01994,4.01994,0,0,1-4.745-.01,2.592,2.592,0,0,1-.888-2.07007,2.51565,2.51565,0,0,1,.424-1.43994,2.76485,2.76485,0,0,1,1.189-.98,2.62,2.62,0,0,1-1.019-.89014,2.38845,2.38845,0,0,1-.369-1.31006,2.56208,2.56208,0,0,1,.821-2.01,3.65464,3.65464,0,0,1,4.436,0A2.56148,2.56148,0,0,1,387.646,333.66992Zm-1.442,4.53a1.6421,1.6421,0,0,0-.444-1.18994,1.72543,1.72543,0,0,0-2.324,0,1.65112,1.65112,0,0,0-.431,1.18994,1.49162,1.49162,0,0,0,1.606,1.61011,1.57276,1.57276,0,0,0,1.169-.42017A1.61963,1.61963,0,0,0,386.204,338.2Zm-.212-4.47a1.50576,1.50576,0,0,0-.376-1.06006,1.26471,1.26471,0,0,0-1.012-.42993,1.2944,1.2944,0,0,0-1.004.40991,1.50911,1.50911,0,0,0-.37,1.08008,1.55157,1.55157,0,0,0,.37,1.09009,1.30885,1.30885,0,0,0,1.011.3999,1.28848,1.28848,0,0,0,1.005-.3999A1.53184,1.53184,0,0,0,385.992,333.73ZM348.914,357h-1.723v-4.41992h-4.45V357h-1.729v-9.95h1.729v4.13989h4.45v-4.13989h1.723Zm7.868-4.43994h-4.088v3.06006h4.779V357h-6.508v-9.95h6.46v1.38989h-4.731v2.75h4.088Zm5.524-1.92017,2.091-3.58984h1.997L363.386,351.98l3.076,5.02h-2.017l-2.139-3.6499L360.159,357h-2.01l3.083-5.02-3.014-4.92993h1.996Zm6.275,4.61011a.9368.9368,0,0,1,.718.27.96157.96157,0,0,1,0,1.3,1.10205,1.10205,0,0,1-1.422,0,.863.863,0,0,1-.26-.65015.88769.88769,0,0,1,.253-.6499A.928.928,0,0,1,368.581,355.25Zm0-5.8a.9699.9699,0,0,1,.718.26.91591.91591,0,0,1,.253.66016.89213.89213,0,0,1-.253.6499,1.136,1.136,0,0,1-1.422,0,.878.878,0,0,1-.26-.6499.91174.91174,0,0,1,.253-.66016A.96072.96072,0,0,1,368.581,349.45Zm10.268,4.75h-1.532l-.519,2.8h-1.149l.52-2.8H374.59v-1.07983h1.784l.397-2.14014h-1.662v-1.09009h1.867l.533-2.83984h1.141l-.533,2.83984h1.538l.533-2.83984h1.142l-.533,2.83984h1.422V350.98h-1.627l-.397,2.14014h1.511V354.2H379.99l-.519,2.8h-1.142Zm-1.327-1.07983h1.532l.396-2.14014h-1.531ZM387.722,357h-1.655v-7.99l-2.44.83008v-1.40015L387.51,347.01h.212Zm9.078-3.55h1.237V354.79H396.8V357h-1.661v-2.21h-4.3l-.048-1.02,4.293-6.72H396.8Zm-4.266,0h2.605v-4.1499l-.123.21ZM404.306,347v1.37012h-.205a3.3143,3.3143,0,0,0-2.229.76977,3.20957,3.20957,0,0,0-.991,2.11011,2.69742,2.69742,0,0,1,2.044-.84009,2.53794,2.53794,0,0,1,2.078.93018,3.65438,3.65438,0,0,1,.766,2.3999,3.42989,3.42989,0,0,1-.896,2.46,3.09155,3.09155,0,0,1-2.338.93994,3.02952,3.02952,0,0,1-2.42-1.09985,4.36629,4.36629,0,0,1-.923-2.89014v-.56982a6.10839,6.10839,0,0,1,1.272-4.1001,4.57633,4.57633,0,0,1,3.671-1.48Zm-1.785,4.75a1.729,1.729,0,0,0-1.004.31006,1.7846,1.7846,0,0,0-.663.81982v.5a3.01743,3.01743,0,0,0,.464,1.77,1.427,1.427,0,0,0,1.203.65015,1.40367,1.40367,0,0,0,1.169-.56006,2.28693,2.28693,0,0,0,.431-1.45,2.3497,2.3497,0,0,0-.437-1.47A1.39294,1.39294,0,0,0,402.521,351.75Zm10.193,1.7h1.237V354.79h-1.237V357h-1.661v-2.21h-4.3l-.048-1.02,4.293-6.72h1.716Zm-4.266,0h2.605v-4.1499l-.123.21Zm7.048-1.38989.54-5.01h5.346V348.48h-3.965l-.273,2.38013a3.11584,3.11584,0,0,1,1.558-.40015,2.78173,2.78173,0,0,1,2.20794.91016,3.61412,3.61412,0,0,1,.793,2.45,3.32989,3.32989,0,0,1-.875,2.41992,3.18985,3.18985,0,0,1-2.399.8999,3.34874,3.34874,0,0,1-2.27-.77978,2.82062,2.82062,0,0,1-.971-2.05h1.607a1.77137,1.77137,0,0,0,.519,1.11987,1.61376,1.61376,0,0,0,1.108.38013,1.406,1.406,0,0,0,1.189-.55,2.33653,2.33653,0,0,0,.431-1.49,2.0637,2.0637,0,0,0-.472-1.42993,1.63317,1.63317,0,0,0-1.299-.54,2.14308,2.14308,0,0,0-.765.12988,2.16812,2.16812,0,0,0-.684.46ZM428.628,353.45h1.237V354.79h-1.237V357h-1.661v-2.21h-4.3l-.048-1.02,4.293-6.72h1.716Zm-4.266,0h2.605v-4.1499l-.123.21Z" fill="#fff"/>
	<rect x="510" y="212" width="150" height="100" fill="#034436"/>
	<path d="M518.641,339.71a3.28041,3.28041,0,0,1-1.497,1.06006,5.925,5.925,0,0,1-2.174.36987,4.26829,4.26829,0,0,1-2.215-.56982,3.82375,3.82375,0,0,1-1.49-1.62012,5.73508,5.73508,0,0,1-.54-2.47v-.78a5.25459,5.25459,0,0,1,1.08-3.52,3.73313,3.73313,0,0,1,3.014-1.27,3.9577,3.9577,0,0,1,2.639.82007,3.553,3.553,0,0,1,1.176,2.37012h-1.696a1.90726,1.90726,0,0,0-2.084-1.8,2.05109,2.05109,0,0,0-1.771.83984,4.24631,4.24631,0,0,0-.622,2.4502v.77a4.10767,4.10767,0,0,0,.677,2.51,2.262,2.262,0,0,0,1.893.88989,2.45821,2.45821,0,0,0,1.887-.61011V337.21h-2.051v-1.32007h3.774Zm5.612-4.58984a3.75684,3.75684,0,0,0-.677-.05,1.52481,1.52481,0,0,0-1.538.86987V341h-1.661v-7.3999h1.586l.041.82983a1.87309,1.87309,0,0,1,1.668-.96,1.64346,1.64346,0,0,1,.588.09009Zm4.17,6.01977a3.45806,3.45806,0,0,1-2.564-.99,3.64357,3.64357,0,0,1-.977-2.65991v-.2a4.45729,4.45729,0,0,1,.424-1.98A3.32946,3.32946,0,0,1,526.509,333.95a3.19657,3.19657,0,0,1,1.722-.48,2.89623,2.89623,0,0,1,2.331.96,4.05667,4.05667,0,0,1,.828,2.73v.67017h-4.833a2.24572,2.24572,0,0,0,.608,1.45,1.8685,1.8685,0,0,0,1.354.53,2.26042,2.26042,0,0,0,1.859-.92017l.895.8501a2.97042,2.97042,0,0,1-1.189,1.03A3.61272,3.61272,0,0,1,528.423,341.13989Zm-.198-6.33984a1.40835,1.40835,0,0,0-1.108.48,2.48474,2.48474,0,0,0-.533,1.33008h3.165V336.49a1.99658,1.99658,0,0,0-.444-1.26A1.37281,1.37281,0,0,0,528.225,334.80005Zm7.717,6.33984a3.45569,3.45569,0,0,1-2.563-.99,3.63993,3.63993,0,0,1-.978-2.65991v-.2a4.47154,4.47154,0,0,1,.424-1.98,3.32912,3.32912,0,0,1,1.203-1.36011,3.19965,3.19965,0,0,1,1.723-.48,2.8989,2.8989,0,0,1,2.331.96,4.06159,4.06159,0,0,1,.827,2.73v.67017h-4.833a2.24125,2.24125,0,0,0,.609,1.45,1.86761,1.86761,0,0,0,1.353.53,2.259,2.259,0,0,0,1.859-.92017l.89606.8501a2.97729,2.97729,0,0,1-1.189,1.03A3.617,3.617,0,0,1,535.942,341.13989Zm-.198-6.33984a1.40486,1.40486,0,0,0-1.107.48,2.48474,2.48474,0,0,0-.533,1.33008h3.165V336.49a1.99683,1.99683,0,0,0-.445-1.26A1.37267,1.37267,0,0,0,535.744,334.80005Zm6.002-1.2.048.85986a2.66148,2.66148,0,0,1,2.153-.99q2.31144,0,2.352,2.64014V341h-1.661v-4.79a1.4947,1.4947,0,0,0-.308-1.04,1.252,1.252,0,0,0-.991-.33984,1.59447,1.59447,0,0,0-1.497.90991V341h-1.661v-7.3999Zm14.342,3.24a2.71645,2.71645,0,0,1-4.04-.04,3.60934,3.60934,0,0,1-.779-2.42017,3.956,3.956,0,0,1,.396-1.77978,3.008,3.008,0,0,1,1.12805-1.25,3.25666,3.25666,0,0,1,1.69495-.44019,2.86755,2.86755,0,0,1,2.386,1.12012,4.72983,4.72983,0,0,1,.882,3v.47a6.16121,6.16121,0,0,1-1.217,4.11011,4.5761,4.5761,0,0,1-3.63,1.42993h-.198v-1.37012h.239a3.42551,3.42551,0,0,0,2.256-.71A2.96058,2.96058,0,0,0,556.088,336.84009Zm-1.6-.42017a1.69079,1.69079,0,0,0,.937-.29,1.86672,1.86672,0,0,0,.677-.78979v-.65015a3.13134,3.13134,0,0,0-.452-1.77,1.38187,1.38187,0,0,0-2.317-.07983,2.86277,2.86277,0,0,0,.007,3.01A1.36739,1.36739,0,0,0,554.488,336.41992Zm5.189,6.82007-.896-.53a4.73011,4.73011,0,0,0,.54-1.08984,3.09806,3.09806,0,0,0,.158-.93018v-1.3h1.497l-.007,1.2002a3.30245,3.30245,0,0,1-.369,1.45A3.48843,3.48843,0,0,1,559.677,343.24Zm6.487-2.24v-9.95h3.411a4.17574,4.17574,0,0,1,2.571.66992,2.39487,2.39487,0,0,1,.881,2.02,2.12836,2.12836,0,0,1-.369,1.23,2.34014,2.34014,0,0,1-1.08.8501,2.1271,2.1271,0,0,1,1.244.82983,2.35486,2.35486,0,0,1,.445,1.44019,2.64845,2.64845,0,0,1-.903,2.15991,3.90148,3.90148,0,0,1-2.57.75Zm1.73-4.49v3.11011h1.92a1.90305,1.90305,0,0,0,1.272-.40015,1.43527,1.43527,0,0,0,.458-1.12988,1.417,1.417,0,0,0-1.586-1.58008Zm0-1.27h1.695a1.96675,1.96675,0,0,0,1.258-.36011,1.48208,1.48208,0,0,0,.034-2.10986,2.098,2.098,0,0,0-1.306-.33008h-1.681Zm6.63,1.99a4.33741,4.33741,0,0,1,.431-1.95,3.08567,3.08567,0,0,1,1.21-1.34009,3.343,3.343,0,0,1,1.791-.47,3.22773,3.22773,0,0,1,2.427.96,3.79625,3.79625,0,0,1,1.012,2.56006l.006.38989a4.34107,4.34107,0,0,1-.423,1.9502,3.09208,3.09208,0,0,1-1.204,1.33984,3.45377,3.45377,0,0,1-1.804.47,3.23421,3.23421,0,0,1-2.509-1.03979,4.029,4.029,0,0,1-.937-2.78Zm1.662.1499a2.99259,2.99259,0,0,0,.471,1.79,1.53076,1.53076,0,0,0,1.313.64014,1.5046,1.5046,0,0,0,1.30505-.66016,3.235,3.235,0,0,0,.472-1.91992,2.90663,2.90663,0,0,0-.485-1.77,1.61578,1.61578,0,0,0-2.598-.01A3.2176,3.2176,0,0,0,576.186,337.37988ZM584.573,341h-1.661V330.5h1.661Zm1.504-3.75a4.35927,4.35927,0,0,1,.793-2.74,2.52016,2.52016,0,0,1,2.126-1.04,2.40266,2.40266,0,0,1,1.9.82007V330.5h1.662V341h-1.504l-.082-.77a2.43132,2.43132,0,0,1-1.99.90991,2.53277,2.53277,0,0,1-2.105-1.0498A4.56525,4.56525,0,0,1,586.077,337.25Zm1.66095.13989a3.09846,3.09846,0,0,0,.431,1.76,1.41837,1.41837,0,0,0,1.237.63013,1.56282,1.56282,0,0,0,1.49-.90991V335.72a1.53339,1.53339,0,0,0-1.476-.88989,1.40965,1.40965,0,0,0-1.244.63989A3.38815,3.38815,0,0,0,587.738,337.38989ZM605.566,339.71a3.28046,3.28046,0,0,1-1.497,1.06006,5.91934,5.91934,0,0,1-2.173.36987,4.26827,4.26827,0,0,1-2.215-.56982A3.826,3.826,0,0,1,598.19,338.95a5.76354,5.76354,0,0,1-.54-2.47v-.78a5.25458,5.25458,0,0,1,1.08-3.52,3.7352,3.7352,0,0,1,3.015-1.27,3.9575,3.9575,0,0,1,2.639.82007,3.56175,3.56175,0,0,1,1.176,2.37012h-1.696a1.90763,1.90763,0,0,0-2.085-1.8,2.04939,2.04939,0,0,0-1.77.83984,4.23881,4.23881,0,0,0-.62195,2.4502v.77a4.10769,4.10769,0,0,0,.676,2.51,2.26387,2.26387,0,0,0,1.894.88989,2.45812,2.45812,0,0,0,1.887-.61011V337.21h-2.051v-1.32007H605.566Zm5.613-4.58984a3.76406,3.76406,0,0,0-.677-.05,1.52494,1.52494,0,0,0-1.538.86987V341h-1.661v-7.3999h1.586l.041.82983a1.87318,1.87318,0,0,1,1.668-.96,1.64284,1.64284,0,0,1,.58795.09009Zm4.17,6.01977a3.45669,3.45669,0,0,1-2.564-.99,3.6396,3.6396,0,0,1-.977-2.65991v-.2a4.47032,4.47032,0,0,1,.423-1.98,3.33821,3.33821,0,0,1,1.204-1.36011,3.19633,3.19633,0,0,1,1.722-.48,2.89892,2.89892,0,0,1,2.331.96,4.05649,4.05649,0,0,1,.827,2.73v.67017h-4.833a2.24658,2.24658,0,0,0,.609,1.45,1.86761,1.86761,0,0,0,1.353.53,2.26234,2.26234,0,0,0,1.86005-.92017l.89495.8501a2.96975,2.96975,0,0,1-1.189,1.03A3.61289,3.61289,0,0,1,615.349,341.13989Zm-.199-6.33984a1.40762,1.40762,0,0,0-1.107.48,2.48419,2.48419,0,0,0-.533,1.33008h3.165V336.49a1.99683,1.99683,0,0,0-.445-1.26A1.36986,1.36986,0,0,0,615.15,334.80005Zm7.718,6.33984a3.45428,3.45428,0,0,1-2.563-.99,3.64018,3.64018,0,0,1-.978-2.65991v-.2a4.4581,4.4581,0,0,1,.42395-1.98,3.33,3.33,0,0,1,1.203-1.36011,3.19748,3.19748,0,0,1,1.723-.48,2.89892,2.89892,0,0,1,2.331.96,4.06164,4.06164,0,0,1,.827,2.73v.67017h-4.833a2.24573,2.24573,0,0,0,.608,1.45,1.87,1.87,0,0,0,1.354.53,2.25922,2.25922,0,0,0,1.859-.92017l.896.8501a2.97322,2.97322,0,0,1-1.19,1.03A3.61289,3.61289,0,0,1,622.868,341.13989Zm-.198-6.33984a1.40826,1.40826,0,0,0-1.108.48,2.5,2.5,0,0,0-.533,1.33008h3.165V336.49a1.99064,1.99064,0,0,0-.444-1.26A1.37283,1.37283,0,0,0,622.67,334.80005Zm6.002-1.2.048.85986a2.66026,2.66026,0,0,1,2.153-.99q2.31,0,2.352,2.64014V341h-1.662v-4.79a1.49437,1.49437,0,0,0-.307-1.04,1.2533,1.2533,0,0,0-.991-.33984,1.59439,1.59439,0,0,0-1.497.90991V341h-1.662v-7.3999ZM518.914,357h-1.723v-4.41992H512.741V357h-1.729v-9.95h1.729v4.13989H517.191v-4.13989h1.723Zm7.868-4.43994h-4.088v3.06006h4.779V357h-6.508v-9.95h6.46v1.38989h-4.731v2.75h4.088Zm5.524-1.92017,2.09094-3.58984h1.997L533.386,351.98l3.076,5.02h-2.017l-2.139-3.6499L530.159,357h-2.01l3.083-5.02-3.014-4.92993h1.996Zm6.275,4.61011a.9368.9368,0,0,1,.718.27.96157.96157,0,0,1,0,1.3,1.10205,1.10205,0,0,1-1.422,0,.8629.8629,0,0,1-.26-.65015.88769.88769,0,0,1,.253-.6499A.928.928,0,0,1,538.581,355.25Zm0-5.8a.9699.9699,0,0,1,.718.26.916.916,0,0,1,.253.66016.89225.89225,0,0,1-.253.6499,1.136,1.136,0,0,1-1.422,0,.87784.87784,0,0,1-.26-.6499.91174.91174,0,0,1,.253-.66016A.96072.96072,0,0,1,538.581,349.45Zm10.268,4.75h-1.532l-.519,2.8h-1.149l.52-2.8H544.59v-1.07983h1.784l.397-2.14014h-1.662v-1.09009h1.867l.533-2.83984H548.65l-.533,2.83984h1.538l.533-2.83984h1.142l-.533,2.83984h1.422V350.98h-1.627l-.397,2.14014h1.511V354.2H549.99l-.519,2.8h-1.142Zm-1.327-1.07983H549.054l.396-2.14014h-1.531Zm12.189-.31006a5.42785,5.42785,0,0,1-.807,3.24,2.8435,2.8435,0,0,1-2.44,1.08984,2.90581,2.90581,0,0,1-2.434-1.05981,5.22839,5.22839,0,0,1-.83405-3.15015V351.2a5.3778,5.3778,0,0,1,.8-3.22,3.34748,3.34748,0,0,1,4.888-.02,5.14854,5.14854,0,0,1,.827,3.13013ZM558.05,350.95a4.193,4.193,0,0,0-.383-2.05,1.45109,1.45109,0,0,0-2.413-.02978,3.8453,3.8453,0,0,0-.403,1.91992v2.26a4.3367,4.3367,0,0,0,.389,2.07983,1.31678,1.31678,0,0,0,1.224.68018,1.28574,1.28574,0,0,0,1.182-.63013,4.05137,4.05137,0,0,0,.404-1.98Zm5.052.31006h1.011a1.77012,1.77012,0,0,0,1.21-.38989,1.41637,1.41637,0,0,0,.451-1.13013,1.52465,1.52465,0,0,0-.376-1.1001,1.4962,1.4962,0,0,0-1.134-.3999,1.57806,1.57806,0,0,0-1.101.38989,1.29078,1.29078,0,0,0-.431,1.01h-1.661a2.54983,2.54983,0,0,1,.404-1.3999,2.69478,2.69478,0,0,1,1.134-.97,3.65351,3.65351,0,0,1,1.634-.36011,3.40488,3.40488,0,0,1,2.338.75,2.61748,2.61748,0,0,1,.855,2.08008,2.08523,2.08523,0,0,1-.431,1.26,2.60758,2.60758,0,0,1-1.101.88989,2.40126,2.40126,0,0,1,1.244.89014,2.36709,2.36709,0,0,1,.431,1.42993,2.65631,2.65631,0,0,1-.923,2.13013,4.00766,4.00766,0,0,1-4.764.03,2.5227,2.5227,0,0,1-.916-2.04h1.661a1.39578,1.39578,0,0,0,.437,1.06982,1.701,1.701,0,0,0,1.19.41016,1.73785,1.73785,0,0,0,1.216-.41016,1.5316,1.5316,0,0,0,.445-1.18994,1.55631,1.55631,0,0,0-.465-1.21,1.9994,1.9994,0,0,0-1.381-.41992h-.977ZM574.757,353.45h1.237V354.79h-1.237V357h-1.661v-2.21h-4.3l-.048-1.02,4.293-6.72h1.716Zm-4.266,0h2.605v-4.1499l-.123.21Zm12.223,0h1.237V354.79h-1.237V357h-1.661v-2.21h-4.3l-.048-1.02,4.293-6.72h1.716Zm-4.266,0h2.605v-4.1499l-.123.21Zm8.525-2.18994h1.011a1.76994,1.76994,0,0,0,1.21-.38989,1.41694,1.41694,0,0,0,.452-1.13013,1.5289,1.5289,0,0,0-.376-1.1001,1.50009,1.50009,0,0,0-1.135-.3999,1.57807,1.57807,0,0,0-1.101.38989,1.29014,1.29014,0,0,0-.43,1.01h-1.662a2.54991,2.54991,0,0,1,.404-1.3999,2.695,2.695,0,0,1,1.134-.97,3.6538,3.6538,0,0,1,1.634-.36011,3.405,3.405,0,0,1,2.338.75,2.6177,2.6177,0,0,1,.855,2.08008,2.085,2.085,0,0,1-.431,1.26,2.60116,2.60116,0,0,1-1.101.88989,2.40814,2.40814,0,0,1,1.245.89014,2.373,2.373,0,0,1,.43,1.42993,2.65317,2.65317,0,0,1-.923,2.13013,4.00766,4.00766,0,0,1-4.764.03,2.5227,2.5227,0,0,1-.916-2.04h1.661a1.39558,1.39558,0,0,0,.437,1.06982,1.7025,1.7025,0,0,0,1.19.41016,1.7422,1.7422,0,0,0,1.217-.41016,1.5346,1.5346,0,0,0,.444-1.18994,1.55635,1.55635,0,0,0-.465-1.21,1.99932,1.99932,0,0,0-1.381-.41992h-.977ZM598.177,347v1.37012h-.205a3.31442,3.31442,0,0,0-2.229.76977,3.20969,3.20969,0,0,0-.991,2.11011,2.6974,2.6974,0,0,1,2.044-.84009,2.53806,2.53806,0,0,1,2.078.93018,3.6547,3.6547,0,0,1,.766,2.3999,3.43,3.43,0,0,1-.896,2.46,3.0917,3.0917,0,0,1-2.338.93994,3.02951,3.02951,0,0,1-2.42-1.09985,4.366,4.366,0,0,1-.923-2.89014v-.56982a6.10824,6.10824,0,0,1,1.272-4.1001,4.5762,4.5762,0,0,1,3.671-1.48Zm-1.784,4.75a1.72987,1.72987,0,0,0-1.005.31006,1.78483,1.78483,0,0,0-.663.81982v.5a3.0245,3.0245,0,0,0,.46405,1.77,1.42738,1.42738,0,0,0,1.204.65015,1.40632,1.40632,0,0,0,1.169-.56006,2.29271,2.29271,0,0,0,.43-1.45,2.3497,2.3497,0,0,0-.437-1.47A1.39242,1.39242,0,0,0,596.393,351.75Z" fill="#fff"/>
	<rect x="680" width="150" height="100" fill="#49c5b1"/>
	<path d="M688.641,127.71a3.28041,3.28041,0,0,1-1.497,1.06006,5.925,5.925,0,0,1-2.174.36987,4.26829,4.26829,0,0,1-2.215-.56982,3.82375,3.82375,0,0,1-1.49-1.62012,5.73508,5.73508,0,0,1-.54-2.47v-.78a5.25459,5.25459,0,0,1,1.08-3.52,3.73313,3.73313,0,0,1,3.014-1.27,3.9577,3.9577,0,0,1,2.639.82007,3.553,3.553,0,0,1,1.176,2.37012h-1.696a1.90726,1.90726,0,0,0-2.084-1.8,2.05109,2.05109,0,0,0-1.771.83984,4.24631,4.24631,0,0,0-.622,2.4502v.77a4.10767,4.10767,0,0,0,.677,2.51,2.262,2.262,0,0,0,1.893.88989,2.45821,2.45821,0,0,0,1.887-.61011V125.21h-2.051v-1.32007h3.774Zm5.612-4.58984a3.75684,3.75684,0,0,0-.677-.05,1.52481,1.52481,0,0,0-1.538.86987V129h-1.661v-7.3999h1.586l.041.82983a1.87309,1.87309,0,0,1,1.668-.96,1.64346,1.64346,0,0,1,.588.09009Zm4.17,6.01977a3.45806,3.45806,0,0,1-2.564-.99,3.64357,3.64357,0,0,1-.977-2.65991v-.2a4.45729,4.45729,0,0,1,.424-1.98A3.32946,3.32946,0,0,1,696.509,121.95a3.19657,3.19657,0,0,1,1.722-.48,2.89623,2.89623,0,0,1,2.331.96,4.05667,4.05667,0,0,1,.828,2.73v.67017h-4.833a2.24572,2.24572,0,0,0,.608,1.45,1.8685,1.8685,0,0,0,1.354.53,2.26042,2.26042,0,0,0,1.859-.92017l.895.8501a2.97042,2.97042,0,0,1-1.189,1.03A3.61272,3.61272,0,0,1,698.423,129.13989Zm-.198-6.33984a1.40835,1.40835,0,0,0-1.108.48,2.48474,2.48474,0,0,0-.533,1.33008h3.165V124.49a1.99658,1.99658,0,0,0-.444-1.26A1.37281,1.37281,0,0,0,698.225,122.80005Zm7.717,6.33984a3.45569,3.45569,0,0,1-2.563-.99,3.63993,3.63993,0,0,1-.978-2.65991v-.2a4.47154,4.47154,0,0,1,.424-1.98,3.32912,3.32912,0,0,1,1.203-1.36011,3.19965,3.19965,0,0,1,1.723-.48,2.8989,2.8989,0,0,1,2.331.96,4.06159,4.06159,0,0,1,.827,2.73v.67017h-4.833a2.24125,2.24125,0,0,0,.609,1.45,1.86761,1.86761,0,0,0,1.353.53,2.259,2.259,0,0,0,1.859-.92017l.89606.8501a2.97729,2.97729,0,0,1-1.189,1.03A3.617,3.617,0,0,1,705.942,129.13989Zm-.198-6.33984a1.40486,1.40486,0,0,0-1.107.48,2.48474,2.48474,0,0,0-.533,1.33008h3.165V124.49a1.99683,1.99683,0,0,0-.445-1.26A1.37267,1.37267,0,0,0,705.744,122.80005Zm6.002-1.2.048.85986a2.66148,2.66148,0,0,1,2.153-.99q2.31144,0,2.352,2.64014V129h-1.661v-4.79a1.4947,1.4947,0,0,0-.308-1.04,1.252,1.252,0,0,0-.991-.33984,1.59447,1.59447,0,0,0-1.497.90991V129h-1.661v-7.3999Zm10.076,2.46.54-5.01h5.346V120.48h-3.965l-.273,2.38013a3.11865,3.11865,0,0,1,1.558-.40015,2.78194,2.78194,0,0,1,2.208.91016,3.61445,3.61445,0,0,1,.793,2.45,3.32581,3.32581,0,0,1-.875,2.41992,3.18987,3.18987,0,0,1-2.399.8999,3.34873,3.34873,0,0,1-2.27-.77978,2.8159,2.8159,0,0,1-.97-2.05h1.606a1.76718,1.76718,0,0,0,.52,1.11987,1.6095,1.6095,0,0,0,1.107.38013,1.409,1.409,0,0,0,1.19-.55,2.33637,2.33637,0,0,0,.43-1.49,2.0637,2.0637,0,0,0-.472-1.42993,1.63243,1.63243,0,0,0-1.298-.54,2.1488,2.1488,0,0,0-.76605.12988,2.17968,2.17968,0,0,0-.684.46Zm7.855,7.17993-.896-.53a4.73011,4.73011,0,0,0,.54-1.08984,3.09806,3.09806,0,0,0,.158-.93018v-1.30005h1.497l-.007,1.2002a3.30245,3.30245,0,0,1-.369,1.45A3.48843,3.48843,0,0,1,729.677,131.24Zm8.217-5.93994V129h-1.73v-9.95h3.808a3.83466,3.83466,0,0,1,2.645.86987,2.89131,2.89131,0,0,1,.985,2.29,2.81591,2.81591,0,0,1-.964,2.28,4.03856,4.03856,0,0,1-2.687.81006Zm0-1.39014h2.078a2.04343,2.04343,0,0,0,1.408-.42993,1.59793,1.59793,0,0,0,.485-1.25,1.71973,1.71973,0,0,0-.492-1.29,1.90857,1.90857,0,0,0-1.353-.5h-2.126Zm10.937-.78979a3.75684,3.75684,0,0,0-.677-.05,1.52564,1.52564,0,0,0-1.538.86987V129h-1.661v-7.3999h1.586l.04095.82983a1.87318,1.87318,0,0,1,1.668-.96,1.64346,1.64346,0,0,1,.588.09009ZM751.647,129H749.986v-7.3999H751.647Zm-1.763-9.32007a.8873.8873,0,0,1,.239-.62988,1.06558,1.06558,0,0,1,1.395,0,.9298.9298,0,0,1,0,1.26,1.098,1.098,0,0,1-1.395,0A.88833.88833,0,0,1,749.884,119.67993Zm5.14,1.92017.048.77978a2.65192,2.65192,0,0,1,2.133-.90991,2.05029,2.05029,0,0,1,2.03,1.13013,2.63644,2.63644,0,0,1,2.27-1.13013,2.29462,2.29462,0,0,1,1.818.66992,2.97629,2.97629,0,0,1,.615,2V129h-1.661v-4.81006a1.45,1.45,0,0,0-.307-1.03,1.34278,1.34278,0,0,0-1.019-.32983,1.41159,1.41159,0,0,0-.93.2998,1.66082,1.66082,0,0,0-.499.8L759.529,129h-1.661v-4.87012a1.181,1.181,0,0,0-1.333-1.2998,1.46377,1.46377,0,0,0-1.415.80981V129h-1.661v-7.3999ZM770.063,129a2.58421,2.58421,0,0,1-.191-.68994,2.59389,2.59389,0,0,1-1.941.82983,2.63266,2.63266,0,0,1-1.819-.63989,2.03124,2.03124,0,0,1-.704-1.57007,2.09072,2.09072,0,0,1,.875-1.80981,4.21086,4.21086,0,0,1,2.516-.64014h1.018V124a1.16762,1.16762,0,0,0-1.298-1.27,1.45961,1.45961,0,0,0-.93.29.86451.86451,0,0,0-.362.72h-1.662a1.83251,1.83251,0,0,1,.404-1.13989,2.71187,2.71187,0,0,1,1.093-.83008,3.89188,3.89188,0,0,1,1.552-.3,3.13121,3.13121,0,0,1,2.072.65015,2.34273,2.34273,0,0,1,.793,1.83984V127.29a3.73025,3.73025,0,0,0,.28,1.58984V129Zm-1.825-1.2a1.86755,1.86755,0,0,0,.923-.24,1.57807,1.57807,0,0,0,.656-.64014V125.53h-.895a2.40307,2.40307,0,0,0-1.388.32007,1.0394,1.0394,0,0,0-.465.90991.97007.97007,0,0,0,.315.76A1.23761,1.23761,0,0,0,768.238,127.80005Zm8.853-4.67993a3.76388,3.76388,0,0,0-.677-.05,1.52493,1.52493,0,0,0-1.538.86987V129h-1.661v-7.3999h1.586l.041.82983a1.87318,1.87318,0,0,1,1.668-.96,1.64346,1.64346,0,0,1,.588.09009Zm3.76,3.5,1.503-5.02h1.771l-2.939,8.52a2.38712,2.38712,0,0,1-2.297,1.86987,2.72,2.72,0,0,1-.8-.12988v-1.28l.314.02a1.62126,1.62126,0,0,0,.944-.23,1.50758,1.50758,0,0,0,.506-.77l.239-.63013-2.598-7.36987h1.791Zm15.51,1.08984a3.28073,3.28073,0,0,1-1.497,1.06006,5.92138,5.92138,0,0,1-2.174.36987,4.26472,4.26472,0,0,1-2.214-.56982,3.826,3.826,0,0,1-1.491-1.62012,5.76339,5.76339,0,0,1-.54-2.47v-.78a5.25428,5.25428,0,0,1,1.08-3.52,3.73368,3.73368,0,0,1,3.015-1.27,3.95968,3.95968,0,0,1,2.639.82007,3.55662,3.55662,0,0,1,1.175,2.37012h-1.695a1.90761,1.90761,0,0,0-2.085-1.8,2.048,2.048,0,0,0-1.76995.83984,4.23878,4.23878,0,0,0-.622,2.4502v.77a4.10769,4.10769,0,0,0,.676,2.51,2.264,2.264,0,0,0,1.894.88989,2.458,2.458,0,0,0,1.887-.61011V125.21h-2.051v-1.32007h3.773Zm5.613-4.58984a3.764,3.764,0,0,0-.677-.05,1.525,1.525,0,0,0-1.538.86987V129H798.098v-7.3999h1.586l.041.82983a1.87318,1.87318,0,0,1,1.668-.96,1.63349,1.63349,0,0,1,.587.09009Zm4.17,6.01977a3.45651,3.45651,0,0,1-2.564-.99,3.63931,3.63931,0,0,1-.977-2.65991v-.2a4.47127,4.47127,0,0,1,.423-1.98,3.33657,3.33657,0,0,1,1.203-1.36011,3.19977,3.19977,0,0,1,1.723-.48,2.899,2.899,0,0,1,2.331.96,4.05648,4.05648,0,0,1,.827,2.73v.67017h-4.833a2.24186,2.24186,0,0,0,.609,1.45,1.86771,1.86771,0,0,0,1.353.53,2.2623,2.2623,0,0,0,1.86-.92017l.895.8501a2.97689,2.97689,0,0,1-1.189,1.03A3.61574,3.61574,0,0,1,806.144,129.13989Zm-.199-6.33984a1.40625,1.40625,0,0,0-1.107.48,2.48474,2.48474,0,0,0-.533,1.33008h3.165V124.49a1.99716,1.99716,0,0,0-.44495-1.26A1.37005,1.37005,0,0,0,805.945,122.80005Zm7.718,6.33984a3.4543,3.4543,0,0,1-2.563-.99,3.64014,3.64014,0,0,1-.978-2.65991v-.2a4.45729,4.45729,0,0,1,.424-1.98,3.32917,3.32917,0,0,1,1.203-1.36011,3.19715,3.19715,0,0,1,1.723-.48,2.89892,2.89892,0,0,1,2.331.96,4.06164,4.06164,0,0,1,.827,2.73v.67017h-4.833a2.24546,2.24546,0,0,0,.608,1.45,1.86826,1.86826,0,0,0,1.35394.53,2.25907,2.25907,0,0,0,1.859-.92017l.896.8501a2.97979,2.97979,0,0,1-1.19,1.03A3.61261,3.61261,0,0,1,813.663,129.13989Zm-.198-6.33984a1.40839,1.40839,0,0,0-1.108.48,2.49243,2.49243,0,0,0-.533,1.33008h3.165V124.49a1.991,1.991,0,0,0-.444-1.26A1.37277,1.37277,0,0,0,813.465,122.80005Zm6.002-1.2.048.85986a2.6601,2.6601,0,0,1,2.153-.99q2.31,0,2.352,2.64014V129H822.358v-4.79a1.49472,1.49472,0,0,0-.30694-1.04,1.25345,1.25345,0,0,0-.991-.33984,1.59681,1.59681,0,0,0-1.498.90991V129h-1.661v-7.3999ZM688.914,145h-1.723v-4.41992H682.741V145h-1.729v-9.95h1.729v4.13989H687.191v-4.13989h1.723Zm7.868-4.43994h-4.088v3.06006h4.779V145h-6.508v-9.95h6.46v1.38989h-4.731v2.75h4.088Zm5.524-1.92017,2.09094-3.58984h1.997L703.386,139.98l3.076,5.02h-2.017l-2.139-3.6499L700.159,145h-2.01l3.083-5.02-3.014-4.92993h1.996Zm6.275,4.61011a.9368.9368,0,0,1,.718.27.96157.96157,0,0,1,0,1.3,1.10205,1.10205,0,0,1-1.422,0,.8629.8629,0,0,1-.26-.65015.88769.88769,0,0,1,.253-.6499A.928.928,0,0,1,708.581,143.25Zm0-5.8a.9699.9699,0,0,1,.718.26.916.916,0,0,1,.253.66016.89225.89225,0,0,1-.253.6499,1.136,1.136,0,0,1-1.422,0,.87784.87784,0,0,1-.26-.6499.91174.91174,0,0,1,.253-.66016A.96072.96072,0,0,1,708.581,137.45Zm10.268,4.75h-1.532l-.519,2.8h-1.149l.52-2.8H714.59v-1.07983h1.784l.397-2.14014h-1.662v-1.09009h1.867l.533-2.83984H718.65l-.533,2.83984h1.538l.533-2.83984h1.142l-.533,2.83984h1.422V138.98h-1.627l-.397,2.14014h1.511V142.2H719.99l-.519,2.8h-1.142Zm-1.327-1.07983H719.054l.396-2.14014h-1.531ZM728.843,141.45h1.237V142.79h-1.237V145h-1.661v-2.21h-4.3l-.048-1.02,4.293-6.72h1.716Zm-4.266,0h2.605v-4.1499l-.123.21Zm11.314-.60986a2.71643,2.71643,0,0,1-4.04-.04,3.60943,3.60943,0,0,1-.78-2.42017,3.94284,3.94284,0,0,1,.397-1.77978,3.00738,3.00738,0,0,1,1.128-1.25,3.25173,3.25173,0,0,1,1.695-.44019,2.86751,2.86751,0,0,1,2.386,1.12012,4.72954,4.72954,0,0,1,.882,3v.47a6.16089,6.16089,0,0,1-1.217,4.11011,4.57611,4.57611,0,0,1-3.63,1.42993h-.198v-1.37012h.239a3.42551,3.42551,0,0,0,2.256-.71A2.9601,2.9601,0,0,0,735.891,140.84009Zm-1.6-.42017a1.691,1.691,0,0,0,.937-.29,1.85823,1.85823,0,0,0,.676-.78979v-.65015a3.13086,3.13086,0,0,0-.451-1.77,1.38187,1.38187,0,0,0-2.317-.07983,2.86277,2.86277,0,0,0,.007,3.01A1.36618,1.36618,0,0,0,734.291,140.41992Zm7.991,3.39014A1.50614,1.50614,0,0,0,743.314,143.45a1.23434,1.23434,0,0,0,.438-.8999h1.565a2.446,2.446,0,0,1-.43,1.29,2.80732,2.80732,0,0,1-1.094.95,3.29071,3.29071,0,0,1-1.49.34985,3.15558,3.15558,0,0,1-2.461-1.01,3.9721,3.9721,0,0,1-.909-2.76977v-.17017a3.88818,3.88818,0,0,1,.902-2.7,3.11878,3.11878,0,0,1,2.461-1.02,2.99428,2.99428,0,0,1,2.146.77,2.73322,2.73322,0,0,1,.875,2.02h-1.565a1.50326,1.50326,0,0,0-.438-1.05,1.39686,1.39686,0,0,0-1.03205-.40991,1.46514,1.46514,0,0,0-1.244.58984,2.97028,2.97028,0,0,0-.444,1.77v.26a3.04543,3.04543,0,0,0,.43,1.8A1.47954,1.47954,0,0,0,742.282,143.81006Zm4.628-3.75.54-5.01h5.346V136.48h-3.965l-.273,2.38013a3.11587,3.11587,0,0,1,1.558-.40015,2.78172,2.78172,0,0,1,2.20794.91016,3.61412,3.61412,0,0,1,.793,2.45,3.32581,3.32581,0,0,1-.875,2.41992,3.18985,3.18985,0,0,1-2.399.8999,3.34874,3.34874,0,0,1-2.27-.77978,2.81589,2.81589,0,0,1-.97-2.05h1.606a1.76718,1.76718,0,0,0,.52,1.11987,1.60952,1.60952,0,0,0,1.107.38013,1.406,1.406,0,0,0,1.189-.55,2.33653,2.33653,0,0,0,.431-1.49,2.0637,2.0637,0,0,0-.472-1.42993,1.63247,1.63247,0,0,0-1.298-.54,1.90212,1.90212,0,0,0-1.44995.58984ZM761.02,141.37988a4.42454,4.42454,0,0,1-.773,2.74024,2.49345,2.49345,0,0,1-2.112,1.01977,2.42754,2.42754,0,0,1-2.024-.93994l-.082.8h-1.504V134.5h1.662v3.81006a2.41223,2.41223,0,0,1,1.934-.84009,2.53037,2.53037,0,0,1,2.126,1,4.52414,4.52414,0,0,1,.773,2.81006ZM759.358,141.23a3.131,3.131,0,0,0-.423-1.8,1.41392,1.41392,0,0,0-1.231-.59985,1.53649,1.53649,0,0,0-1.517.93994v3.05a1.55779,1.55779,0,0,0,1.531.96,1.39433,1.39433,0,0,0,1.203-.58008,3.03629,3.03629,0,0,0,.437-1.75ZM766.81,145h-1.655v-7.99l-2.44.83008v-1.40015l3.883-1.42993h.212Z" fill="#fff"/>
	<rect x="680" y="212" width="150" height="100" fill="#033328"/>
	<path d="M688.641,339.71a3.28041,3.28041,0,0,1-1.497,1.06006,5.925,5.925,0,0,1-2.174.36987,4.26829,4.26829,0,0,1-2.215-.56982,3.82375,3.82375,0,0,1-1.49-1.62012,5.73508,5.73508,0,0,1-.54-2.47v-.78a5.25459,5.25459,0,0,1,1.08-3.52,3.73313,3.73313,0,0,1,3.014-1.27,3.9577,3.9577,0,0,1,2.639.82007,3.553,3.553,0,0,1,1.176,2.37012h-1.696a1.90726,1.90726,0,0,0-2.084-1.8,2.05109,2.05109,0,0,0-1.771.83984,4.24631,4.24631,0,0,0-.622,2.4502v.77a4.10767,4.10767,0,0,0,.677,2.51,2.262,2.262,0,0,0,1.893.88989,2.45821,2.45821,0,0,0,1.887-.61011V337.21h-2.051v-1.32007h3.774Zm5.612-4.58984a3.75684,3.75684,0,0,0-.677-.05,1.52481,1.52481,0,0,0-1.538.86987V341h-1.661v-7.3999h1.586l.041.82983a1.87309,1.87309,0,0,1,1.668-.96,1.64346,1.64346,0,0,1,.588.09009Zm4.17,6.01977a3.45806,3.45806,0,0,1-2.564-.99,3.64357,3.64357,0,0,1-.977-2.65991v-.2a4.45729,4.45729,0,0,1,.424-1.98A3.32946,3.32946,0,0,1,696.509,333.95a3.19657,3.19657,0,0,1,1.722-.48,2.89623,2.89623,0,0,1,2.331.96,4.05667,4.05667,0,0,1,.828,2.73v.67017h-4.833a2.24572,2.24572,0,0,0,.608,1.45,1.8685,1.8685,0,0,0,1.354.53,2.26042,2.26042,0,0,0,1.859-.92017l.895.8501a2.97042,2.97042,0,0,1-1.189,1.03A3.61272,3.61272,0,0,1,698.423,341.13989Zm-.198-6.33984a1.40835,1.40835,0,0,0-1.108.48,2.48474,2.48474,0,0,0-.533,1.33008h3.165V336.49a1.99658,1.99658,0,0,0-.444-1.26A1.37281,1.37281,0,0,0,698.225,334.80005Zm7.717,6.33984a3.45569,3.45569,0,0,1-2.563-.99,3.63993,3.63993,0,0,1-.978-2.65991v-.2a4.47154,4.47154,0,0,1,.424-1.98,3.32912,3.32912,0,0,1,1.203-1.36011,3.19965,3.19965,0,0,1,1.723-.48,2.8989,2.8989,0,0,1,2.331.96,4.06159,4.06159,0,0,1,.827,2.73v.67017h-4.833a2.24125,2.24125,0,0,0,.609,1.45,1.86761,1.86761,0,0,0,1.353.53,2.259,2.259,0,0,0,1.859-.92017l.89606.8501a2.97729,2.97729,0,0,1-1.189,1.03A3.617,3.617,0,0,1,705.942,341.13989Zm-.198-6.33984a1.40486,1.40486,0,0,0-1.107.48,2.48474,2.48474,0,0,0-.533,1.33008h3.165V336.49a1.99683,1.99683,0,0,0-.445-1.26A1.37267,1.37267,0,0,0,705.744,334.80005Zm6.002-1.2.048.85986a2.66148,2.66148,0,0,1,2.153-.99q2.31144,0,2.352,2.64014V341h-1.661v-4.79a1.4947,1.4947,0,0,0-.308-1.04,1.252,1.252,0,0,0-.991-.33984,1.59447,1.59447,0,0,0-1.497.90991V341h-1.661v-7.3999ZM725.876,341h-1.654v-7.99l-2.441.83008v-1.40015l3.883-1.42993h.212Zm9.946-4.18994a5.43568,5.43568,0,0,1-.806,3.24,2.84657,2.84657,0,0,1-2.441,1.08984,2.90379,2.90379,0,0,1-2.433-1.05981,5.21441,5.21441,0,0,1-.834-3.15015V335.2a5.37775,5.37775,0,0,1,.799-3.22,3.34749,3.34749,0,0,1,4.888-.02,5.14194,5.14194,0,0,1,.827,3.13013ZM734.161,334.95a4.18181,4.18181,0,0,0-.383-2.05,1.45116,1.45116,0,0,0-2.413-.02978,3.85666,3.85666,0,0,0-.403,1.91992v2.26a4.33512,4.33512,0,0,0,.39,2.07983,1.3142,1.3142,0,0,0,1.223.68018,1.28738,1.28738,0,0,0,1.183-.63013,4.06482,4.06482,0,0,0,.403-1.98ZM688.914,357h-1.723v-4.41992H682.741V357h-1.729v-9.95h1.729v4.13989H687.191v-4.13989h1.723Zm7.868-4.43994h-4.088v3.06006h4.779V357h-6.508v-9.95h6.46v1.38989h-4.731v2.75h4.088Zm5.524-1.92017,2.09094-3.58984h1.997L703.386,351.98l3.076,5.02h-2.017l-2.139-3.6499L700.159,357h-2.01l3.083-5.02-3.014-4.92993h1.996Zm6.275,4.61011a.9368.9368,0,0,1,.718.27.96157.96157,0,0,1,0,1.3,1.10205,1.10205,0,0,1-1.422,0,.8629.8629,0,0,1-.26-.65015.88769.88769,0,0,1,.253-.6499A.928.928,0,0,1,708.581,355.25Zm0-5.8a.9699.9699,0,0,1,.718.26.916.916,0,0,1,.253.66016.89225.89225,0,0,1-.253.6499,1.136,1.136,0,0,1-1.422,0,.87784.87784,0,0,1-.26-.6499.91174.91174,0,0,1,.253-.66016A.96072.96072,0,0,1,708.581,349.45Zm10.268,4.75h-1.532l-.519,2.8h-1.149l.52-2.8H714.59v-1.07983h1.784l.397-2.14014h-1.662v-1.09009h1.867l.533-2.83984H718.65l-.533,2.83984h1.538l.533-2.83984h1.142l-.533,2.83984h1.422V350.98h-1.627l-.397,2.14014h1.511V354.2H719.99l-.519,2.8h-1.142Zm-1.327-1.07983H719.054l.396-2.14014h-1.531Zm12.189-.31006a5.42785,5.42785,0,0,1-.807,3.24,2.8435,2.8435,0,0,1-2.44,1.08984,2.90581,2.90581,0,0,1-2.434-1.05981,5.22839,5.22839,0,0,1-.83405-3.15015V351.2a5.3778,5.3778,0,0,1,.8-3.22,3.34748,3.34748,0,0,1,4.888-.02,5.14854,5.14854,0,0,1,.827,3.13013ZM728.05,350.95a4.193,4.193,0,0,0-.383-2.05,1.45109,1.45109,0,0,0-2.413-.02978,3.8453,3.8453,0,0,0-.403,1.91992v2.26a4.3367,4.3367,0,0,0,.389,2.07983,1.31678,1.31678,0,0,0,1.224.68018,1.28574,1.28574,0,0,0,1.182-.63013,4.05137,4.05137,0,0,0,.404-1.98Zm5.052.31006h1.011a1.77012,1.77012,0,0,0,1.21-.38989,1.41637,1.41637,0,0,0,.451-1.13013,1.52465,1.52465,0,0,0-.376-1.1001,1.4962,1.4962,0,0,0-1.134-.3999,1.57806,1.57806,0,0,0-1.101.38989,1.29078,1.29078,0,0,0-.431,1.01h-1.661a2.54983,2.54983,0,0,1,.404-1.3999,2.69478,2.69478,0,0,1,1.134-.97,3.65351,3.65351,0,0,1,1.634-.36011,3.40488,3.40488,0,0,1,2.338.75,2.61748,2.61748,0,0,1,.855,2.08008,2.08523,2.08523,0,0,1-.431,1.26,2.60758,2.60758,0,0,1-1.101.88989,2.40126,2.40126,0,0,1,1.244.89014,2.36709,2.36709,0,0,1,.431,1.42993,2.65631,2.65631,0,0,1-.923,2.13013,4.00766,4.00766,0,0,1-4.764.03,2.5227,2.5227,0,0,1-.916-2.04h1.661a1.39578,1.39578,0,0,0,.437,1.06982,1.701,1.701,0,0,0,1.19.41016,1.73785,1.73785,0,0,0,1.216-.41016,1.5316,1.5316,0,0,0,.445-1.18994,1.55631,1.55631,0,0,0-.465-1.21,1.9994,1.9994,0,0,0-1.381-.41992h-.977Zm7.957,0h1.011a1.77022,1.77022,0,0,0,1.21-.38989,1.41656,1.41656,0,0,0,.451-1.13013,1.52442,1.52442,0,0,0-.376-1.1001,1.496,1.496,0,0,0-1.134-.3999,1.57807,1.57807,0,0,0-1.101.38989,1.2909,1.2909,0,0,0-.431,1.01h-1.661a2.54983,2.54983,0,0,1,.404-1.3999,2.695,2.695,0,0,1,1.134-.97,3.6538,3.6538,0,0,1,1.634-.36011,3.405,3.405,0,0,1,2.338.75,2.61768,2.61768,0,0,1,.855,2.08008,2.085,2.085,0,0,1-.431,1.26,2.60707,2.60707,0,0,1-1.101.88989,2.40109,2.40109,0,0,1,1.244.89014,2.36666,2.36666,0,0,1,.431,1.42993,2.6532,2.6532,0,0,1-.923,2.13013,4.00766,4.00766,0,0,1-4.764.03,2.5227,2.5227,0,0,1-.916-2.04h1.661a1.39559,1.39559,0,0,0,.437,1.06982,1.70084,1.70084,0,0,0,1.19.41016,1.7422,1.7422,0,0,0,1.217-.41016,1.5346,1.5346,0,0,0,.444-1.18994,1.55635,1.55635,0,0,0-.465-1.21,1.99934,1.99934,0,0,0-1.381-.41992h-.977Zm7.957,0h1.011a1.77012,1.77012,0,0,0,1.21-.38989,1.41637,1.41637,0,0,0,.451-1.13013,1.52465,1.52465,0,0,0-.376-1.1001,1.4962,1.4962,0,0,0-1.134-.3999,1.578,1.578,0,0,0-1.101.38989,1.29075,1.29075,0,0,0-.431,1.01h-1.661a2.54991,2.54991,0,0,1,.404-1.3999,2.69478,2.69478,0,0,1,1.134-.97,3.65354,3.65354,0,0,1,1.634-.36011,3.40492,3.40492,0,0,1,2.338.75,2.61751,2.61751,0,0,1,.855,2.08008,2.08529,2.08529,0,0,1-.431,1.26,2.60133,2.60133,0,0,1-1.101.88989,2.40126,2.40126,0,0,1,1.244.89014,2.367,2.367,0,0,1,.431,1.42993,2.65334,2.65334,0,0,1-.923,2.13013,4.00766,4.00766,0,0,1-4.764.03,2.5227,2.5227,0,0,1-.916-2.04h1.661a1.39575,1.39575,0,0,0,.437,1.06982,1.7026,1.7026,0,0,0,1.19.41016,1.74236,1.74236,0,0,0,1.217-.41016,1.53478,1.53478,0,0,0,.444-1.18994,1.55631,1.55631,0,0,0-.465-1.21,1.99939,1.99939,0,0,0-1.381-.41992h-.977ZM761.744,357h-6.692v-1.13989l3.315-3.62012a8.26791,8.26791,0,0,0,1.019-1.33008,2.16443,2.16443,0,0,0,.307-1.07983,1.63484,1.63484,0,0,0-.403-1.15015,1.38275,1.38275,0,0,0-1.073-.43994,1.59641,1.59641,0,0,0-1.251.5,1.905,1.905,0,0,0-.445,1.34009H754.86a3.24686,3.24686,0,0,1,.411-1.63013,2.874,2.874,0,0,1,1.182-1.13989,3.77116,3.77116,0,0,1,1.777-.40015,3.33163,3.33163,0,0,1,2.284.73,2.50549,2.50549,0,0,1,.84,2.01,3.43773,3.43773,0,0,1-.423,1.57007,8.807,8.807,0,0,1-1.374,1.8501l-2.434,2.59985h4.621Zm7.533-7.33008a2.353,2.353,0,0,1-.376,1.31006,2.596,2.596,0,0,1-1.025.89014,2.79318,2.79318,0,0,1,1.196.99,2.50682,2.50682,0,0,1,.424,1.42993,2.61017,2.61017,0,0,1-.889,2.08008,4.01843,4.01843,0,0,1-4.744-.01,2.592,2.592,0,0,1-.888-2.07007,2.52276,2.52276,0,0,1,.423-1.43994,2.7682,2.7682,0,0,1,1.19-.98,2.62011,2.62011,0,0,1-1.019-.89014,2.38868,2.38868,0,0,1-.369-1.31006,2.56214,2.56214,0,0,1,.821-2.01,3.65463,3.65463,0,0,1,4.436,0A2.56128,2.56128,0,0,1,769.277,349.66992Zm-1.442,4.53a1.642,1.642,0,0,0-.444-1.18994,1.72672,1.72672,0,0,0-2.325,0,1.65476,1.65476,0,0,0-.43,1.18994,1.49164,1.49164,0,0,0,1.606,1.61011,1.5744,1.5744,0,0,0,1.169-.42017A1.61975,1.61975,0,0,0,767.835,354.2Zm-.212-4.47a1.50584,1.50584,0,0,0-.376-1.06006,1.26619,1.26619,0,0,0-1.012-.42993,1.29814,1.29814,0,0,0-1.005.40991,1.50884,1.50884,0,0,0-.369,1.08008,1.55128,1.55128,0,0,0,.369,1.09009,1.31119,1.31119,0,0,0,1.012.3999,1.28851,1.28851,0,0,0,1.005-.3999A1.53192,1.53192,0,0,0,767.623,349.73Z" fill="#fff"/>
	</svg>