<svg width="146" height="145" viewBox="0 0 146 145" fill="none" xmlns="http://www.w3.org/2000/svg">
<path d="M0.916931 141.409C0.916931 142.932 2.1515 144.166 3.67442 144.166H142.326C143.849 144.166 145.083 142.932 145.083 141.409V2.75746C145.083 1.23454 143.849 -3.05176e-05 142.326 -3.05176e-05H3.67442C2.15151 -3.05176e-05 0.916931 1.23453 0.916931 2.75745V141.409Z" fill="#F0F2F6"/>
<path d="M68.5877 12.5526C68.8027 11.6383 70.1043 11.6391 70.3181 12.5537L87.3361 85.3499C87.8041 87.3514 87.8027 89.434 87.3323 91.435L77.8858 131.614C77.6708 132.528 76.3692 132.527 76.1554 131.613L59.1374 58.8164C58.6694 56.8148 58.6708 54.7322 59.1412 52.7312L68.5877 12.5526Z" fill="#FF0055"/>
</svg>
