<svg width="145" height="145" viewBox="0 0 145 145" fill="none" xmlns="http://www.w3.org/2000/svg">
<path d="M0 141.409C0 142.932 1.23457 144.166 2.75749 144.166H141.409C142.932 144.166 144.166 142.932 144.166 141.409V2.75758C144.166 1.23466 142.932 9.15527e-05 141.409 9.15527e-05H2.75749C1.23458 9.15527e-05 0 1.23465 0 2.75757V141.409Z" fill="white"/>
<path d="M67.6708 12.5526C67.8857 11.6383 69.1873 11.6391 69.4011 12.5537L86.4192 85.3499C86.8871 87.3514 86.8858 89.434 86.4154 91.435L76.9689 131.614C76.7539 132.528 75.4523 132.527 75.2385 131.613L58.2204 58.8164C57.7525 56.8148 57.7538 54.7322 58.2243 52.7312L67.6708 12.5526Z" fill="black"/>
</svg>
