<svg width="409" height="145" viewBox="0 0 409 145" fill="none" xmlns="http://www.w3.org/2000/svg">
<path d="M183.198 20.6626C183.198 15.8318 187.364 11.9318 192.505 11.9318C197.602 11.9318 201.768 15.8318 201.768 20.6626C201.768 25.4488 197.602 29.3488 192.505 29.3488C187.364 29.3488 183.198 25.4488 183.198 20.6626ZM200.571 39.01V110.849C200.571 125.562 191.929 132.742 176.684 132.476C175.753 132.432 174.822 132.476 173.626 132.387V119.313C174.512 119.358 175.133 119.402 175.931 119.402C182.091 119.402 184.528 116.344 184.528 110.627V39.01H200.571Z" fill="#F0F2F6"/>
<path d="M249.499 95.1158C260.091 95.1158 265.675 85.809 265.675 73.046C265.675 60.371 260.179 51.2861 249.499 51.2861C239.173 51.2861 233.5 59.8393 233.5 73.046C233.5 86.2523 239.262 95.1158 249.499 95.1158ZM217.767 16.3192H233.811V50.2665H234.475C236.912 45.3475 241.92 38.1236 253.931 38.1236C269.663 38.1236 282.028 50.4441 282.028 73.1348C282.028 95.5591 270.018 108.279 253.975 108.279C242.275 108.279 237.001 101.321 234.475 96.3572H233.545V107.082H217.767V16.3192Z" fill="#F0F2F6"/>
<path d="M295.726 16.3195H311.769V66.3541H312.877L337.34 39.0102H356.086L329.718 68.3927L357.638 107.082H338.448L317.619 77.9655L311.769 84.214V107.082H295.726V16.3195Z" fill="#F0F2F6"/>
<path d="M366.726 39.0101H382.282V50.3555H382.991C385.473 42.4671 391.943 38.0351 399.787 38.0351C403.466 38.0351 406.524 39.0101 408.917 40.517L403.953 53.8121C402.225 53.0143 400.231 52.3941 397.616 52.3941C389.24 52.3941 382.769 58.4657 382.769 67.0631V107.082H366.726V39.0101Z" fill="#F0F2F6"/>
<path d="M0.916931 141.409C0.916931 142.932 2.1515 144.166 3.67442 144.166H142.326C143.849 144.166 145.083 142.932 145.083 141.409V2.75746C145.083 1.23454 143.849 -3.05176e-05 142.326 -3.05176e-05H3.67442C2.15151 -3.05176e-05 0.916931 1.23453 0.916931 2.75745V141.409Z" fill="#F0F2F6"/>
<path d="M68.5877 12.5526C68.8027 11.6383 70.1043 11.6391 70.3181 12.5537L87.3361 85.3499C87.8041 87.3514 87.8027 89.434 87.3323 91.435L77.8858 131.614C77.6708 132.528 76.3692 132.527 76.1554 131.613L59.1374 58.8164C58.6694 56.8148 58.6708 54.7322 59.1412 52.7312L68.5877 12.5526Z" fill="#FF0055"/>
</svg>
