<svg width="408" height="145" viewBox="0 0 408 145" fill="none" xmlns="http://www.w3.org/2000/svg">
<path d="M182.281 20.6628C182.281 15.832 186.447 11.9321 191.588 11.9321C196.685 11.9321 200.851 15.832 200.851 20.6628C200.851 25.449 196.685 29.349 191.588 29.349C186.447 29.349 182.281 25.449 182.281 20.6628ZM199.654 39.0103V110.849C199.654 125.562 191.012 132.742 175.767 132.476C174.836 132.432 173.905 132.476 172.709 132.388V119.314C173.595 119.358 174.216 119.402 175.014 119.402C181.174 119.402 183.611 116.345 183.611 110.627V39.0103H199.654Z" fill="white"/>
<path d="M248.582 95.116C259.174 95.116 264.758 85.8092 264.758 73.0462C264.758 60.3713 259.262 51.2864 248.582 51.2864C238.256 51.2864 232.583 59.8395 232.583 73.0462C232.583 86.2526 238.345 95.116 248.582 95.116ZM216.85 16.3194H232.894V50.2667H233.558C235.995 45.3478 241.003 38.1239 253.014 38.1239C268.746 38.1239 281.111 50.4443 281.111 73.135C281.111 95.5593 269.101 108.279 253.058 108.279C241.358 108.279 236.084 101.321 233.558 96.3575H232.628V107.082H216.85V16.3194Z" fill="white"/>
<path d="M294.809 16.3196H310.852V66.3542H311.96L336.423 39.0103H355.169L328.801 68.3928L356.721 107.082H337.531L316.702 77.9656L310.852 84.2141V107.082H294.809V16.3196Z" fill="white"/>
<path d="M365.809 39.0103H381.365V50.3556H382.074C384.556 42.4673 391.026 38.0352 398.87 38.0352C402.549 38.0352 405.607 39.0103 408 40.5171L403.036 53.8123C401.308 53.0144 399.314 52.3942 396.699 52.3942C388.323 52.3942 381.852 58.4658 381.852 67.0632V107.082H365.809V39.0103Z" fill="white"/>
<path d="M0 141.409C0 142.932 1.23457 144.166 2.75749 144.166H141.409C142.932 144.166 144.166 142.932 144.166 141.409V2.75758C144.166 1.23466 142.932 9.15527e-05 141.409 9.15527e-05H2.75749C1.23458 9.15527e-05 0 1.23465 0 2.75757V141.409Z" fill="white"/>
<path d="M67.6708 12.5526C67.8857 11.6383 69.1873 11.6391 69.4011 12.5537L86.4192 85.3499C86.8871 87.3514 86.8858 89.434 86.4154 91.435L76.9689 131.614C76.7539 132.528 75.4523 132.527 75.2385 131.613L58.2204 58.8164C57.7525 56.8148 57.7538 54.7322 58.2243 52.7312L67.6708 12.5526Z" fill="black"/>
</svg>
