<svg width="408" height="145" viewBox="0 0 408 145" fill="none" xmlns="http://www.w3.org/2000/svg">
<path d="M0.354431 141.409C0.354431 142.932 1.589 144.166 3.11192 144.166H141.763C143.286 144.166 144.521 142.932 144.521 141.409V2.75746C144.521 1.23454 143.286 -3.05176e-05 141.763 -3.05176e-05H3.11192C1.58901 -3.05176e-05 0.354431 1.23453 0.354431 2.75745V141.409Z" fill="#202636"/>
<path d="M68.0252 12.5526C68.2402 11.6383 69.5418 11.6391 69.7556 12.5537L86.7736 85.3499C87.2416 87.3514 87.2402 89.434 86.7698 91.435L77.3233 131.614C77.1083 132.528 75.8067 132.527 75.5929 131.613L58.5749 58.8164C58.1069 56.8148 58.1083 54.7322 58.5787 52.7312L68.0252 12.5526Z" fill="#FF0055"/>
<path d="M182.093 20.5382C182.093 15.7074 186.259 11.8074 191.4 11.8074C196.497 11.8074 200.662 15.7074 200.662 20.5382C200.662 25.3244 196.497 29.2244 191.4 29.2244C186.259 29.2244 182.093 25.3244 182.093 20.5382ZM199.466 38.8856V110.724C199.466 125.437 190.824 132.618 175.579 132.351C174.648 132.307 173.717 132.351 172.521 132.263V119.189C173.407 119.234 174.027 119.278 174.825 119.278C180.985 119.278 183.423 116.22 183.423 110.503V38.8856H199.466Z" fill="#202636"/>
<path d="M248.394 94.9914C258.986 94.9914 264.57 85.6846 264.57 72.9216C264.57 60.2466 259.074 51.1617 248.394 51.1617C238.068 51.1617 232.395 59.7149 232.395 72.9216C232.395 86.1279 238.156 94.9914 248.394 94.9914ZM216.662 16.1948H232.705V50.1421H233.37C235.807 45.2232 240.815 37.9992 252.825 37.9992C268.558 37.9992 280.923 50.3197 280.923 73.0104C280.923 95.4347 268.913 108.154 252.87 108.154C241.17 108.154 235.896 101.196 233.37 96.2328H232.439V106.957H216.662V16.1948Z" fill="#202636"/>
<path d="M294.62 16.1951H310.664V66.2297H311.771L336.235 38.8858H354.981L328.612 68.2683L356.533 106.958H337.343L316.513 77.8411L310.664 84.0896V106.958H294.62V16.1951Z" fill="#202636"/>
<path d="M365.621 38.8858H381.176V50.2311H381.886C384.367 42.3427 390.838 37.9107 398.682 37.9107C402.36 37.9107 405.418 38.8858 407.812 40.3926L402.848 53.6878C401.12 52.8899 399.126 52.2697 396.511 52.2697C388.134 52.2697 381.664 58.3413 381.664 66.9387V106.958H365.621V38.8858Z" fill="#202636"/>
</svg>
