<svg width="145" height="145" viewBox="0 0 145 145" fill="none" xmlns="http://www.w3.org/2000/svg">
<path d="M0.354431 141.409C0.354431 142.932 1.589 144.166 3.11192 144.166H141.763C143.286 144.166 144.521 142.932 144.521 141.409V2.75746C144.521 1.23454 143.286 -3.05176e-05 141.763 -3.05176e-05H3.11192C1.58901 -3.05176e-05 0.354431 1.23453 0.354431 2.75745V141.409Z" fill="#202636"/>
<path d="M68.0252 12.5526C68.2402 11.6383 69.5418 11.6391 69.7556 12.5537L86.7736 85.3499C87.2416 87.3514 87.2402 89.434 86.7698 91.435L77.3233 131.614C77.1083 132.528 75.8067 132.527 75.5929 131.613L58.5749 58.8164C58.1069 56.8148 58.1083 54.7322 58.5787 52.7312L68.0252 12.5526Z" fill="#FF0055"/>
</svg>
